<mxfile host="65bd71144e" scale="5" border="0">
    <diagram id="1VByhfI-c5pulGPuejzD" name="Page-1">
        <mxGraphModel dx="1411" dy="685" grid="1" gridSize="10" guides="1" tooltips="1" connect="1" arrows="1" fold="1" page="1" pageScale="1" pageWidth="1169" pageHeight="827" background="#ffffff" math="0" shadow="0">
            <root>
                <mxCell id="0"/>
                <mxCell id="1" parent="0"/>
                <mxCell id="16" value="&lt;font style=&quot;font-size: 13px;&quot;&gt;&amp;nbsp;Local&lt;/font&gt;" style="rounded=0;whiteSpace=wrap;html=1;align=left;verticalAlign=top;" parent="1" vertex="1">
                    <mxGeometry x="140" y="320" width="580" height="230" as="geometry"/>
                </mxCell>
                <mxCell id="42" value="&lt;font style=&quot;font-size: 13px;&quot;&gt;&lt;b&gt;Control Plane&lt;br&gt;&lt;/b&gt;(docker-compose)&lt;/font&gt;" style="rounded=0;whiteSpace=wrap;html=1;align=center;verticalAlign=middle;" parent="1" vertex="1">
                    <mxGeometry x="370" y="420" width="120" height="90" as="geometry"/>
                </mxCell>
                <mxCell id="45" value="report" style="edgeStyle=none;html=1;exitX=0;exitY=0.5;exitDx=0;exitDy=0;fontSize=13;" parent="1" source="44" target="42" edge="1">
                    <mxGeometry relative="1" as="geometry"/>
                </mxCell>
                <mxCell id="49" style="edgeStyle=none;html=1;entryX=0;entryY=0.5;entryDx=0;entryDy=0;entryPerimeter=0;" parent="1" target="6" edge="1">
                    <mxGeometry relative="1" as="geometry">
                        <mxPoint x="110" y="460" as="sourcePoint"/>
                    </mxGeometry>
                </mxCell>
                <mxCell id="50" value="edit" style="edgeLabel;html=1;align=center;verticalAlign=middle;resizable=0;points=[];fontSize=13;" parent="49" vertex="1" connectable="0">
                    <mxGeometry x="0.2417" y="-6" relative="1" as="geometry">
                        <mxPoint x="-5" y="-11" as="offset"/>
                    </mxGeometry>
                </mxCell>
                <mxCell id="53" style="edgeStyle=none;html=1;entryX=0;entryY=0.5;entryDx=0;entryDy=0;" parent="1" target="42" edge="1">
                    <mxGeometry relative="1" as="geometry">
                        <mxPoint x="165.71000000000004" y="465" as="targetPoint"/>
                        <mxPoint x="110" y="465" as="sourcePoint"/>
                    </mxGeometry>
                </mxCell>
                <mxCell id="55" value="view console" style="edgeLabel;html=1;align=center;verticalAlign=middle;resizable=0;points=[];fontSize=13;" parent="53" vertex="1" connectable="0">
                    <mxGeometry x="-0.0033" y="3" relative="1" as="geometry">
                        <mxPoint as="offset"/>
                    </mxGeometry>
                </mxCell>
                <mxCell id="46" value="" style="shape=umlActor;verticalLabelPosition=bottom;verticalAlign=top;html=1;outlineConnect=0;fillColor=none;" parent="1" vertex="1">
                    <mxGeometry x="80" y="435" width="30" height="60" as="geometry"/>
                </mxCell>
                <mxCell id="65" value="" style="group" parent="1" vertex="1" connectable="0">
                    <mxGeometry x="799.5" y="260" width="51" height="280" as="geometry"/>
                </mxCell>
                <mxCell id="56" value="" style="sketch=0;aspect=fixed;html=1;points=[];align=center;image;fontSize=12;image=img/lib/mscae/Kubernetes.svg;" parent="65" vertex="1">
                    <mxGeometry x="0.5" width="50" height="48" as="geometry"/>
                </mxCell>
                <mxCell id="57" value="" style="editableCssRules=.*;shape=image;verticalLabelPosition=bottom;labelBackgroundColor=#ffffff;verticalAlign=top;aspect=fixed;imageAspect=0;image=data:image/svg+xml,PHN2ZyB4bWxucz0iaHR0cDovL3d3dy53My5vcmcvMjAwMC9zdmciIHhtbG5zOnY9Imh0dHBzOi8vdmVjdGEuaW8vbmFubyIgd2lkdGg9IjM2NS40NjQ5OTY3NzA0MjQ5MyIgaGVpZ2h0PSIzNzkuMjIyOTk0NDYzNTc3OTUiIHZpZXdCb3g9IjAgMCA5Ni42OTU5OTkxNDU1MDc4MSAxMDAuMzM1OTk4NTM1MTU2MjUiPiYjeGE7PHN0eWxlIHR5cGU9InRleHQvY3NzIj4mI3hhOwkuc3Qwe2ZpbGw6IzQyODVmNDt9JiN4YTsJLnN0MXtmaWxsOiNhZWNiZmE7fSYjeGE7PC9zdHlsZT4mI3hhOwk8cGF0aCBjbGFzcz0ic3QwIiBkPSJNMjkuNzk0IDEwMC4zMzZMNDYuOTIgNTAuMTY4aDQ5Ljc3NnpNMCA5OS42NzFsMTIuOTc2LTQ5LjUwMkgyOS4yMkwxNi44OTcgOTIuMDU0eiIvPiYjeGE7CTxwYXRoIGNsYXNzPSJzdDEiIGQ9Ik0yOS43OTQgMEw0Ni45MiA1MC4xNjhoNDkuNzc2ek0wIC42NjZsMTIuOTc2IDQ5LjUwMkgyOS4yMkwxNi44OTcgOC4yODN6Ii8+JiN4YTs8L3N2Zz4=;" parent="65" vertex="1">
                    <mxGeometry x="0.5" y="57" width="50" height="50" as="geometry"/>
                </mxCell>
                <mxCell id="58" value="" style="sketch=0;points=[[0,0,0],[0.25,0,0],[0.5,0,0],[0.75,0,0],[1,0,0],[0,1,0],[0.25,1,0],[0.5,1,0],[0.75,1,0],[1,1,0],[0,0.25,0],[0,0.5,0],[0,0.75,0],[1,0.25,0],[1,0.5,0],[1,0.75,0]];outlineConnect=0;fontColor=#232F3E;gradientColor=#F78E04;gradientDirection=north;fillColor=#D05C17;strokeColor=#ffffff;dashed=0;verticalLabelPosition=bottom;verticalAlign=top;align=center;html=1;fontSize=12;fontStyle=0;aspect=fixed;shape=mxgraph.aws4.resourceIcon;resIcon=mxgraph.aws4.ecs;" parent="65" vertex="1">
                    <mxGeometry x="0.5" y="172" width="50" height="50" as="geometry"/>
                </mxCell>
                <mxCell id="59" value="" style="sketch=0;points=[[0,0,0],[0.25,0,0],[0.5,0,0],[0.75,0,0],[1,0,0],[0,1,0],[0.25,1,0],[0.5,1,0],[0.75,1,0],[1,1,0],[0,0.25,0],[0,0.5,0],[0,0.75,0],[1,0.25,0],[1,0.5,0],[1,0.75,0]];outlineConnect=0;fontColor=#232F3E;gradientColor=#F78E04;gradientDirection=north;fillColor=#D05C17;strokeColor=#ffffff;dashed=0;verticalLabelPosition=bottom;verticalAlign=top;align=center;html=1;fontSize=12;fontStyle=0;aspect=fixed;shape=mxgraph.aws4.resourceIcon;resIcon=mxgraph.aws4.lambda;" parent="65" vertex="1">
                    <mxGeometry x="0.5" y="230" width="50" height="50" as="geometry"/>
                </mxCell>
                <mxCell id="64" value="" style="shape=image;verticalLabelPosition=bottom;labelBackgroundColor=default;verticalAlign=top;aspect=fixed;imageAspect=0;image=data:image/png,iVBORw0KGgoAAAANSUhEUgAAADMAAABJCAYAAACQGB6NAAAACXBIWXMAAAsSAAALEgHS3X78AAADNklEQVRoge2azXEiMRBG31IbACEMGdgR7KBSADgDiAB81sH2QWfYCCCDdQAqwUZgMoAQCGEP0qxn2QFmkObHVfMudkFZ9Ofpbn1qAT09PT09XUMJkyhh0rbjiMEASICtEmarhEnaDSeMQe73FDgoYV6VMMOW4gliUPDaC07UtOFYgikSAzAE1j710gbjCeKSmIwUV0/rr1BPt8RkTIEPJcxrfaGEU1YMuNR7UcIclDCTugIKoYqYjAT41cVWfo+YjJSOdb0QMRkJQNupp4SZfI+43lwJswRm2spdxHWvooR5AJZAGlMMfFqjHU7UMfL6f/EuZYnrtECcNCsixdXTsg5rpIRZAAdyQqA+MRkLIjYJJUyqhDngnsh//6TYaVZEZo3mwPM99eS3gCVwtck0ISbjAVdPG+CtTD35FF3gzO9N6k6zIqZ4a3StnnxqHigpBJyYU2h0dzDEBflxvj/5utgCawrq4hoDbeUeGAHvsSKtQIK3RgDeyG5x3bAyAwBt5VFb+QSMgWOEIKuS+p8/Qhb5p2a0lTtt5Qh4pp30C6KwAWgrV7jU2zQaTSAXu5m28qStnAGPwK6xiAK42Zq1lXtt5Rh4op16Kk3pfUZb+Y57Sm90tJ4qbZo+9V5xotpo5Ve5y854K/Lkx1CdGRgGebMz09h26p1ierMZrp7aYAM8xhST+npq0hrtgLG2cqatPMYUM/cHpyRnjfYR189zwh3Lx/lUj30ESPDXI8BRW/lIfGv0Boy0lZvzN+o6nKW44/LKf/gGZ/kXAWvuuDEkaWQGAEy0lc/cZ42OuLoY3zqdNnHSzGYAH8CwgjU64WYGo7JzgyaPzdkMYA3s/VHjkjXa4OpiVeUDmhxoZEyBiRLmJ7Dis54AfuOexl1d8FuM6AB8B0sr/tkRF3yUfamN6UyehNwMIJS2xWSkMRbpipgo9GK6Si+mq/RiukpMMW3PAKKKaXMGAET0Zhllr+zO0VYGxxJdTIafqS1x1v8mMcTU1gD89UgdM4CL1N7NctcjlQ5a91BbmhWR/2rI+Xudrplr+EvZJf5LRPCFxWT4C9k5btDR3QZQhtz1yKbNOHp6enp6esrwB0qdGdInefpLAAAAAElFTkSuQmCC;" parent="65" vertex="1">
                    <mxGeometry y="103" width="51" height="73" as="geometry"/>
                </mxCell>
                <mxCell id="40" value="" style="rounded=0;whiteSpace=wrap;html=1;align=left;verticalAlign=top;dashed=1;fillColor=none;" parent="1" vertex="1">
                    <mxGeometry x="340" y="340" width="350" height="190" as="geometry"/>
                </mxCell>
                <mxCell id="79" value="&lt;b style=&quot;font-size: 14px;&quot;&gt;3&lt;/b&gt;" style="ellipse;whiteSpace=wrap;html=1;aspect=fixed;fillColor=#f5f5f5;fontColor=#333333;strokeColor=#666666;fontSize=14;" vertex="1" parent="40">
                    <mxGeometry x="166" y="19" width="30" height="30" as="geometry"/>
                </mxCell>
                <mxCell id="73" value="" style="group" parent="1" vertex="1" connectable="0">
                    <mxGeometry x="740" y="350" width="50" height="230" as="geometry"/>
                </mxCell>
                <mxCell id="70" value="" style="edgeStyle=elbowEdgeStyle;elbow=horizontal;endArrow=classic;html=1;curved=0;rounded=0;endSize=8;startSize=8;strokeWidth=3;" parent="73" edge="1">
                    <mxGeometry width="50" height="50" relative="1" as="geometry">
                        <mxPoint x="1" y="115" as="sourcePoint"/>
                        <mxPoint x="50" y="170" as="targetPoint"/>
                        <Array as="points">
                            <mxPoint x="25" y="144"/>
                        </Array>
                    </mxGeometry>
                </mxCell>
                <mxCell id="66" style="edgeStyle=none;html=1;exitX=1;exitY=0.5;exitDx=0;exitDy=0;fontStyle=1;strokeWidth=3;" parent="73" source="44" edge="1">
                    <mxGeometry relative="1" as="geometry">
                        <mxPoint x="50" y="114.85714285714289" as="targetPoint"/>
                    </mxGeometry>
                </mxCell>
                <mxCell id="74" value="&lt;b&gt;&lt;font style=&quot;font-size: 14px;&quot;&gt;&amp;nbsp;deploy&amp;nbsp;&lt;/font&gt;&lt;/b&gt;" style="edgeLabel;html=1;align=center;verticalAlign=middle;resizable=0;points=[];labelBorderColor=#FFFFFF;labelBackgroundColor=default;" parent="66" vertex="1" connectable="0">
                    <mxGeometry x="-0.1507" relative="1" as="geometry">
                        <mxPoint x="-11" as="offset"/>
                    </mxGeometry>
                </mxCell>
                <mxCell id="67" value="" style="edgeStyle=elbowEdgeStyle;elbow=horizontal;endArrow=classic;html=1;curved=0;rounded=0;endSize=8;startSize=8;strokeWidth=3;" parent="73" edge="1">
                    <mxGeometry width="50" height="50" relative="1" as="geometry">
                        <mxPoint y="115" as="sourcePoint"/>
                        <mxPoint x="50" y="64" as="targetPoint"/>
                    </mxGeometry>
                </mxCell>
                <mxCell id="68" value="" style="edgeStyle=elbowEdgeStyle;elbow=horizontal;endArrow=classic;html=1;curved=0;rounded=0;endSize=8;startSize=8;strokeWidth=3;" parent="73" edge="1">
                    <mxGeometry width="50" height="50" relative="1" as="geometry">
                        <mxPoint y="115" as="sourcePoint"/>
                        <mxPoint x="50" as="targetPoint"/>
                    </mxGeometry>
                </mxCell>
                <mxCell id="69" value="" style="edgeStyle=elbowEdgeStyle;elbow=horizontal;endArrow=classic;html=1;curved=0;rounded=0;endSize=8;startSize=8;strokeWidth=3;" parent="73" edge="1">
                    <mxGeometry width="50" height="50" relative="1" as="geometry">
                        <mxPoint y="115" as="sourcePoint"/>
                        <mxPoint x="50" y="-60" as="targetPoint"/>
                    </mxGeometry>
                </mxCell>
                <mxCell id="17" value="" style="rounded=0;whiteSpace=wrap;html=1;" parent="1" vertex="1">
                    <mxGeometry x="250" y="150" width="250" height="110" as="geometry"/>
                </mxCell>
                <mxCell id="5" value="&lt;span style=&quot;&quot;&gt;&amp;lt;private&amp;gt;&lt;br&gt;your/tutorial&lt;/span&gt;" style="shape=cylinder3;whiteSpace=wrap;html=1;boundedLbl=1;backgroundOutline=1;size=15;" parent="1" vertex="1">
                    <mxGeometry x="340" y="160" width="68.57142857142857" height="80" as="geometry"/>
                </mxCell>
                <mxCell id="8" style="edgeStyle=none;html=1;exitX=0.855;exitY=0;exitDx=0;exitDy=4.35;exitPerimeter=0;entryX=0.145;entryY=1;entryDx=0;entryDy=-4.35;entryPerimeter=0;" parent="1" source="6" target="5" edge="1">
                    <mxGeometry relative="1" as="geometry"/>
                </mxCell>
                <mxCell id="11" value="push" style="edgeLabel;html=1;align=center;verticalAlign=middle;resizable=0;points=[];fontSize=13;" parent="8" vertex="1" connectable="0">
                    <mxGeometry x="0.0651" relative="1" as="geometry">
                        <mxPoint x="2" y="3" as="offset"/>
                    </mxGeometry>
                </mxCell>
                <mxCell id="6" value="tutorial" style="shape=cylinder3;whiteSpace=wrap;html=1;boundedLbl=1;backgroundOutline=1;size=15;fontSize=13;" parent="1" vertex="1">
                    <mxGeometry x="191.4257142857143" y="334" width="68.57142857142857" height="80" as="geometry"/>
                </mxCell>
                <mxCell id="18" value="" style="dashed=0;outlineConnect=0;html=1;align=center;labelPosition=center;verticalLabelPosition=bottom;verticalAlign=top;shape=mxgraph.weblogos.github" parent="1" vertex="1">
                    <mxGeometry x="250" y="150" width="50" height="50" as="geometry"/>
                </mxCell>
                <mxCell id="27" value="" style="shape=image;verticalLabelPosition=bottom;labelBackgroundColor=default;verticalAlign=top;aspect=fixed;imageAspect=0;image=data:image/png,iVBORw0KGgoAAAANSUhEUgAAC7gAAAu4CAYAAABxFfV5AAAACXBIWXMAAYHyAAGB8gEuNdqDAAAgAElEQVR4nOzaMQEAIAzAMMC/500GPRILfXtn5gAAAAAAAAAAAAAAwG9PAQAAAAAAAAAAAAAACgzuAAAAAAAAAAAAAAAkGNwBAAAAAAAAAAAAAEgwuAMAAAAAAAAAAAAAkGBwBwAAAAAAAAAAAAAgweAOAAAAAAAAAAAAAECCwR0AAAAAAAAAAAAAgASDOwAAAAAAAAAAAAAACQZ3AAAAAAAAAAAAAAASDO4AAAAAAAAAAAAAACQY3AEAAAAAAAAAAAAASDC4AwAAAAAAAAAAAACQYHAHAAAAAAAAAAAAACDB4A4AAAAAAAAAAAAAQILBHQAAAAAAAAAAAACABIM7AAAAAAAAAAAAAAAJBncAAAAAAAAAAAAAABIM7gAAAAAAAAAAAAAAJBjcAQAAAAAAAAAAAABIMLgDAAAAAAAAAAAAAJBgcAcAAAAAAAAAAAAAIMHgDgAAAAAAAAAAAABAgsEdAAAAAAAAAAAAAIAEgzsAAAAAAAAAAAAAAAkGdwAAAAAAAAAAAAAAEgzuAAAAAAAAAAAAAAAkGNwBAAAAAAAAAAAAAEgwuAMAAAAAAAAAAAAAkGBwBwAAAAAAAAAAAAAgweAOAAAAAAAAAAAAAECCwR0AAAAAAAAAAAAAgASDOwAAAAAAAAAAAAAACQZ3AAAAAAAAAAAAAAASDO4AAAAAAAAAAAAAACQY3AEAAAAAAAAAAAAASDC4AwAAAAAAAAAAAACQYHAHAAAAAAAAAAAAACDB4A4AAAAAAAAAAAAAQILBHQAAAAAAAAAAAACABIM7AAAAAAAAAAAAAAAJBncAAAAAAAAAAAAAABIM7gAAAAAAAAAAAAAAJBjcAQAAAAAAAAAAAABIMLgDAAAAAAAAAAAAAJBgcAcAAAAAAAAAAAAAIMHgDgAAAAAAAAAAAABAgsEdAAAAAAAAAAAAAIAEgzsAAAAAAAAAAAAAAAkGdwAAAAAAAAAAAAAAEgzuAAAAAAAAAAAAAAAkGNwBAAAAAAAAAAAAAEgwuAMAAAAAAAAAAAAAkGBwBwAAAAAAAAAAAAAgweAOAAAAAAAAAAAAAECCwR0AAAAAAAAAAAAAgASDOwAAAAAAAAAAAAAACQZ3AAAAAAAAAAAAAAASDO4AAAAAAAAAAAAAACQY3AEAAAAAAAAAAAAASDC4AwAAAAAAAAAAAACQYHAHAAAAAAAAAAAAACDB4A4AAAAAAAAAAAAAQILBHQAAAAAAAAAAAACABIM7AAAAAAAAAAAAAAAJBncAAAAAAAAAAAAAABIM7gAAAAAAAAAAAAAAJBjcAQAAAAAAAAAAAABIMLgDAAAAAAAAAAAAAJBgcAcAAAAAAAAAAAAAIMHgDgAAAAAAAAAAAABAgsEdAAAAAAAAAAAAAIAEgzsAAAAAAAAAAAAAAAkGdwAAAAAAAAAAAAAAEgzuAAAAAAAAAAAAAAAkGNwBAAAAAAAAAAAAAEgwuAMAAAAAAAAAAAAAkGBwBwAAAAAAAAAAAAAgweAOAAAAAAAAAAAAAECCwR0AAAAAAAAAAAAAgASDOwAAAAAAAAAAAAAACQZ3AAAAAAAAAAAAAAASDO4AAAAAAAAAAAAAACQY3AEAAAAAAAAAAAAASDC4AwAAAAAAAAAAAACQYHAHAAAAAAAAAAAAACDB4A4AAAAAAAAAAAAAQILBHQAAAAAAAAAAAACABIM7AAAAAAAAAAAAAAAJBncAAAAAAAAAAAAAABIM7gAAAAAAAAAAAAAAJBjcAQAAAAAAAAAAAABIMLgDAAAAAAAAAAAAAJBgcAcAAAAAAAAAAAAAIMHgDgAAAAAAAAAAAABAgsEdAAAAAAAAAAAAAIAEgzsAAAAAAAAAAAAAAAkGdwAAAAAAAAAAAAAAEgzuAAAAAAAAAAAAAAAkGNwBAAAAAAAAAAAAAEgwuAMAAAAAAAAAAAAAkGBwBwAAAAAAAAAAAAAgweAOAAAAAAAAAAAAAECCwR0AAAAAAAAAAAAAgASDOwAAAAAAAAAAAAAACQZ3AAAAAAAAAAAAAAASDO4AAAAAAAAAAAAAACQY3AEAAAAAAAAAAAAASDC4AwAAAAAAAAAAAACQYHAHAAAAAAAAAAAAACDB4A4AAAAAAAAAAAAAQILBHQAAAAAAAAAAAACABIM7AAAAAAAAAAAAAAAJBncAAAAAAAAAAAAAABIM7gAAAAAAAAAAAAAAJBjcAQAAAAAAAAAAAABIMLgDAAAAAAAAAAAAAJBgcAcAAAAAAAAAAAAAIMHgDgAAAAAAAAAAAABAgsEdAAAAAAAAAAAAAIAEgzsAAAAAAAAAAAAAAAkGdwAAAAAAAAAAAAAAEgzuAAAAAAAAAAAAAAAkGNwBAAAAAAAAAAAAAEgwuAMAAAAAAAAAAAAAkGBwBwAAAAAAAAAAAAAgweAOAAAAAAAAAAAAAECCwR0AAAAAAAAAAAAAgASDOwAAAAAAAAAAAAAACQZ3AAAAAAAAAAAAAAASDO4AAAAAAAAAAAAAACQY3AEAAAAAAAAAAAAASDC4AwAAAAAAAAAAAACQYHAHAAAAAAAAAAAAACDB4A4AAAAAAAAAAAAAQILBHQAAAAAAAAAAAACABIM7AAAAAAAAAAAAAAAJBncAAAAAAAAAAAAAABIM7gAAAAAAAAAAAAAAJBjcAQAAAAAAAAAAAABIMLgDAAAAAAAAAAAAAJBgcAcAAAAAAAAAAAAAIMHgDgAAAAAAAAAAAABAgsEdAAAAAAAAAAAAAIAEgzsAAAAAAAAAAAAAAAkGdwAAAAAAAAAAAAAAEgzuAAAAAAAAAAAAAAAkGNwBAAAAAAAAAAAAAEgwuAMAAAAAAAAAAAAAkGBwBwAAAAAAAAAAAAAgweAOAAAAAAAAAAAAAECCwR0AAAAAAAAAAAAAgASDOwAAAAAAAAAAAAAACQZ3AAAAAAAAAAAAAAASDO4AAAAAAAAAAAAAACQY3AEAAAAAAAAAAAAASDC4AwAAAAAAAAAAAACQYHAHAAAAAAAAAAAAACDB4A4AAAAAAAAAAAAAQILBHQAAAAAAAAAAAACABIM7AAAAAAAAAAAAAAAJBncAAAAAAAAAAAAAABIM7gAAAAAAAAAAAAAAJBjcAQAAAAAAAAAAAABIMLgDAAAAAAAAAAAAAJBgcAcAAAAAAAAAAAAAIMHgDgAAAAAAAAAAAABAgsEdAAAAAAAAAAAAAIAEgzsAAAAAAAAAAAAAAAkGdwAAAAAAAAAAAAAAEgzuAAAAAAAAAAAAAAAkGNwBAAAAAAAAAAAAAEgwuAMAAAAAAAAAAAAAkGBwBwAAAAAAAAAAAAAgweAOAAAAAAAAAAAAAECCwR0AAAAAAAAAAAAAgASDOwAAAAAAAAAAAAAACQZ3AAAAAAAAAAAAAAASDO4AAAAAAAAAAAAAACQY3AEAAAAAAAAAAAAASDC4AwAAAAAAAAAAAACQYHAHAAAAAAAAAAAAACDB4A4AAAAAAAAAAAAAQILBHQAAAAAAAAAAAACABIM7AAAAAAAAAAAAAAAJBncAAAAAAAAAAAAAABIM7gAAAAAAAAAAAAAAJBjcAQAAAAAAAAAAAABIMLgDAAAAAAAAAAAAAJBgcAcAAAAAAAAAAAAAIMHgDgAAAAAAAAAAAABAgsEdAAAAAAAAAAAAAIAEgzsAAAAAAAAAAAAAAAkGdwAAAAAAAAAAAAAAEgzuAAAAAAAAAAAAAAAkGNwBAAAAAAAAAAAAAEgwuAMAAAAAAAAAAAAAkGBwBwAAAAAAAAAAAAAgweAOAAAAAAAAAAAAAECCwR0AAAAAAAAAAAAAgASDOwAAAAAAAAAAAAAACQZ3AAAAAAAAAAAAAAASDO4AAAAAAAAAAAAAACQY3AEAAAAAAAAAAAAASDC4AwAAAAAAAAAAAACQYHAHAAAAAAAAAAAAACDB4A4AAAAAAAAAAAAAQILBHQAAAAAAAAAAAACABIM7AAAAAAAAAAAAAAAJBncAAAAAAAAAAAAAABIM7gAAAAAAAAAAAAAAJBjcAQAAAAAAAAAAAABIMLgDAAAAAAAAAAAAAJBgcAcAAAAAAAAAAAAAIMHgDgAAAAAAAAAAAABAgsEdAAAAAAAAAAAAAIAEgzsAAAAAAAAAAAAAAAkGdwAAAAAAAAAAAAAAEgzuAAAAAAAAAAAAAAAkGNwBAAAAAAAAAAAAAEgwuAMAAAAAAAAAAAAAkGBwBwAAAAAAAAAAAAAgweAOAAAAAAAAAAAAAECCwR0AAAAAAAAAAAAAgASDOwAAAAAAAAAAAAAACQZ3AAAAAAAAAAAAAAASDO4AAAAAAAAAAAAAACQY3AEAAAAAAAAAAAAASDC4AwAAAAAAAAAAAACQYHAHAAAAAAAAAAAAACDB4A4AAAAAAAAAAAAAQILBHQAAAAAAAAAAAACABIM7AAAAAAAAAAAAAAAJBncAAAAAAAAAAAAAABIM7gAAAAAAAAAAAAAAJBjcAQAAAAAAAAAAAABIMLgDAAAAAAAAAAAAAJBgcAcAAAAAAAAAAAAAIMHgDgAAAAAAAAAAAABAgsEdAAAAAAAAAAAAAIAEgzsAAAAAAAAAAAAAAAkGdwAAAAAAAAAAAAAAEgzuAAAAAAAAAAAAAAAkGNwBAAAAAAAAAAAAAEgwuAMAAAAAAAAAAAAAkGBwBwAAAAAAAAAAAAAgweAOAAAAAAAAAAAAAECCwR0AAAAAAAAAAAAAgASDOwAAAAAAAAAAAAAACQZ3AAAAAAAAAAAAAAASDO4AAAAAAAAAAAAAACQY3AEAAAAAAAAAAAAASDC4AwAAAAAAAAAAAACQYHAHAAAAAAAAAAAAACDB4A4AAAAAAAAAAAAAQILBHQAAAAAAAAAAAACABIM7AAAAAAAAAAAAAAAJBncAAAAAAAAAAAAAABIM7gAAAAAAAAAAAAAAJBjcAQAAAAAAAAAAAABIMLgDAAAAAAAAAAAAAJBgcAcAAAAAAAAAAAAAIMHgDgAAAAAAAAAAAABAgsEdAAAAAAAAAAAAAIAEgzsAAAAAAAAAAAAAAAkGdwAAAAAAAAAAAAAAEgzuAAAAAAAAAAAAAAAkGNwBAAAAAAAAAAAAAEgwuAMAAAAAAAAAAAAAkGBwBwAAAAAAAAAAAAAgweAOAAAAAAAAAAAAAECCwR0AAAAAAAAAAAAAgASDOwAAAAAAAAAAAAAACQZ3AAAAAAAAAAAAAAASDO4AAAAAAAAAAAAAACQY3AEAAAAAAAAAAAAASDC4AwAAAAAAAAAAAACQYHAHAAAAAAAAAAAAACDB4A4AAAAAAAAAAAAAQILBHQAAAAAAAAAAAACABIM7AAAAAAAAAAAAAAAJBncAAAAAAAAAAAAAABIM7gAAAAAAAAAAAAAAJBjcAQAAAAAAAAAAAABIMLgDAAAAAAAAAAAAAJBgcAcAAAAAAAAAAAAAIMHgDgAAAAAAAAAAAABAgsEdAAAAAAAAAAAAAIAEgzsAAAAAAAAAAAAAAAkGdwAAAAAAAAAAAAAAEgzuAAAAAAAAAAAAAAAkGNwBAAAAAAAAAAAAAEgwuAMAAAAAAAAAAAAAkGBwBwAAAAAAAAAAAAAgweAOAAAAAAAAAAAAAECCwR0AAAAAAAAAAAAAgASDOwAAAAAAAAAAAAAACQZ3AAAAAAAAAAAAAAASDO4AAAAAAAAAAAAAACQY3AEAAAAAAAAAAAAASDC4AwAAAAAAAAAAAACQYHAHAAAAAAAAAAAAACDB4A4AAAAAAAAAAAAAQILBHQAAAAAAAAAAAACABIM7AAAAAAAAAAAAAAAJBncAAAAAAAAAAAAAABIM7gAAAAAAAAAAAAAAJBjcAQAAAAAAAAAAAABIMLgDAAAAAAAAAAAAAJBgcAcAAAAAAAAAAAAAIMHgDgAAAAAAAAAAAABAgsEdAAAAAAAAAAAAAIAEgzsAAAAAAAAAAAAAAAkGdwAAAAAAAAAAAAAAEgzuAAAAAAAAAAAAAAAkGNwBAAAAAAAAAAAAAEgwuAMAAAAAAAAAAAAAkGBwBwAAAAAAAAAAAAAgweAOAAAAAAAAAAAAAECCwR0AAAAAAAAAAAAAgASDOwAAAAAAAAAAAAAACQZ3AAAAAAAAAAAAAAASDO4AAAAAAAAAAAAAACQY3AEAAAAAAAAAAAAASDC4AwAAAAAAAAAAAACQYHAHAAAAAAAAAAAAACDB4A4AAAAAAAAAAAAAQILBHQAAAAAAAAAAAACABIM7AAAAAAAAAAAAAAAJBncAAAAAAAAAAAAAABIM7gAAAAAAAAAAAAAAJBjcAQAAAAAAAAAAAABIMLgDAAAAAAAAAAAAAJBgcAcAAAAAAAAAAAAAIMHgDgAAAAAAAAAAAABAgsEdAAAAAAAAAAAAAIAEgzsAAAAAAAAAAAAAAAkGdwAAAAAAAAAAAAAAEgzuAAAAAAAAAAAAAAAkGNwBAAAAAAAAAAAAAEgwuAMAAAAAAAAAAAAAkGBwBwAAAAAAAAAAAAAgweAOAAAAAAAAAAAAAECCwR0AAAAAAAAAAAAAgASDOwAAAAAAAAAAAAAACQZ3AAAAAAAAAAAAAAASDO4AAAAAAAAAAAAAACQY3AEAAAAAAAAAAAAASDC4AwAAAACw7N0/UhxZtsDh04rnFzsA91rIvB61A7EDsYPhmdcaxkqXWcGgFQxaQYOXngorzQc7gBXoRc5ceqoZdYt/Bbcyvy8ioxQdimjFORhUxK9OAQAAAAAANEHgDgAAAAAAAAAAAABAEwTuAAAAAAAAAAAAAAA0QeAOAAAAAAAAAAAAAEATBO4AAAAAAAAAAAAAADRB4A4AAAAAAAAAAAAAQBME7gAAAAAAAAAAAAAANEHgDgAAAAAAAAAAAABAEwTuAAAAAAAAAAAAAAA0QeAOAAAAAAAAAAAAAEATBO4AAAAAAAAAAAAAADRB4A4AAAAAAAAAAAAAQBME7gAAAAAAAAAAAAAANEHgDgAAAAAAAAAAAABAEwTuAAAAAAAAAAAAAAA0QeAOAAAAAAAAAAAAAEATBO4AAAAAAAAAAAAAADRB4A4AAAAAAAAAAAAAQBME7gAAAAAAAAAAAAAANEHgDgAAAAAAAAAAAABAEwTuAAAAAAAAAAAAAAA0QeAOAAAAAAAAAAAAAEATBO4AAAAAAAAAAAAAADRB4A4AAAAAAAAAAAAAQBME7gAAAAAAAAAAAAAANEHgDgAAAAAAAAAAAABAEwTuAAAAAAAAAAAAAAA0QeAOAAAAAAAAAAAAAEATBO4AAAAAAAAAAAAAADRB4A4AAAAAAAAAAAAAQBME7gAAAAAAAAAAAAAANEHgDgAAAAAAAAAAAABAEwTuAAAAAAAAAAAAAAA0QeAOAAAAAAAAAAAAAEATBO4AAAAAAAAAAAAAADRB4A4AAAAAAAAAAAAAQBME7gAAAAAAAAAAAAAANEHgDgAAAAAAAAAAAABAEwTuAAAAAAAAAAAAAAA0QeAOAAAAAAAAAAAAAEATBO4AAAAAAAAAAAAAADRB4A4AAAAAAAAAAAAAQBME7gAAAAAAAAAAAAAANEHgDgAAAAAAAAAAAABAEwTuAAAAAAAAAAAAAAA0QeAOAAAAAAAAAAAAAEATBO4AAAAAAAAAAAAAADRB4A4AAAAAAAAAAAAAQBME7gAAAAAAAAAAAAAANEHgDgAAAAAAAAAAAABAEwTuAAAAAAAAAAAAAAA0QeAOAAAAAAAAAAAAAEATBO4AAAAAAAAAAAAAADRB4A4AAAAAAAAAAAAAQBME7gAAAAAAAAAAAAAANEHgDgAAAAAAAAAAAABAEwTuAAAAAAAAAAAAAAA0QeAOAAAAAAAAAAAAAEATBO4AAAAAAAAAAAAAADRB4A4AAAAAAAAAAAAAQBME7gAAAAAAAAAAAAAANEHgDgAAAAAAAAAAAABAEwTuAAAAAAAAAAAAAAA0QeAOAAAAAAAAAAAAAEATBO4AAAAAAAAAAAAAADRB4A4AAAAAAAAAAAAAQBME7gAAAAAAAAAAAAAANEHgDgAAAAAAAAAAAABAEwTuAAAAAAAAAAAAAAA0QeAOAAAAAAAAAAAAAEATBO4AAAAAAAAAAAAAADRB4A4AAAAAAAAAAAAAQBME7gAAAAAAAAAAAAAANEHgDgAAAAAAAAAAAABAEwTuAAAAAAAAAAAAAAA0QeAOAAAAAAAAAAAAAEATBO4AAAAAAAAAAAAAADRB4A4AAAAAAAAAAAAAQBME7gAAAAAAAAAAAAAANEHgDgAAAAAAAAAAAABAEwTuAAAAAAAAAAAAAAA0QeAOAAAAAAAAAAAAAEATBO4AAAAAAAAAAAAAADRB4A4AAAAAAAAAAAAAQBME7gAAAAAAAAAAAAAANEHgDgAAAAAAAAAAAABAEwTuAAAAAAAAAAAAAAA0QeAOAAAAAAAAAAAAAEATBO4AAAAAAAAAAAAAADRB4A4AAAAAAAAAAAAAQBME7gAAAAAAAAAAAAAANEHgDgAAAAAAAAAAAABAEwTuAAAAAAAAAAAAAAA0QeAOAAAAAAAAAAAAAEATBO4AAAAAAAAAAAAAADRB4A4AAAAAAAAAAAAAQBME7gAAAAAAAAAAAAAANEHgDgAAAAAAAAAAAABAEwTuAAAAAAAAAAAAAAA0QeAOAAAAAAAAAAAAAEATBO4AAAAAAAAAAAAAADRB4A4AAAAAAAAAAAAAQBME7gAAAAAAAAAAAAAANEHgDgAAAAAAAAAAAABAEwTuAAAAAAAAAAAAAAA0QeAOAAAAAAAAAAAAAEATBO4AAAAAAAAAAAAAADRB4A4AAAAAAAAAAAAAQBME7gAAAAAAAAAAAAAANEHgDgAAAAAAAAAAAABAEwTuAAAAAAAAAAAAAAA0QeAOAAAAAAAAAAAAAEATBO4AAAAAAAAAAAAAADRB4A4AAAAAAAAAAAAAQBME7gAAAAAAAAAAAAAANEHgDgAAAAAAAAAAAABAEwTuAAAAAAAAAAAAAAA0QeAOAAAAAAAAAAAAAEATBO4AAAAAAAAAAAAAADRB4A4AAAAAAAAAAAAAQBME7gAAAAAAAAAAAAAANEHgDgAAAAAAAAAAAABAEwTuAAAAAAAAAAAAAAA0QeAOAAAAAAAAAAAAAEATBO4AAAAAAAAAAAAAADRB4A4AAAAAAAAAAAAAQBME7gAAAAAAAAAAAAAANEHgDgAAAAAAAAAAAABAEwTuAAAAAAAAAAAAAAA0QeAOAAAAAAAAAAAAAEATBO4AAAAAAAAAAAAAADRB4A4AAAAAAAAAAAAAQBME7gAAAAAAAAAAAAAANEHgDgAAAAAAAAAAAABAEwTuAAAAAAAAAAAAAAA0QeAOAAAAAAAAAAAAAEATBO4AAAAAAAAAAAAAADRB4A4AAAAAAAAAAAAAQBME7gAAAAAAAAAAAAAANEHgDgAAAAAAAAAAAABAEwTuAAAAAAAAAAAAAAA04X+sAQAAAAAA3lfKZS8i9h75j1hu6B+7iojbR/y926HvVhv6NwAAAAAAMHO/fP/+fe4zAAAAAACAR0u5PAzMP0bEzoP/9qMIfQzYdyc+6bsayj/0o3j+4uHfGfruMYE9AAAAAAATJnAHAAAAAGCWUi7rYfr6BfWdGq3fG/+88FPy5i7X/ofX9Ykayv8W0Q999zCUBwAAAABgiwncAQAAAACYjLVofT1SX4/XxerTdh/Fr0fwv12PF8MDAAAAALRP4A4AAAAAQPNSLuvB+rK+rsfs+7bIE9zUi/DrIfx9/L4a+u7WMAEAAAAA3ofAHQAAAACAd7d2ef3h63h5fdeGeAcPI/jfXoe+W1kIAAAAAMBmCNwBAAAAANi4lMtejdXvn/WQfWEDbKG7GrxfP3hcgAcAAAAAeAGBOwAAAAAAr2ItYr+P15f1dd+EmaGrevX9Yu36u/gdAAAAAOAnBO4AAAAAADxayuX+6vp9zC5ih6e7XI/exwvwQ9+tzBEAAAAAQOAOAAAAAMAPPLjGfv86Pgvzgo25GWP3evX9uobvF8YNAAAAAMyJwB0AAAAAYMbWLrKvh+wHfiagKQ/D95WL7wAAAADAVAncAQAAAABmIuWyrBH7+CxdZIetd3UfvNf4fQzfb60VAAAAANhmAncAAAAAgIlZu8q+XLvKvm/PMAt368H7GMC79g4AAAAAbBOBOwAAAADAFku53Afs68+unQIPXNbgfVUvvYveAQAAAIAmCdwBAAAAALZEvcy+XLvOPr4u7A94pvXo/WLou2uDBAAAAADem8AdAAAAAKBBNWZfD9ldZgc27e4+dl+L3m9NHQAAAAB4SwJ3AAAAAIAGpFwexuz79gI04OZB8L6yFAAAAABgkwTuAAAAAABvrF5nX65daD+wA2CLXLryDgAAAABsisAdAAAAAGDDUi57NWRfus4OTNDVfexeg/drSwYAAAAAnkvgDgAAAADwylIuH9eC9vFZmDEwIzcPLryvLB8AAAAAeCyBOwAAAADAC6Vclg8utAvaAf7j7v66u+AdAAAAAPgZgTsAAAAAwBM9CNoPzA/gSdaD9/Oh766NDwAAAAC4J3AHAAAAAPiJlMt4lf1Q0A6wETcPLrwL3gEAAABgxgTuAAAAAAAP1KB9/Ur7wowA3swYvJ+vBe+3Rg8AAAAA8yFwBwAAAABmL+WytxazHwraAZpyVYP386HvVlYDAAAAANMmcAcAAAAAZinlcrgWte/7KQDYCnf1svt5ve5+bW0AAAAAMC0CdwAAAABgFlIuH9cutB/YOsAkXN0H70PfXVgpAAAAAGw/gTsAAAAAMEkpl521oH183bVpgElz3R0AAAAAJkDgDgAAAABMhivtAKy5qrH7eN19ZTAAAAAAsB0E7gAAAADAVku5HK5F7a60A/AjN/fX3Ye+OzchAAAAAGiXwB0AAAAA2Copl50as9+H7QsbBOCJvq5dd781PAAAAABoh8AdAAAAAGheymWvBu1HEbFvYwC8onGioeoAACAASURBVMu12P3aYAEAAADgfQncAQAAAIAmpVw+1qB9DNt3bQmAN3AVEWcRcTH03crAAQAAAODtCdwBAAAAgGakXA5r0L4UtQPwzm7qZfczsTsAAAAAvB2BOwAAAADwrtai9vFZ2AYADRK7AwAAAMAbEbgDAAAAAG8q5bKzFrQvRe0AbBmxOwAAAABskMAdAAAAANi4B1H7JxMHYCLE7gAAAADwygTuAAAAAMBGiNoBmJkxdj+rsfu15QMAAADA8wjcAQAAAIBXlXI5XAvbF6YLwAxd1dj9XOwOAAAAAE8jcAcAAAAAXkzUDgB/6HItdr81JgAAAAD4cwJ3AAAAAOBZUi4fI+JY1A4Aj/Z1jN2Hvjs3MgAAAAD4MYE7AAAAAPBoKZe9tah91+QA4FnuxovuEXE69N3KCAEAAADgPwTuAAAAAMCfqlH7GLQfRcS+aQHAq7oZQ/cxeB/67tpoAQAAAJg7gTsAAAAA8EMpl6Matn8yIQB4E19r6H5m3AAAAADMlcAdAAAAAPhNymVZL7WPYfvCZADgXdyNoft42X3ou5UVAAAAADAnAncAAAAAmLmUy16N2sdnd+7zAIDG3Iyhe0ScDX13azkAAAAATJ3AHQAAAABmKuVyH7Uf+BkAgK3wZbzsPvTduXUBAAAAMFUCdwAAAACYkZTLx4g4jojDiFjYPQBspfGq+1m96n5thQAAAABMicAdAAAAACYu5bJTL7WPz759A8CkfK2hu6vuAAAAAEyCwB0AAAAAJirlsqxR+2c7BoDJc9UdAAAAgEkQuAMAAADAhKxdaz+OiF27BYBZGq+6nw59d2H9AAAAAGwbgTsAAAAATIBr7QDAD4xX3U/rVfdbAwIAAABgGwjcAQAAAGBLudYOADzSXUSc16vuK0MDAAAAoGUCdwAAAADYMq61AwAvcFkvup8ZIgAAAAAtErgDAAAAwBao19oP67X2fTsDAF7oZgzd61X3W8MEAAAAoBUCdwAAAABoWMplr0bt48X2hV0BABvwpYbuK8MFAAAA4L0J3AEAAACgQSmX+2vtB/YDALyRy/Gq+9B3ZwYOAAAAwHsRuAMAAABAI1IuO/VS+xi279oLAPBObsaL7jV2v7UEAAAAAN6SwB0AAAAA3lnKZS8iTiJivNq+sA8AoBF3Y+Q+xu5D311bCgAAAABvQeAOAAAAAO8k5bKsYfuBHQAAjftSL7pfWBQAAAAAmyRwBwAAAIA3lHLZqZfax7B91+wBgC1zWS+6n1scAAAAAJsgcAcAAACAN5By2YuIo4g4joiFmQMAW+5m/MDe0HdnFgkAAADAaxK4AwAAAMAG1bB9vNb+2ZwBgAm6Gy+616vutxYMAAAAwEsJ3AEAAABgA1Iuyxq2H5gvADAD96H72dB31xYOAAAAwHMJ3AEAAADgFaVcjmrYvmuuAMBMfRl/HxK6AwAAAPAcAncAAAAAeKGUy05EjGH7sbAdAOA3Y+h+OvTdykgAAAAAeCyBOwAAAAA8Uw3bj+uzMEcAgB+6rBfdL4wHAAAAgJ8RuAMAAADAE6Vc9sZIKyI+mx0AwKMJ3QEAAAD4KYE7AAAAADySsB0A4FUI3QEAAAD4QwJ3AAAAAPiJlMsyIo4j4pNZAQC8GqE7AAAAAP9F4A4AAAAAf6CG7ePF9gMzAgDYGKE7AAAAAL8RuAMAAADAA8J2AIB3IXQHAAAAQOAOAAAAAPdSLocRcSxsBwB4V0J3AAAAgBkTuAMAAAAweymXo3qxfXfuswAAaIjQHQAAAGCGBO4AAAAAzJawHQBgKwjdAQAAAGZE4A4AAADA7AjbAQC2ktAdAAAAYAYE7gAAAADMhrAdAGASxtD9eOi7lXUCAAAATI/AHQAAAIDJS7kcRsSpsB0AYFK+1Ivu19YKAAAAMB0CdwAAAAAmK+WyrBfbD2wZAGCyhO4AAAAAEyJwBwAAAGByhO0AALNzV7+x53Tou1vrBwAAANheAncAAAAAJkPYDgAwe0J3AAAAgC0ncAcAAABg66Vc9iLiTNgOAEB1M37wcei7MwMBAAAA2C4CdwAAAAC2Vg3bx4vtn20RAIAfGEP3o6HvLgwHAAAAYDsI3AEAAADYOimXnYg4FbYDAPBIlxFxPPTdysAAAAAA2iZwBwAAAGBr1LD9uD4LmwMA4Im+jN8ANPTdtcEBAAAAtEngDgAAAMBWSLmMUfuJsB0AgBe6q98GdDr03a1hAgAAALRF4A4AAABA01IuRzVs37UpAABe0Ri6Hw99d2aoAAAAAO0QuAMAAADQpJTLsl7W3LchAAA26KqG7heGDAAAAPD+BO4AAAAANCXlshcR4xXNA5sBAOANXUbE0dB314YOAAAA8H4E7gAAAAA0IeWyUy+2f7YRAADe0d8j4mTou1tLAAAAAHh7AncAAAAA3lUN24/rs7ANAAAacDf+fjr03ZllAAAAALwtgTsAAAAA7yblcjRex4yIXVsAAKBBVzV0v7AcAAAAgLchcAcAAADgzaVclhFxGhH7pg8AwBb4Mn4wc+i7a8sCAAAA2CyBOwAAAABvJuWyV8P2T6YOAMCWuRt/lx367sTiAAAAADZH4A4AAADAxqVcdiLiOCL+atoAAGy5m4g4GvruwiIBAAAAXp/AHQAAAICNSrkc1avtC5MGAGBCvo4f4hz67tpSAQAAAF6PwB0AAACAjUi5LCPiJCIOTBgAgAn72/iBzqHvbi0ZAAAA4OUE7gAAAAC8qpTLTr3Y/tlkAQCYiZuIOBr67sLCAQAAAF5G4A4AAADAq0m5jBfbjyNiYaoAAMzQ1/H34aHvri0fAAAA4HkE7gAAAAC8WMplGRFnEbFrmgAAzNzd+I1GQ9+dzH0QAAAAAM8hcAcAAADg2VIue2O8ExGfTBEAAH7nJiKOhr67MBYAAACAxxO4AwAAAPAsKZfxIuVxRCxMEAAA/tCX8ffmoe9ujQgAAADg5wTuAAAAADxJymUZEWcRsWtyAADwKHcRcTL03alxAQAAAPw5gTsAAAAAj5Jy2YuIMcj5ZGIAAPAsl/Wa+8r4AAAAAH5M4A4AAADAT6VcTsYQJyIWpgUAAC/2t/HDo0Pf3RolAAAAwO8J3AEAAAD4QymXZb3avm9KAADwqm4i4mjouwtjBQAAAPgPgTsAAAAA/yXlslPD9s+mAwAAG/Vl/LYk19wBAAAA/k3gDgAAAMDvpFyOaty+MBkAAHgTd/Wa+7lxAwAAAHMncAcAAADgX1IuexFxFhEHJgIAAO/isobu18YPAAAAzNUHmwcAAAAg5XISEf8nbgcAgHc1/j6+SrkcWwMAAAAwVy64AwAAAMxYymUZEacRse/nAAAAmjJecz8e+m5lLQAAAMCcCNwBAAAAZijlshMR49X2v9g/AAA07W9D351YEQAAADAXAncAAACAmUm5HNar7bt2DwAAW+EqIo5ccwcAAADmQOAOAAAAMBP1avtZRHyycwAA2EquuQMAAACTJ3AHAAAAmIGUy1G92r6wbwAA2GquuQMAAACTJnAHAAAAmLCUy1692n5gzwAAMCmuuQMAAACTJHAHAAAAmKiUy3FEnLjaDgAAk+WaOwAAADA5AncAAACAiXG1HQAAZsc1dwAAAGAyBO4AAAAAE+JqOwAAzJZr7gAAAMAkCNwBAAAAJsDVdgAAoHLNHQAAANhqAncAAACALedqOwAA8IBr7gAAAMDWErgDAAAAbClX2wEAgJ/436HvTg0JAAAA2CYCdwAAAIAt5Go7AADwSJf1mvu1gQEAAADbQOAOAAAAsEVcbQcAAJ7hbvyArGvuAAAAwDYQuAMAAABsiZTLUUScutoOAAA809d6zf3WAAEAAIBWCdwBAAAAGpdy2alX2z/ZFQAA8EJ3NXI/N0gAAACgRQJ3AAAAgIalXA5r3O5qOwAA8Jr+HhEnrrkDAAAArRG4AwAAADSoXm0/iYi/2A8AALAhNxFxOPTdyoABAACAVnywCQAAAIC2pFw+RsRK3A4AAGzYbkR8S7mcGDQAAADQChfcAQAAABpSw5K/2gkAAPDGLiPiaOi7a4MHAAAA3pPAHQAAAKABKZe9iDiPiH37AAAA3sldjdzPLQAAAAB4LwJ3AAAAgHeWcjmKiNOIWNgFAADQgC8RcTz03a1lAAAAAG9N4A4AAADwTlIuOxFxFhGf7AAAAGjMVb3mvrIYAAAA4C19MG0AAACAt5dyWUbEStwOAAA0aj8ivqVcji0IAAAAeEsuuAMAAAC8sZTLSUT81dwBAIAt8bVec7+1MAAAAGDTBO4AAAAAbyTlshcR5/USIgAAwDa5i4jDoe8ubA0AAADYpA+mCwAAALB5KZfDiFiJ2wEAgC21iIhf6zdSAQAAAGyMC+4AAAAAG5Ry2YmI04j4bM4AAMBEXNZr7rcWCgAAALw2F9wBAAAANiTl8jEiLsTtAADAxBxExHX9pioAAACAVyVwBwAAANiAlMtRjdv3zRcAAJigRUT8M+VyarkAAADAa/rl+/fvBgoAAADwSlIuOxFxFhGfzBQAAJiJq4g4HPru2sIBAACAlxK4AwAAALySlMvHiDiPiF0zBQAAZuauRu4XFg8AAAC8xAfTAwAAAHi5lMtxRHwTtwMAADO1iIhfUy4nfgAAAACAl3DBHQAAAOAFUi47EXEWEZ/MEQAA4F8u6zX3W+MAAAAAnkrgDgAAAPBMKZePEXHuajsAAMB/uauR+4XRAAAAAE/xwbQAAAAAni7lchQRF+J2AACAH1pExK8pl2PjAQAAAJ7CBXcAAACAJ0i57ETEaUR8NjcAAIBH+RoRR0Pf3RoXAAAA8DMCdwAAAIBHSrl8jIiziNg3MwAAgCe5iYjDoe9WxgYAAAD8mQ+mAwAAAPBzKZfDiLgQtwMAADzL7vieKuVyZHwAAADAnxG4AwAAAPxEyuU0Iv4ZEQuzAgAAeLbxPdU/6nssAAAAgB/65fv37yYDAAAA8AMpl52IOI+IA/MBAAB4VVcRsRz67tZYAQAAgHUCdwAAAIAfSLl8HL8+39V2AACAjbmrkfvKiAEAAIB7H0wCAAAA4PdSLkcR8U3cDgAAsFHje65v9T0YAAAAwL+44A4AAABQpVx2IuI0Ij6bCQAAwJv6EhHHQ9/dGjsAAADMm8AdAAAA4N9x+15EnEfEvnkAAAC8i6uIWIrcAQAAYN4+zH0AAAAAACmXZUSsxO0AAADvanxPdp1y+WgNAAAAMF8CdwAAAGDWUi7HEfFrRCzmPgsAAIAGjO/NvqVcjiwDAAAA5umX79+/Wz0AAAAwOymXnYg4jYjPtg8AANCkL0PfCd0BAABgZgTuAAAAwOzUuP2ifv09AAAA7bqKiOXQd7d2BAAAAPPwwZ4BAACAOUm5fIyIa3E7AADAVhjfu63qezkAAABgBgTuAAAAwGykXMavtv8WEQtbBwAA2Bq747dw1fd0AAAAwMQJ3AEAAIBZSLmcRsQ/bBsAAGArjR9U/kfK5cT6AAAAYNp++f79uxUDAAAAk5Vy2YmI84g4sGUAAIBJ+BIRx0Pf3VonAAAATI/AHQAAAJislMvHiDiLiH1bBgAAmJSriFiK3AEAAGB6BO4AAADAJKVclvVy+8KGAQD4f/buHSuO6/0a8AsTgBmIX3giUHYytUcgPALQCIzDEwlHFRqPQM0IjEdglFVmiCr8oxnACPpbZZf9yTISt77U5XnWci7tF+QFvWsXMEp3Xcn9ynkBAABgPLbdEgAAABiblMtxRPyu3A4AADBq7c98l93PgAAAAMBIKLgDAAAAo5JymUfEB1cFAACYhLbk/iHlcurcAAAAMA5bi8XCKQEAAIDBS7nsRsRFRLxxTQAAgEk6b+rKmjsAAAAMnII7AAAAMHgpl72u3L7vmgAAAJN2HRGzpq5upx4EAAAADNW2ywEAAABDlnI5iIgr5XYAAAC6nw0vu58VAQAAgAFScAcAAAAGK+XSvnr+j4jYcUUAAAA6Su4AAAAwYAruAAAAwCClXE4j4oPrAQAAcI/2Qeg/ugejAQAAgAFRcAcAAAAGJ+Uyj4j3LgcAAMADPnQPSAMAAAADsbVYLNwKAAAAGISUy277mvnudfMAAADwWOdNXVlzBwAAgAFQcAcAAAAGIeWyFxEXyu0AAAA808eIOGzq6laAAAAA0F8K7gAAAEDvpVwOuuX2HdcCAADgBa4jYqbkDgAAAP217TYAAABAn6VcDpXbAQAAWJL2rWA33YPUAAAAQA8puAMAAAC9lXI5johfldsBAABYovZnzEsldwAAAOgnBXcAAACgl1IuZxHxwXUAAABYgbbk/kf3YDUAAADQI1uLxcI9AAAAgF5Jucwj4shVAAAAWIN3TV3NBQ0AAAD9oOAOAAAA9EbKZTciLiLijasAAACwRudNXVlzBwAAgB5QcAcAAAB6oSu3X0bEvosAAACwAUruAAAA0AMK7gAAAMDGpVwOImKu3A4AAMCGfYyIw6aubh0CAAAANkPBHQAAANiortzeLrfvuAQAAAA9cB0RMyV3AAAA2IxtuQMAAACbknKZKbcDAADQM+3bxS5TLnsOAwAAAOun4A4AAABsRMrlOCJ+V24HAACgh9qS+1X31jEAAABgjRTcAQAAgLXryu0fJA8AAECP7XRL7kruAAAAsEYK7gAAAMBapVxOldsBAAAYiL9L7jMHAwAAgPXYWiwWogYAAADWIuUyj4gjaQMAADBA75q6mjscAAAArJYFdwAAAGAtlNsBAAAYuA8pl2NHBAAAgNWy4A4AAACsVMplNyLacvtbSQMAADACltwBAABghRTcAQAAgJXpyu2XEbEvZQAAAEbkvKkra+4AAACwAttCBQAAAFZBuR0AAIARO0q5WHEHAACAFVBwBwAAAJZOuR0AAIAJUHIHAACAFVBwBwAAAJYq5XKg3A4AAMBEKLkDAADAkm0tFguZAgAAAEvxWbl9R6IAAABMyG8RcdzU1a2jAwAAwMsouAMAAABLodwOAADAxF1HxEzJHQAAAF5mW34AAADASym3AwAAQOy3PxunXHZFAQAAAM+n4A4AAAC8iHI7AAAA/EPJHQAAAF5IwR0AAAB4NuV2AAAA+A8ldwAAAHgBBXcAAADgWVIuxxHxh3I7AAAA/IeSOwAAADyTgjsAAADwZF25/YPkAAAA4KuU3AEAAOAZFNwBAACAJ1FuBwAAgEdTcgcAAIAnUnAHAAAAHk25HQAAAJ5MyR0AAACeQMEdAAAAeBTldgAAAHi2tuR+k3I5ECEAAAB8m4I7AAAA8CDldgAAAHixnW7JXckdAAAAvkHBHQAAAPgm5XYAAABYGiV3AAAAeICCOwAAAPBVyu0AAACwdEruAAAA8A0K7gAAAMC9lNsBAABgZZTcAQAA4Cu2FouFbAAAAIB/6T5g/0MqAAAAsFJ3ETFr6upKzAAAAPAXC+4AAADAfc6kAgAAACvXLrnPUy67ogYAAIC/KLgDAAAA93kjFQAAAFiL/Yi4VHIHAACAvyi4AwAAAPf5JBUAAABYGyV3AAAA6Ci4AwAAAPc5iIhzyQAAAMDaKLkDAAAwea2txWIhCAAAAOBe3YfqJ91/O1ICAACAlbuOiFlTV7eiBgAAYIoU3AEAAIBHSbkcR8RpRLySGAAAAKyUkjsAAACTpeAOAAAAPEnKZdYV3d9IDgAAAFZGyR0AAIBJUnAHAAAAnqUrurer7kcSBAAAgJVQcgcAAGByFNwBAACAF0m57HWL7oruAAAAsHzXTV0dyBUAAICpUHAHAAAAluKzovthROxIFQAAAJbmvKmrY3ECAAAwBQruAAAAwFKlXHYj4qT7T9EdAAAAlkPJHQAAgElQcAcAAABWQtEdAAAAlk7JHQAAgNFTcAcAAABWStEdAAAAlkrJHQAAgFFTcAcAAADWQtEdAAAAlubHpq7OxAkAAMAYKbgDAAAAa9UV3dsP4Y8kDwAAAM/2rqmrufgAAAAYGwV3AAAAYCNSLnsRcaroDgAAAM+m5A4AAMDoKLgDAAAAG6XoDgAAAC+i5A4AAMCoKLgDAAAAvZBymXVF9zcuAgAAAI92FxGzpq6uRAYAAMAYKLgDAAAAvdIV3dvluVcuAwAAAI+i5A4AAMBoKLgDAAAAvZRyOe4W3RXdAQAA4GFK7gAAAIyCgjsAAADQWymX3Yg46f7bcSkAAAD4puuu5H4rJgAAAIZKwR0AAADova7ofhYRR64FAAAA36TkDgAAwKApuAMAAACDkXI56Irub1wNAAAAvuq6qasD8QAAADBECu4AAADA4KRcDrui+yvXAwAAgHudN3V1LBoAAACGRsEdAAAAGKyUy2lEnETEjisCAADAfyi5AwAAMDjbTgYAAAAMVVNXbcG9feX6uSMCAADAfxylXE7EAgAAwJBYcAcAAABGIeUyi4iziNh3UQAAAPiXd01dzUUCAADAECi4AwAAAKPSLdO1y+47LgsAAAD/+K6pq0txAAAA0HcK7gAAAMDopFx2uzX3I9cFAACAP91FxKypqytxAAAA0GcK7gAAAMBopVxmEdG+gv2VKwMAAMCfJfeDpq5uRAEAAEBfKbgDAAAAo5dyOY2Ik4jYcW0AAAAm7rpbcr+dehAAAAD007a7AAAAAGPX1FVbcD+IiI+ODQAAwMTtR8Tl1EMAAACgvyy4AwAAAJOScjmMiLk1dwAAACbuvKmr46mHAAAAQP9YcAcAAAAmpamri4jYi4hfXB4AAIAJO0q5nPkCAAAAoG8suAMAAACTlXKZdWvur3wVAAAAMFHvmrqaOz4AAAB9oeAOAAAATF7K5TQi3k89BwAAACbru6auLp0fAACAPlBwBwAAAPir5H7QrbnvywMAAICJuYuIWVNXVw4PAADApim4AwAAAHwm5XISEe2i+45cAAAAmJBPEXHQ1NWtowMAALBJCu4AAAAAX0i57HVr7m9kAwAAwIRcd0vuSu4AAABszLboAQAAAP6tqaubpq5mEfFj95p2AAAAmIL9iDhzaQAAADZJwR0AAADgK5q6aj/UP4iIjzICAABgIo5SLqeODQAAwKZsLRYL4QMAAAA8IOVyEhHtB/w7sgIAAGAC3jV1NXdoAAAA1k3BHQAAAOCRUi57EdF+uP9GZgAAAEzA66aurhwaAACAdVJwBwAAAHii7lXt7+UGAADAyN1FxEFTVzcODQAAwLoouAMAAAA8Q8rloFtz35cfAAAAI3YdEbOmrm4dGQAAgHXYljIAAADA07WvaG/qqi25/yQ+AAAARmy/e8AbAAAA1kLBHQAAAOAFmro6jYjvIuKTHAEAABiptymXM8cFAABgHRTcAQAAAF6oqavLiGjX3M9lCQAAwEj9kHI5dlwAAABWbWuxWAgZAAAAYElSLofdq9t3ZAoAAMDI3EXErKmrK4cFAABgVRTcAQAAAJYs5bIbERcR8Ua2AAAAjExbct9r6urWYQEAAFiFbakCAAAALFf7IX9TV7OI+FG0AAAAjEz7xrJLRwUAAGBVFNwBAAAAVqSpq7OIeB0R1zIGAABgRPZTLnMHBQAAYBUU3AEAAABWqKmrq4ho19x/kTMAAAAjcpRyOXZQAAAAlm1rsVgIFQAAAGANUi6HETHvXucOAAAAY/C6e7gbAAAAlkLBHQAAAGCNUi57EXHRvs5d7gAAAIzAXUQcNHV145gAAAAsg4I7AAAAwAakXE4j4r3sAQAAGIHriJg1dXXrmAAAALzUtgQBAAAA1q+pq7bg/l23dAcAAABD1r6l7MwFAQAAWAYFdwAAAIANaerqMiL2IuKjGwAAADBwRymXY0cEAADgpbYWi4UQAQAAADYs5dIuur93BwAAAAbudVNXV44IAADAcym4AwAAAPREymUWERcRseMmAAAADNRd+7aypq5uHRAAAIDn2JYaAAAAQD80dXXZlgAi4qOTAAAAMFDtQ9uXjgcAAMBzWXAHAAAA6KGUy2lEvHcbAAAABuqXpq5OHA8AAICnUnAHAAAA6KmUyywiLrr1OwAAABiad01dzV0NAACAp1BwBwAAAOixlMteV3LfdycAAAAG5i4iZk1dXTkcAAAAj6XgDgAAADAAKZeziPjBrQAAABiY667kfutwAAAAPMa2lAAAAAD6r6mrk/bV7t36HQAAAAxF+0ayM9cCAADgsRTcAQAAAAaiqat5u3rXrd8BAADAUBylXE5cCwAAgMfYWiwWggIAAAAYkJTLbkS0Zfe37gYAAMCAvG7q6srBAAAA+BYFdwAAAICBSrmcRsR79wMAAGAgPkXEQVNXtw4GAADA12xLBgAAAGCYmrpqC+7fR8SdEwIAADAAr7o3kgEAAMBXKbgDAAAADFhTVxft+l1EXLsjAAAAA/A25XLiUAAAAHzN1mKxEA4AAADAwKVcdiPiLCKO3BIAAIABeN3U1ZVDAQAA8CUFdwAAAIAR6VbwfnZTAAAAeu5T+0aypq5uHQoAAIDPbUsDAAAAYDyaumpX3L+PiDtnBQAAoMdeRcTcgQAAAPiSgjsAAADAyDR1dRERs4i4dlsAAAB67G33JjIAAAD4x9ZisZAGAAAAwAilXHa7Nby37gsAAECPvW7q6sqBAAAACAV3AAAAgPFLuZxFxA9ODQAAQE99ioiDpq5uHQgAAIDtyScAAAAAMHJNXbWve38XEXduDQAAQA+96t5ABgAAABbcAQAAAKYi5XIQEZcRsePoAAAA9NCPTV2dOQwAAMC0KbgDAAAATEjKZbcrue+7OwAAAD3Tvnls1tTVlcMAAABM17bbAwAAAExHU1e3bVkgIs6dHQAAgJ5p3zg27x7OBgAAYKIsuAMAADBaKZeDiNjtyrzRrVbfWgGDv6RcTiPivTgAAADomV+aujpxFAAAgGlScAcAAGBUUi5tmf04Ig671a+v+RgRV13p/bJbtYbJSbm03y9nD3y/AAAAwLp939TVhdQBAACmR8EdAACAUUi57LWvsI6IN8/8+1z/XXZXeGdqurcdXCq53nTPKAAAIABJREFUAwAA0CN3EbHndzQAAADTo+AOAADA4K1ogbotvLcrYRdNXV35KmHsUi67Xcl937EBAADoiY9NXc0cAwAAYFoU3AEAABi0rtz+YcV/h7vPyu5ejc1odSX39k0Ib10ZAACAnvipqatTxwAAAJgOBXcAAAAGa03l9i/ddSvXfxfevSab0Um5tCX3I5cFAACgJ157wx4AAMB0KLgDAAAwSBsqt3/Jsjuj1ZPvMQAAAGhdR8TM0AAAAMA0KLgDAAAwOD0t3v5ddj+zKMZYpFwOI6Jdc99xVAAAADbsl6auThwBAABg/BTcAQAAGJSBrEp/aovu3bL7TQ/+PPBsKZeDiLhUcgcAAKAHvvcWPQAAgPFTcAcAAGAwBlJu/9Jv7QK2D18ZspTLbldy33dIAAAANqh9g95eU1e3jgAAADBeCu4AAAAMwkDL7Z9rV93n7bK7D2EZoq7k3j6o8cYBAQAA2KDfmro6dAAAAIDxUnAHAACg90ZQbv/SebfqftmvPxY8LOXSPqhxJCoAAAA26Memrs4cAAAAYJwU3AEAAOi1lEu7yPXrSK903S26z3vwZ4FHS7mcRsR7iQEAALAhdxFx0NTVjQMAAACMj4I7AAAAvZVyOYiIduV8Z+RX+tQuundl99se/HngQSN8swIAAADD8rGpq5mbAQAAjI+COwAAAL00oXL75+4+K7pbIKP3Ui5tkeBiYt+nAAAA9MdPTV2dugcAAMC4KLgDAADQOxMtt3/pPCJOFd3pO9+vAAAAbNjrpq6uHAEAAGA8FNwBAADoFWXZ/2iL7vOmri579ueCf6Rc9rol932pAAAAsGbXTV0dCB0AAGA8FNwBAADoDeX2b/rYLborutNLKZfd7vtXyR0AAIB1+6mpq1OpAwAAjIOCOwAAAL3QlWNvlNsfpOhOb3Xfx2cRceRKAAAArNnrpq6uhA4AADB8Cu4AAABsnOXnZ1F0p7dSLnMldwAAANbsuqmrA6EDAAAMn4I7AAAAG6Xc/mK/RcRJU1c3A/97MDIpl/bV8O/dFQAAgDX6qamrU4EDAAAMm4I7AAAAG6PcvlTn3aK7oju9kXI5jogPLgIAAMAavW7q6krgAAAAw7XtdgAAAGzQhXL70hxFxP+lXM66Bwdg45q6mkfEO5cAAABgjebCBgAAGDYL7gAAAGxEymXelbJZvruIOGv/a+rqVr5sWsrloHtbw45jAAAAsAY/NXV1KmgAAIBhUnAHAABg7ZTb1+ZTRJx2K9qwUUruAAAArNnrpq6uhA4AADA8224GAADAOim3r9WriPiQcrlKucwm9Pemh7pSwax78AIAAABWzQP/AAAAA2XBHQAAgLVJuRy3hWuJb8xvEXHS1NXNRP/+9EDKZbdbct93DwAAAFbsp6auToUMAAAwLAruAAAArIVye6/8FBFnTV3dTj0INkPJHQAAgDV63b1VDAAAgIHYdigAAABWLeVyqNzeK+8j4qZ76ADWrnu4YhYRH6UPAADAis0FDAAAMCwW3AEAAFiplMtBt9S8I+leagvGp01dXU49CDYj5dIWDY7EDwAAwAr91NTVqYABAACGQcEdAACAlVFuH5TziDjplrVhrZTcAQAAWIP/NXV1I2gAAID+23YjAAAAViHlsqvcPihtufgm5XI89SBYv6aujruHLAAAAGBV5pIFAAAYBgvuAAAALN1n5fZ96Q7Sx27N/WrqQbBeKZf2dfHvxQ4AAMCK/NjU1ZlwAQAA+k3BHQAAgKVLuVwpt4/CLxFx2tTV7dSDYH26twh8EDkAAAArcBcRB01d3QgXAACgv7bdBgAAgGVKucyV20fjh4i4SrkcTj0I1qepq/bfkHciBwAAYAV2IsKCOwAAQM9ZcAcAAGBpunL7kURH6beIOLbmzrpYcgcAAGCFvm/q6kLAAAAA/WTBHQAAgKXoyqjK7eP1NiJuUi4nUw+C9fhsyf1O5AAAACzZPOWyK1QAAIB+UnAHAADgxSwtT0b7Gu+fUy6XKZe9qYfB6nUl95mSOwAAAEvW/o7jVKgAAAD9tLVYLJwGAACAZ0u5HETEHxKcnLZwfNrU1dnUg2D1un9nLrsCAgAAACzLd01dXUoTAACgXxTcAQAAeDalUyLiOiKOm7q6Egar5N8bAAAAVuC6qasDwQIAAPTLtnsAAADwHCmX3Yi4UDadvP12wT/l4rXerFT3EMWse3sAAAAALMO+32kAAAD0jwV3AAAAnqwrt1925Wb4mzV3Vs6SOwAAAEvWPkh90NTVjWABAAD6wYI7AAAAz3Gm3M49rLmzcpbcAQAAWLL2Aeq5UAEAAPrDgjsAAABPknJpy+0/SI0HfOzW3K2fsRIpl72IuPCwDQAAAEvyfVNXF8IEAADYPAV3AAAAHi3lchwRHyTGI7UL26dNXZ0JjFVIuexGxKWSOwAAAEvwKSIOmrq6FSYAAMBmKbgDAADwKCmXWUT8Li2eoV1zP/QBMaug5A4AAMAS/dLU1YlAAQAANkvBHQAAgAelXA66AumOtHimds392Ku+WQUldwAAAJbodVNXVwIFAADYnG3ZAwAA8C1dcfRCuZ0Xar9+fk25zLuvKVia7u0A7VsmrqUKAADAC50JEAAAYLMU3AEAAPiqz1aRX0mJJTmKiKvurQCwNEruAAAALMmblMuxMAEAADZHwR0AAIBvaRer9iXEkrUPTPyRcjkVLMuk5A4AAMCSnHkDHQAAwOYouAMAAHCvrnx8JB1W6H3K5TLlsidklkXJHQAAgCXYiQgP5gMAAGzI1mKxkD0AAAD/0r2G+YNUWJO7iDhu6upC4CxLt7R36S0UAAAAvMDrpq6uBAgAALBeCu4AAAD8S8rloCuF7kiGNTuPiJNugRteTMkdAACAF/rY1NVMiAAAAOul4A4AAMA/ujLojXI7G3TdrblbR2MplNwBAAB4oXdNXc2FCAAAsD7bsgYAAOAzltvZtLaEfJlyOXYJlqF7I8Cse3gCAAAAnuqse3gaAACANVFwBwAA4E8pl7mFY3qifcjiQ8rlwgfILIOSOwAAAC/Q/p7iRIAAAADrs7VYLMQNAAAwcSmX9kO6n6eeA730KSIOm7q6ch5eqntg4tLDPAAAADzD/5q6uhEcAADA6llwBwAAmLiUy6FyOz32KiL+SLkcOxIvZckdAACAF5gLDwAAYD0suAMAAExYyuWgWzPe8XXAAJy3rwTvSsrwbJbcAQAAeKbvmrq6FB4AAMBqWXAHAACYqK7gOVduZ0CO2lJy92AGPJsldwAAAJ7JijsAAMAaKLgDAABM19x6MQO035Xcjx2Pl1ByBwAA4BlepVxOBQcAALBaW4vFQsQAAAAT030Q997dGbhfmro6cUReonubxaUHfgAAAHiku4jY6x6cBgAAYAUU3AEAACYm5XIYEb+6OyPRrm/PfKjMSyi5AwAA8ETnTV15uxwAAMCKKLgDAABMSMrloCtx7rg7I9Iupx02dXXpqDyXkjsAAABP9LqpqyuhAQAALN+2TAEAAKahK2/OldsZofZr+veUy4nj8lzdWwAOuwcmAAAA4CFnEgIAAFgNBXcAAIDpmFsmZuR+TrnMu4c54MmaurqJiJmSOwAAAI/wJuVyKCgAAIDlU3AHAACYgJTLaUS8dWsm4CgiLlMue47Nc3Svl1dyBwAA4DGsuAMAAKyAgjsAAMDIdUtS792ZCWnfVHCVcpk5Os+h5A4AAMAjvUq5nAgLAABgubYWi4VIAQAARqpbsW6LmjtuzET92NSVNTWeJeVy0L4RwL+hAAAAfEP7cPReU1e3QgIAAFgOC+4AAAAjlXLZjYgLxUwm7ueUy7z7foAnseQOAADAI7S/ezsVFAAAwPIouAMAAIxXu1q9774QR+0Kd/dGA3iSz0ruAAAA8DU/+L0DAADA8ii4AwAAjFDK5bgr9QJ/aR/2uEq5HMiDp+pK7u8EBwAAwDecCQcAAGA5thaLhSgBAABGpCvw/uGm8FXvmrqai4en6h4e+iA4AAAAvuK7pq4uhQMAAPAyFtwBAABGJOWyGxEXbgrf9CHlouDOk3UPRlhyBwAA4GtOJQMAAPByCu4AAADj0pYvX7kpPOgo5XLZPRQCj6bkDgAAwDe8SbkcCggAAOBlFNwBAABGIuVyEhFv3RMe7U1EtCX3A5HxFF3J/SehAQAAcI8zoQAAALzM1mKxECEAAMDApVxmEfG7O8Kz3EXEYVNXl+LjKVIubdH9SGgAAAB84V33cDQAAADPoOAOAAAwcCmX3Yi4iYgdt4QX8eEzT6bkDgAAwD3ah+n3mrq6FQ4AAMDTbcsMAABg8C6U22EpPqRcvEacJ2nq6jgizqUGAADAZ9rf1Z0IBAAA4HksuAMAAAxYyuU0It67ISzVbxFxbGWNp0i5XEXEvtAAAADoWHEHAAB4JgvuAAAAA5VymSm3w0q8jYjLlMuueHmC9t/ka4EBAADQseIOAADwTBbcAQAABqgr3t50H5QBq9Eurc2aurqSL4/R/dt8ackdAACAz/yvqasbgQAAADyeBXcAAIBhulBuh5Xb6ZbcD0XNY3SvnW+X3D8JDAAAgM6pIAAAAJ5GwR0AAGBgUi7th2Jv3A3Woi25/5pyORY3j9GV3A+7NwAAAADAUcplb/IpAAAAPIGCOwAAwICkXA4i4r2bwdp9SLmciZ3HaOrqqltyV3IHAAAgrLgDAAA8zdZisRAZAADAAKRcdiOiLU2+ci/YmPOmrqy58yjdQ0l/SAsAAICI+K6pq0tBAAAAPMyCOwAAwHDMldth49rXil91D5zAN3VL7u+kBAAAgBV3AACAx1NwBwAAGICUy0lEvHUr6IX9iLhMuew5Bw9p6mqu5A4AAEBEvEm5zAQBAADwMAV3AACAnku5HFh4gt5pS+5X3fcnfFNXcv9FSgAAAJPnd3wAAACPoOAOAADQYymX3Yhoi5E77gS9s9MtuVtf40FNXbVv4jiXFAAAwKRZcQcAAHgEBXcAAIB+O+2WooF+akvuv6dcjt2HhzR1dazkDgAAMHlW3AEAAB6g4A4AANBTKZfDiPjBfWAQPqRcTpyKR2i/Tq4FBQAAMFlW3AEAAB6g4A4AANBDKZfdiJi7DQzKzykX37d8U1NXtxExU3IHAACYNCvuAAAA36DgDgAA0E8XEbHjNjA4R0ruPKQrubdv6bgTFgAAwCS1K+7HTg8AAHC/rcViIRoAAIAeSbmctEvQbgKD1q5zz7oiM9wr5XIQEZceaAIAAJikT01d7Tk9AADAf1lwBwAA6JGu7KjcDsO33xaXUy67bsnXNHV11S25AwAAMD2vrLgDAADcT8EdAACgJ7oi7Nw9YDT+LrkfOClf09RVu+D+TkAAAACTdOrsAAAA/6XgDgAA0B+nXSEWGA8ldx7U1FX7cNNPkgIAAJgcK+4AAAD3UHAHAADogZTLLCJ+cAsYpR0ldx7S1FX7kNO5oAAAACbHijsAAMAXFNwBAAA2LOWyGxEX7gCj9nfJ/dCZ+ZqmrtrVvo8CAgAAmBQr7gAAAF9QcAcAANi8eVd+Bcat/T7/1YfWPKB9COJaSAAAAJNy4twAAAD/39ZisRAHAADAhnRrzr/KHybnXVNXc2fnPt2bPW48/AQAADAp3zV1denkAAAAFtwBAAA2JuWy1623A9PzIeVinY17NXV1GxGziLiTEAAAwGScOjUAAMBfFNwBAAA2Z26dFybt55SLh1y4V1NXVxFxLB0AAIDJeJNymTk3AACAgjsAAMBGdMvNb6QPk3ek5M7XNHV1ERHvBAQAADAZVtwBAIDJa20tFgtBAAAArFHKZS8irqy3A585b+rKWjf36h6COJIOAADAJHzX1NWlUwMAAFNmwR0AAGD95srtwBf+XHJPuewKhi91Dz/8JhgAAIBJsOIOAABMnoI7AADAGqVcTiLijcyBe7QL3ZdK7nxFW3K/Fg4AAMDovUm5zJwZAACYMgV3AACANUm5HETEz/IGvmFfyZ37NHV1GxFtweFOQAAAAKN34sQAAMCUKbgDAACsz1zWwCMouXMvJXcAAIDJeJty2XNuAABgqhTcAQAA1iDlctqVVgEeQ8mdezV1dWXJDwAAYBJOnRkAAJiqrcVi4fgAAAArlHI5iIg/ZAw8w3W72N0td8M/ugen3ksEAABg1P7X1NWNEwMAAFNjwR0AAGD15jIGnunvJfcDAfK5pq7agvu5UAAAAEbNijsAADBJCu4AAAAr1C3s7ssYeAEld77mpFv5BwAAYJwOUy67bgsAAEyNgjsAAMCKdGXU9/IFlmBHyZ0vNXV1GxGziLgTDgAAwCjtdA83AwAATIqCOwAAwOqcyRZYIiV3/kPJHQAAYPROrLgDAABTo+AOAACwAimXdlnpjWyBJVNy5z+aurqy6AcAADBa7e8Cjp0XAACYEgV3AACAJUu57EXEqVyBFVFy5z+auppHxE+SAQAAGCUPNQMAAJOi4A4AALB8866ACrAqSu78R1NX7cNVv0kGAABgdF6lXKy4AwAAk6HgDgAAsEQpl3ZN6Y1MgTVQcuc+beHhWjIAAACjY8UdAACYjK3FYuHaAAAAS5By2Y2IG+vtwJrdRcSsqasrwRN//f9oLyKu/P8IAABgdL5r6urSWQEAgLGz4A4AALA8c2VCYAMsufMvTV21D1sdSgUAAGB0Tp0UAACYAgV3AACAJUi5tEXCt7IENkTJnX/pFv1+lAoAAMCovOne2gUAADBqCu4AAAAvlHLZ7dbbATZJyZ1/aerqLCLOpQIAADAqVtwBAIDRU3AHAAB4udOuWAqwaUrufOkkIq6lAgAAMBpH3eAGAADAaCm4AwAAvEDKZRYRP8gQ6BEld/7R1NVtRBxGxJ1UAAAARuPEKQEAgDFTcAcAAHiZM/kBPaTkzj+aurrpSu4AAACMg4I7AAAwagruAAAAz5RyOY2IffkBPaXkzj+aurqMiB8lAgAAMAo7KZdjpwQAAMZKwR0AAOAZUi57EfFedkDPKbnzj6au2reO/CYRAACAUTh1RgAAYKwU3AEAAJ5nLjdgIJTc+Vy78HctEQAAgMF7lXKZOSMAADBGCu4AAABP1L3+943cgAFRcudPTV3ddiX3O4kAAAAM3okTAgAAY7S1WCwcFgAA4JFSLrsRcdOVRQGGpi01z5q6unK5aUu5HEbEr1PPAQAAYAT+19TVjUMCAABjYsEdAADgaU6V24EBs+TOn5q6uoiIX6QBAAAweFbcAQCA0bHgDgAA8Egpl1lE/C4vYAQsufOnlEv7NbAvDQAAgMFqf8bfa+rq1gkBAICxsOAOAADweGeyAkaiXXK/SLnsOujkzboyBAAAAMPU/ox/6HYAAMCYKLgDAAA8QsrlxMItMDKvIuJSyX3auoU/RQgAAIBhO3U/AABgTBTcAQAAHtCVP31IBIzRvpI7TV1dRsRPkw8CAABguF6lXGbuBwAAjIWCOwAAwMPOulf9AoyRkjttyb19kOs3SQAAAAzWidMBAABjoeAOAADwDd3y0ZGMgJFTcqd1HBGfJAEAADBIb1Mue04HAACMgYI7AADA/2Pv7pEqubK1AS91XB/uCDhtpsWRl16hERQagagRCJlpibK22dQIBCO41AgueNu7YG2zqRF8MIL6ItVZ3aX65ef8ZOZ+ngiFWh2tjqO1BIfkvPvd33ZqQEAlhNwrV3K6i4jD2ucAAAAwYVrcAQCAWRBwBwAA+Iqm7Y6HwCdALfrveWe2Xa+S03VE/Fb7HAAAACbqyOIAAIA5+OH9+/cWCQAA8Imhwfg2InbMBqjQecnJh+IVa9ruor/evvY5AAAATNCrkpPD6wAAwKRpcAcAAPiyU+F2oGK/NG3nw/C69Qcc3tU+BAAAgAlyYB0AAJg8De4AAACfaNruICL+11wANLnXrGm7ZUT8X+1zAAAAmKAfS07XFgcAAEyVBncAAIDPnZoJwJ/6JvcTo6jTEIZ4XfscAAAAJujY0gAAgCnT4A4AAPCRpu36puI/zATgL16VnM6MpE5N211GxIva5wAAADAh9xGxKDndWRoAADBFGtwBAAAGTdvtam8H+KI/hgNA1OlwCEcAAAAwDTvDsxwAAMAkCbgDAAD8x8nw4Q8AnxNyr9TQ+CcYAQAAMC3H9gUAAEzVD+/fv7c8AACgek3bLSLin7XPAeABfiw5XRtUfZq26285+bX2OQAAAEyIZ3gAAGCSNLgDAAD8y5k5ADzIZdN2S6OqT8mpb/+7qX0OAAAAE6LFHQAAmCQBdwAAoHpN2x1ExIva5wDwQDtC7lU7ioj72ocAAAAwEYdN2+1aFgAAMDUC7gAAANrbAR6rD7lf+JC8PsPV9hoAAQAApqF/fj+0KwAAYGoE3AEAgKo1bXcSEXu1zwHgCfaGJnch98qUnPqDYW9rnwMAAMBEOKQMAABMjoA7AABQrSGU6QMegKfbF3Kv1lFE3Nc+BAAAgAnYb9puaVEAAMCUCLgDAAA1Oxmu6QXg6fqQ+6n51aXkdOeaewAAgMlQ8gEAAEzKD+/fv7cxAACgOk3bLSLinzYPsDLnJacj46xL03b94YZfa58DAADAyPU3cC2Gw8oAAACjp8EdAACo1ZnNA6zUL03bnRhpXUpOfQvgTe1zAAAAGLkdt3ABAABTIuAOAABUp2m7g4h4YfMAK/d703Za3Otj5wAAAOPn2Q0AAJgMAXcAAKBGp7YOsDZ/CLnXpeR0HRG/1T4HAACAkXvRtN3CkgAAgCkQcAcAAKoyhC73bR1grU6btlsacT1KTv3hsava5wAAADByxxYEAABMgYA7AABQjabtdiPixMYB1m4nIi6F3KvTHyK7r30IAAAAI3ZoOQAAwBQIuAMAADXpG4r2bBxgI/qQ+8VwuIgKlJxuHSQDAAAYtb2m7YTcAQCA0RNwBwAAqjAELF3BC7BZe0OTu5B7JUpOpxHxtvY5AAAAjJiAOwAAMHoC7gAAQC1OhzZhADZrPyLOzLwqRxFxX/sQAAAARuoXB9EBAICxE3AHAABmr2m7Rf/BjU0DbM3Lpu2E3CtRcrobQu4AAACMkxZ3AABg1ATcAQCAGpzaMsDW9Q1xx9ZQh5LTRUS8rX0OAAAAI+X5HAAAGDUBdwAAYNaatjvom4NtGWAU/tG0nWbvevS7vq99CAAAACO0P9x6CQAAMEoC7gAAwNyd2DDAqJw2bbe0kvkrOd0NIXcAAADGR4s7AAAwWgLuAADAbA3t7S9sGGBUdiLiUsi9DiWni4h4W/scAAAARujQUgAAgLH64f3795YDAADMUtN2txGxZ7sAo3QTEQdDyzcz1rTdbkTcDocbgC97N3ydxPDn24/+V5ef/h0lp8/+u+do2m4REYtP/i/6g0i7H/31wUf/2SFSAIB5+GnVP1sCAACsgoA7AAAwS03bHUXEH7YLMGo3JSdN7hVo2q5vBvyf2udAta6Gf/APwaHriOgP99yVnK6nPJRPgvEfAvAfgvFLB1sAAEbvvOR0ZE0AAMDYCLgDAACzpL0dYDJ8mF6Jpu0utT4zU/dDaP1D8/r1EF7XhPmvr/0PwfeDIQy/EH4HABiN+5LTrnUAAABjI+AOAADMjvZ2gMn5reR0am3zNjQ9Xwu1MmEfguzXHwXZr0tOd5b6eE3bfWh5X34Uehd8BwDYvFclpzNzBwAAxkTAHQAAmJUhKHMrGAMwOT5Qr0DTdscR8Y/a58AkvPsozP4hyH5rdes3HIb5EHY/EHoHAFi7tyWnQ2MGAADGRMAdAACYlabtTiLid1sFmJy+Gfmg5HRtdfPWtN1lRLyofQ6Myodm9ssPf9bKPi4fhd4/BN59DwEAWK3/9jMwAAAwJgLuAADAbGhvB5i8PmS68KH6vA1B1X/WPge26t0QZr8cmtkdrJmgpu0OPgq8H3gGAAB4FreqAQAAoyLgDgAAzIb2doBZuBma3IXcZ8x7Nhv2caC9b2e/tYD5adruQ9C9/+Nl7fMAAHikm5LT0tAAAICxEHAHAABmQXs7wKycl5yOrHTemrbr37f3ap8Da9HfBnEh0F63jxreDyNiv/Z5AAA8wN/97AwAAIzFf9kEAAAwE8fC7QCz8Usffi45nVjprPWHGP639iGwMlcfQu0lp2tjpeT0obX/ZDgMe/hR4N1zAwDA5/qfk07NBQAAGAMN7gAAwORpbweYrZ9LThfWO19N2/XhiV9rnwNP8qGl/UOo/c4Yeaih3f1w+MNNEgAA/3JTclqaBQAAMAYC7gAAwOQ1bXfWt/3aJMDs9AHWA23M8+WQGo/0bgi0n/m+wKo0bbf8KOy+b7AAQOX+XnK6rX0IAADA9gm4AwAAk9a03SIi/mmLALPVB1qX2pnnq2m7o4j4o/Y58FVC7WzM8GzRB92PNbsDAJV6XXI6sXwAAGDbBNwBAIBJ094OUIWrktOBVc9X03aXEfGi9jnwb0LtbN3Q7H40BN6F3QGAWrwrOS1sGwAA2DYBdwAAYLK0twNU5U3J6djK58l7OkLtjFnTdgcfhd13LAsAmLkf/UwOAABsm4A7AAAwWdrbAarzquR0Zu3z1LRdfw3+77XPoTL3Q6j9ouR0UfswmIam7Y6GsLtbJwCAuXLAHAAA2DoBdwAAYJI0vQJUS5PcTDVttxsR/W73ap9FBa76pvYh2H5X+zCYpuF55EPY3fctAGBO3pWcFjYKAABsk4A7AAAwSdrbAarVNz4vhGLnqWm7w4j4n9rnMFPvhrb205LTbe3DYF6G713HWt0BgBlxuBwAANgqAXcAAGBytLcDVO+q5HRQ+xDmqmm7SyHRWXnbt7WXnC5qHwTzNzynHA+t7jtWDgBM2JuS07EFAgAA2/I3kwcAACboxNIAqvaiabvT2ocwY0e1D2AG+psW3kTE30tOh8Lt1KK/nWAIgvVB91fDzQUAAFN0aGsAAMA2aXAHAAAmRXs7AB95VXI6M5D5adquP8z2e+1zmKCbiDj1dQn/0bTdwXBA180UAMDU/FhyurZ7ogkBAAAgAElEQVQ1AABgGzS4AwAAU6O9HYAPTpu2W5rGLJ1qPp6U84j4qeS0FG6Hvyo5XZac+pD7j8PXCgDAVLhdCwAA2BoN7gAAwGRobwfgC/oQdB+qvTOceWnarg9T/FH7HEbsPiLOhsb229qHAQ81PNP0h3YPI2LH4ACAEXtXclpYEAAAsA0a3AEAgCnRGgTAp/aGkC0zMzSBX9nr6PTB9tcRsSg5HQu3w+P0XzMlp/65ZjF8Ld0bIQAwUntuTQMAALZFgzsAADAJTdvtRsStlkMAvuJ1yenEcOZlCFP8X+1zGIn+toST4eABsCLDc87x8IdnHQBgbDxrAwAAW6HBHQAAmAqBDwC+5fem7Q5MaF5KTtcRcV77HLasD7a/KjkthNth9UpOd0NoTKM7ADBGh7YCAABsgwZ3AABg9LS3A/BAfSiwD+HeGdh8+DlgazS2wxZodAcARujvJadbiwEAADZJgzsAADAFwh0APET/XnFhUvMyHFg4rX0OG6SxHbboo0b3pRssAICR0OIOAABsnAZ3AABg1LS2AvAEb0pOxwY3H8PPA9cRsVf7LNZIYzuMUNN2i+GQz0v7AQC25KbktDR8AABgkwTcAQCAUWvarg8o/sOWAHikn0tO2txnpGm7o4j4o/Y5rIFgO0xA03YH/ddqRLywLwBgC/5ecro1eAAAYFP+ZtIAAMDIaeAF4CnOhtZbZmIIYF/Z58rcR8TrktNCuB3Gr+R0WXLqQ+6vhoMpAACbdGDaAADAJgm4AwAAozU0te7ZEABPsBMRGtzn56T2AazI64jog+3mCRPTH0jpD6YMX8f39gcAbMihQQMAAJv0w/v37w0cAAAYpabtbgXcAXimNyUnt4HMSNN2/cGFl7XP4YnO+0MCJafbSb564C+Gm0pOfU8EADbkv0tOd4YNAABsggZ3AABglLS3A7AivzZtp2luXhxYeLyriPip5HQk3A7z0X89l5z697ifIuLGagGANfNsDQAAbIyAOwAAMFZHNgPAipw1bbdrmPMwBLTPa5/DA72LiFclp4OS0+UkXjHwaP3Xd8lpGRGvI+LeBAGANTkwWAAAYFME3AEAgNFp2q7/sOSFzQCwIjsRcWGYs3IixPldfdB1WXI6G/nrBFak5NR/b+yD7m/NFABYAw3uAADAxvzw/v170wYAAEalabtLAXcA1uD1EP5jBpq263f5u11+5qq/CWdougcq1bRdH0A7Gw55AQCsyk9uhwIAADZBgzsAADAqTdsthNsBWJPfm7ZbGu5snGpx/4t3EfFzyelAuB0oOfU3l/TPVm+qHwYAsEpa3AEAgI0QcAcAAMZGsy4A63TRtN2uCU9fyeluCLkT8ToilkOgFeBP/ffJktNx37Q6HIIBAHguAXcAAGAjBNwBAIDRGNrbf7ERANZoLyLODHg2TisPbV5FxI8lp5Mh8A/wmZLTZX8IRps7ALACe25GAwAANkHAHQAAGJNj2wBgA142bXdk0NM3hLprvP3lPiJ+KzkdlJyuR/B6gJHT5g4ArNCBYQIAAOsm4A4AAIxC03a7ESFsCMCmnA43hzBxJaezysKafWv7suR0OoLXAkzMR23u53YHADzRocEBAADrJuAOAACMRR9u37ENADakf8+5MOzZqKHFvW9tfzW0tt+O4PUAEzW0uffPXz8P31sAAB7jxVBWAgAAsDYC7gAAwFgc2wQAG7bftF0NwejZq6DF/W1ELIZ/ToCVKDn1B70Ww80QAACPocUdAABYKwF3AABg65q269sD92wCgC34vWm7pcHPwhwPK/TNyr+VnA77xuURvB5gZoY294OIeG23AMAjHBgWAACwTgLuAADAGBzZAgBbdOF69embYYt736i8LDmdjuC1ADNXcuoPCf0489swAIDV0eAOAACslYA7AACwVU3b9W0/L2wBgC3am2n7d43msse+tf2g5HQ7gtcCVKLkdN0frImIt3YOAHzHjtvQAACAdRJwBwAAtk17OwBj8Otw6IoJm0GL+03foKy1HdiWktNdyalvZP3NEgCA79DiDgAArI2AOwAAsDVN2y0i4hcbAGAkzpq227WMyZtqi/ubiDgYGpQBtmo4aPPjxA8NAQDrJeAOAACsjYA7AACwTcemD8CI7PUhdwuZtgm2uN9HxM8lp+O+OXkErwfgT8OBm2VEXJkIAPAF+w6JAwAA6yLgDgAAbMXw4ceR6QMwMi+bttNCN31TaXHvQ6PLktPFCF4LwGf6gzclp4PhlgkAgE95fgYAANZCwB0AANiW/sOPHdMHYITOtNBN20Ra3F/3odGS0+0IXgvAN/W3TETEq+HWCQCADw5MAgAAWAcBdwAAYFum0qwKQH36A1hn9j55Y/1Zow+H/lxy8rMQMCnD4aGDCRwgAgA2R8AdAABYCwF3AABg45q26z/42DN5AEbsZdN2rlqftosRNg3fRMSy5HQxgtcC8Gglp+v++9jw/QwAYK9pu2X1UwAAAFZOwB0AANiGY1MHYALOmrbbtahpKjndRcTpiF78ecmpD7ffjuC1ADxZ//21/37Wf18zRQBAizsAALAOAu4AAMBGNW236FtxTR2ACdgZWUCaxzsdSYv7q5LT0QheB8DKDN/XfjNRAKie288AAICVE3AHAAA2TXs7AFPyS9N22ugmamhxP9viq+/D9T+WnLb5GgDWpuTUHyR6NZLDRADAdrwwdwAAYNUE3AEAgI1p2m43IrSXAjA1Z8N7GNO0rRb+m4hYlJyu/XsDzNlwiOdAyB0A6tW0nRZ3AABgpQTcAQCATeo/6NgxcQAmZi8iTixtmkpOtxFxvuEXf15yWg4N8gCzNxzmORgO9wAA9XHzGQAAsFIC7gAAwCYdmzYAE/Vr03ZLy5usTba4/1ZycmMNUB0hdwComoA7AACwUgLuAADARjRt13/IsW/aAEzYmeVN0xC6vFrzi7+PiJ9LTpsM0wOMynBzRf/s99ZmAKAq+03b7Vo5AACwKgLuAADApmgyBWDq+g/sT2xxstYZPO/D7Qclp4uZzxDgu/qQe8npMCLOTQsAqqLFHQAAWBkBdwAAYO2G9p5fTBqAGThu2m5hkdMzhM/freGF30TEYmiJB2BQcjoScgeAqhxaNwAAsCoC7gAAwCYcmzIAM7ETEWeWOVmrbuB/OzS331U0Q4AHG0Luv5kYAFRBgzsAALAyAu4AAMAmHJkyADPyomk7zXTT1Le436/olZ+XnA6F2wG+reR0GhGvjAkAZm/PjWcAAMCqCLgDAABrNQQA90wZgJk5bdpu11KnZQijr6KB/7ehlRiAByg5nQm5A0AVtLgDAAArIeAOAACsm/AXAHPUH946sdlJOn3Gi+7b338a2ogBeAQhdwCogoA7AACwEgLuAADA2gxX0r40YQBm6tem7ZaWOy0lp9uIuHrCi76JiGXJ6bLm+QE8h5A7AMyegDsAALASAu4AAMA6aW8HYO40eU/TY9v3z/ugxhCOB+AZhNwBYNb2htITAACAZxFwBwAA1knAHYC5e9G0nfe7iRla2N8+4FXf9yHMktNRyemu9rkBrIqQOwDMmhZ3AADg2QTcAQCAtWja7rBv7DFdACpw2rTdrkVPztEQYP+aq4hYDiFMAFZMyB0AZkvAHQAAeDYBdwAAYF202QJQi52IOLbtaRka2fvgxc0nL7z/659LTgclp9va5wSwTkLuADBLAu4AAMCz/fD+/XtTBAAAVqppu0VE/NNUAajM3wWip6lpuw8BjFs7BNi8pu36A9J/GD0AzIbnYwAA4Fn+y/gAAIA10N4OQI1OI+LQ5qen5HRZ+wwAtqlvcm/aLoTcAWA2+kPEZ9YJAAA81d9MDgAAWAMBdwBq9PKjJnAA4BH6kHtEvDIzAJgFz8YAAMCzCLgDAAAr1bRd31y7Z6oAVEpDHQA80RByf2N+ADB5Au4AAMCzCLgDAACrdmiiAFRsr2k7N5kAwBOVnI4j4tz8AGDS+mfjhRUCAABPJeAOAACsTNN2uxHxi4kCULnT4T0RAHiCktORkDsATJ4WdwAA4MkE3AEAgFXSWAsAETsRcWwOAPB0Q8j9xggBYLKWVgcAADyVgDsAALBKAu4A8C/HrmMHgGc7EHIHgMnS4A4AADyZgDsAALASTdv1jTz7pgkAf+pb3E+MAgCeruR0N4Tj7o0RACZnv2m7XWsDAACeQsAdAABYlWOTBIC/+EWLOwA8j5A7AEyaFncAAOBJBNwBAIBVOTRJAPjMqZEAwPOUnK49cwLAJC2tDQAAeAoBdwAA4NmatjuKiB2TBIDPvGzaTmMdADxTyekyIl6ZIwBMiudhAADgSQTcAQCAVdCkBwBfd2I2APB8JaeziHhjlAAwGS+sCgAAeIof3r9/b3AAAMCTNW23GxH/zwQB4Jt+GppnAYBnatruor8lxRwBYBJ+LDldWxUAAPAYGtwBAIDnOjJBAPguLe4AsDr9c+iNeQLAJBxYEwAA8FgC7gAAwHMJuAPA971o2s6H+gCwAiWnu4g4jIh78wSA0fMsDAAAPJqAOwAA8GRN2y0jYt8EAeBBtLgDwIqUnG6HkDsAMG5L+wEAAB5LwB0AAHgO7e0A8HBa3AFghUpOlxHxm5kCwKjtNW23sCIAAOAxBNwBAIDn0JYHAI+jxR0AVqjkdBoR52YKAKOmxR0AAHgUAXcAAOBJmrbrw+17pgcAj6LFHQBW7zgibswVAEZLwB0AAHgUAXcAAOCptLcDwNNocQeAFSo53UXEUUTcmysAjJKD3gAAwKMIuAMAAI/WtN2ugDsAPJkWdwBYsZLT9RByBwDG54WdAAAAjyHgDgAAPEUfbt8xOQB4Mi3uALBiJaeLiHhjrgAwPk3bLa0FAAB4KAF3AADgKbS3A8DzaHEHgDUoOR1HxI3ZAsDoCLgDAAAPJuAOAAA8StN2uxHx0tQA4NmOjBAA1qI/lH1vtAAwKgLuAADAgwm4AwAAj6W9HQBW45em7RZmCQCrVXK6dZAMAEbHLWYAAMCDCbgDAACPdWxiALAyJ0YJAKtXcrqIiHOjBYDR2LcKAADgoQTcAQCABxtaZn0QAQCrc9i03a55AsBa9Ae03xktAIxD03Za3AEAgAcRcAcAAB7j0LQAYKV23I4CAOtRcrrzHAsAo7K0DgAA4CEE3AEAgMc4Mi0AWDnvrwCwJiWn64h4bb4AMAoC7gAAwIMIuAMAAA/StN0iIvZNCwBWbq9pOyF3AFiTktNJRFyZLwBsnYA7AADwIALuAADAQ7nWHQDWR8AdANarf6+9N2MA2CoFKgAAwIMIuAMAAA8leAcA6/OiaTtNdgCwJiWn24g4MV8A2K6m7Q6sAAAA+B4BdwAA4Luatlto1wGAtTs2YgBYn5LTaURcGTEAbJXD3QAAwHcJuAMAAA9xaEoAsHaHTdvtGjMArFV/O9m9EQPA1gi4AwAA3yXgDgAAPMSRKQHA2u14zwWA9So53UbEiTEDwNYIuAMAAN8l4A4AAHxT03aLiNg3JQDYCAF3AFizktNpRFyZMwBshd81AwAA3yXgDgAAfM+hCQHAxuw3bafNDgDWrz9Udm/OALB5nnsBAIDvEXAHAAC+R5MsAGzWsXkDwHqVnG4j4tSYAWArBNwBAIBvEnAHAAC+qmm7hStjAWDj3J4CABtQcjqJiBuzBoCNE3AHAAC+ScAdAAD4FgE7ANi8nabt3KACAJvh5hQA2DwBdwAA4JsE3AEAgG8RrgOA7XDIDAA2oOR0GRFvzBoANkrAHQAA+CYBdwAA4IuatltExL7pAMBWvBzeiwGA9TuJiHtzBoCN2fHMCwAAfIuAOwAA8DWaYwFgu7wXA8AGlJzuIuLYrAFgowTcAQCArxJwBwAAvubIZABgq7wXA8CGlJzOIuLKvAFgYw6MGgAA+BoBdwAA4DNN2+1GxL7JAMBW7buyHQA2Sos7AGzO0qwBAICvEXAHAAC+5NBUAGAUvCcDwIaUnK4j4ty8AWAjHOgGAAC+SsAdAAD4EmE6ABiHI3sAgI3qW9zvjRwA1s4NogAAwFcJuAMAAH/RtN1uRLw0FQAYhf2m7bTaAcCGlJzuIuLUvAFg/Zq2WxozAADwJQLuAADAp7S3A8C4eG8GgA0qOZ1ExDszB4C1c6AbAAD4IgF3AADgUwcmAgCj4r0ZADbv2MwBYO00uAMAAF8k4A4AAHxKSywAjMvLpu127QQANqfkdBERV0YOAGvlQDcAAPBFAu4AAMC/NW3Xh9t3TAQARseH/gCweSdmDgBrtTBeAADgSwTcAQCAjwnPAcA4uWEFADas5HQZEW/NHQDWZs9oAQCALxFwBwAAPiY8BwDj5BAaAGzHsbkDwPo0bed5FwAA+IyAOwAA8Kem7ZYacwBgtPaG92oAYINKTrcRcW7mALA2u0YLAAB8SsAdAAD4QFMOAIyb92oA2I4TcweAtXGYGwAA+IyAOwAA8MGRSQDAqAm4A8AWaHEHgLUScAcAAD4j4A4AAETTdv01sPsmAQCjJuAOANvTt7jfmz8ArNzCSAEAgE8JuAMAAL1DUwCA0dtp2k6zHQBswdDifmr2ALByilcAAIDPCLgDAAChERYAJsN7NgBsz6kWdwBYPYe5AQCATwm4AwAAocEdACbDh/4AsCUlp7uIODN/AFi5XSMFAAA+JuAOAACVa9qub4LdqX0OADARGtwBYLtOzR8AVs6zLgAA8BcC7gAAgPZ2AJiOvabtNNsBwJaUnG4j4tz8AWClPOcCAAB/IeAOAABoxwGAaVnaFwBs1YnxA8BKec4FAAD+QsAdAAAq1rTdIiL2/TsAAJPicBoAbJEWdwBYOQF3AADgLwTcAQCgbgJyADA9CzsDgK3T4g4Aq7NjlgAAwMcE3AEAoG4C7gAwPQLuALBlQ4v7lT0AwGo0bed31QAAwL8JuAMAQN0Oax8AAEzQC0sDgFHQ4g4Aq7NrlgAAwAcC7gAAUKmm7ZaufgWAaWrazgf/ALBlJafLiLixBwBYiaUxAgAAHwi4AwBAvbS3A8B0+eAfAMbh1B4AYCUWxggAAHwg4A4AAPU6sHsAmCwf/APACJScziLi3i4A4Nk85wIAAP8m4A4AABVq2m43Il7YPQBMlg/+AWA8tLgDwPO5qQwAAPg3AXcAAKiT9nYAmLZd+wOA0TizCgB4th0jBAAAPhBwBwCAOgm4A8C0abYDgJEoOd1GxLl9AMDzNG3nWRcAAPiTgDsAANTp0N4BAABgZbS4A8Dzua0MAAD4k4A7AABUpmm7RUTs2TsAAACsRsnpMiJujBMAnsXNowAAwJ8E3AEAoD4+JACA6XthhwAwOqdWAgAAAADPJ+AOAAD1EXAHAACA1buIiHtzBYAn87trAADgTwLuAABQn0M7BwAAgNUqOd0NIXcA4Gl2zQ0AAAgBdwAAqEvTdsuI2LF2AAAAWIszYwWAJ9s3OgAAIATcAQCgOq54BYB5uLJHABifktNlRLyzGgB4mqbttLgDAAAC7gAAUBkBdwCYhzt7BIDROrUaAHiypdEBAAAC7gAAUBcBdwCYh2t7BIDRurAaAAAAAHg6AXcAAKhE03Z9882OfQPALAjOAcBIlZxuI+Kt/QDAkyhpAQAABNwBAKAiPhgAgHl4V3LS4A4A4+YwGgAAAAA8kYA7AADUQ8AdAObhzB4BYPT6gPu9NQHAo/k9NgAAIOAOAAAV8cEAAMzDqT0CwLiVnO60uAMAAADA0wi4AwBABZq2W0bEjl0DwOS9HgJzAMD4CbgDwOMtzQwAABBwBwCAOmhvB4Dpu9feDgDTUXK6GN6/AYCHU9QCAAAIuAMAQCUE3AFg+k60twPA5GhxB4BHatpuYWYAAFA3AXcAAKiDgDsATNtVyUl7OwBMj4A7ADyegDsAAFROwB0AAGauabula10BYNLuI+LICgFgekpOF8N7OQDwcLtmBQAAdRNwBwCA+dPeDgDTdlxyurVDAJgsLe4A8DhL8wIAgLoJuAMAwPwJuAPAdJ2XnM7sDwAmTcAdAAAAAB5BwB0AAOZP2w0ATNNN395udwAwbSWnPuB+b40A8GBKWwAAoHIC7gAAMGNN2y0iYs+OAWBy+hDcUcnpzuoAYBa0uAMAAADAAwm4AwDAvGm6AYBpOi45XdsdAMzGpVUCwIMtjAoAAOom4A4AAPMm4A4A0/Om5HRmbwAwKxrcAeDh3EoKAACVE3AHAIB5W9ovAEzKVcnp2MoAYF5KTnf9+7y1AgAAAMD3CbgDAMBMNW23GxH79gsAk/EuIg6tCwBmS4s7ADxQ03ZuJwUAgIoJuAMAwHz5AAAApuO+D7cP7a4AwDxd2isAAAAAfJ+AOwAAzNfSbgFgMo5LTtfWBQDzNbzXv7NiAHiQhTEBAEC9BNwBAGC+NLgDwDS8KTmd2RUAVEGLOwA8jIA7AABUTMAdAADm64XdAsDo3ZScjq0JAKpxYdUAAAAA8G0C7gAAMENN2y3tFQBG750bVwCgOhrcAeBh/I4bAAAqJuAOAADzJCwHAON3WHK6sycAqMfw3n9j5QDwXbtGBAAA9RJwBwCAedJuAwDj9qrkdG1HAFAlLe4AAAAA8A0C7gAAME8a3AFgvM5LTmf2AwDVurB6APguJS4AAFAxAXcAAJiZpu36q1v37BUARumm5HRkNQBQr5KTBncA+L4dMwIAgHoJuAMAwPxotgGAcbqPiEO7AQAi4soQAAAAAODLBNwBAGB+DuwUAEbpqOR0azUAQERcGwIAfFvTdn7XDQAAlRJwBwCA+fFLfwAYnzclpwt7AQAGlwYBAAAAAF8m4A4AAPOztFMAGJWbktOxlQAAHxFwBwAAAICvEHAHAIAZadpuERE7dgoAo3EfEYfWAQB8rOR01x+CMxQA+CZlLgAAUCkBdwAAmBe/8AeAcTkuOd3aCQDwBdeGAgDftGs8AABQJwF3AACYFwF3ABiPtyWnM/sAAL7i0mAAAAAA4HMC7gAAMC8H9gkAo/AuIo6sAgD4Bg3uAPBtC/MBAIA6CbgDAMC8aHAHgHE4Kjnd2QUA8DUlJwF3APg2AXcAAKiUgDsAAMxE03b9L/t37BMAtu5NyenSGgCAB7gyJAAAAAD4KwF3AACYD+3tALB9NyWnY3sAAB5IizsAAAAAfELAHQAA5kPAHQC278gOAIBHEHAHgK/zO28AAKiUgDsAAMzHgV0CwFa9LjkJqQEAj+FnBwD4uh2zAQCAOgm4AwDAfGizAYDtuSk5nZg/APAYDscBAAAAwOcE3AEAYAaatltoswGArToyfgDgia4MDgAAAAD+Q8AdAADmQXs7AGzPa+2rAMAz+DkCAL6iabsDswEAgPoIuAMAwDwIuAPAdryLiFOzBwCe4dbwAAAAAOA/BNwBAGAeBNwBYDuOSk53Zg8APIMGdwAAAAD4iIA7AADMg4A7AGzeecnp0twBgGcScAcAAACAjwi4AwDAxDVttxsRe/YIABt1HxHHRg4APNdwG8y9QQLAFy2MBQAA6iPgDgAA06e9HQA273gIowEArIIWdwD4MgF3AACokIA7AABMn4A7AGzWVcnpzMwBgBUScAcAAACAgYA7AABMn4A7AGzWsXkDACvmZhgAAAAAGAi4AwDA9LmiFQA2503JScMqALBqlyYKAAAAAP8i4A4AANP3wg4BYCPuI+LEqAGANdDgDgBf5gZTAACokIA7AABMWNN22tsBYHOOS07CZwDAyrkhBgC+atdoAACgPgLuAAAwbdprAGAzbkpOZ2YNAKzRO8MFAAAAAAF3AACYOgF3ANiMY3MGANbs1oABAAAAQMAdAACmTsAdANbvbcnp0pwBgDUTcAcAAACgeiHgDgAAk7ewQgBYO+3tAMAmCLgDwOd2zQQAAOoj4A4AANO2b38AsFZvSk7CZgDAJviZAwA+53fgAABQIQF3AACYqKbtlnYHAGt1HxEnRgwAbIiAOwAAAADVCwF3AACYtIX1AcBanZac7owYAAAAAAAANkfAHQAApkuDOwCsT9/efmq+AMCmlJwuDRsAAAAABNwBAGDKBNwBYH1OtLcDAAAAAADA5gm4AwDAdC3sDgDW4l3JSXs7ALANN6YOAAAAQO0E3AEAYLr27Q4A1uLEWAGALXGDDAB8omm7XTMBAIC6CLgDAMAENW23tDcAWIu+vf3MaAEAAGA0/D4cAAAqI+AOAADTpLEGANZDezsAsE2Xpg8AAABA7QTcAQBgmg7sDQBWTns7AAAAAAAAbJmAOwAATNPC3gBg5bS3AwDbdmcDAAAAANROwB0AAKZJwB0AVkt7OwAwBte2AAAAAEDtBNwBAGCalvYGACulvR0AAAAAAABGQMAdAAAmpmm73YjYsTcAWJn7iLgwTgBg20pOl5YAAAAAQO0E3AEAYHq0twPAap2WnO7MFAAAAAAAALZPwB0AAKZnYWcAsDJ9e/upcQIAI3JjGQAAAADUTMAdAACmR8AdAFbnTHs7ADAyfjYBAAAAoGoC7gAAMD1LOwOAldHeDgCMzaWNAMBf7BoHAADURcAdAACmxy/zAWA1zktOt2YJAAAAo6b0BQAAKiPgDgAA0/PCzgBgJc6MEQAYIQ3uAAAAAFRNwB0AACakaTvt7QCwGlclJ+ExAGCM7mwFAAAAgJoJuAMAwLS4ihUAVkN7OwAwSiWna5sBAAAAoGYC7gAAMC0a3AHg+d6VnATcAYAxu7EdAAAAAGol4A4AANOiwR0Ank+4HQAYu1sbAgAAAKBWAu4AADAtC/sCgGcTcAcAxu7ahgAAAAColYA7AABMi4A7ADzPeclJIyoAMHYC7gAAAABUS8AdAACmRcAdAJ5HezsAMAUO5AEAAPD/2bt/pDjSbOHDRxPjNxOBL9pMC9pLT9QKxKxA9AqaNtMSbaXZ9AoGrWDQCrLw0huwXnPAr4gPVsAX2ZP0pdVI/Ksq8s18ngjF3BtjDDoHoUL86iTAZAncAQAgL2/tCwCe7TK19dz4AIChS23tgjsAAAAAkyPzE1kAACAASURBVCVwBwCATBRltWNXAPAiR8YHAGTk1LIAAAAAmCKBOwAA5GPDrgDgRU6MDwDIiCvuAAAAAEySwB0AAPLhgjsAPN/n1NYX5gcAZETgDgAAAMAkCdwBACAfLrgDwPMdmx0AkJm5hQEAAAAwRQJ3AADIx5ZdAcCzXKe2PjE6ACAn/dNnri0NAAAAgKkRuAMAQD4E7gDwPK63AwC5csUdAAAAgMkRuAMAQD4E7gDwPAJ3ACBXZzYHAAAAwNQI3AEAIB9v7QoAnuwytbUwDADIlQvuAAAAAEyOwB0AADJQlNWGPQHAs7jeDgBkK7W1wB0AAACAyRG4AwBAHnbsCQCeReAOAOTusw0CAAAAMCUCdwAAyIML7gDwdOeprS/MDQDInCvuAAAAAEyKwB0AAPLggjsAPJ3r7QDAGAjcAZi6s6kPAAAApkbgDgAAAMBYndgsAJC71NZd1HdpkQBM2JXlAwDAtAjcAQAgD7v2BABPcp7a+sLIAICRcMUdAAAAgMkQuAMAAAAwRse2CgCMiCfTAAAAADAZAncAAMjDlj0BwJOIwACA0Uht7bUNAAAAAJMhcAcAgDy8tScAeLTL1NYXxgUAjMxnCwUAAABgCgTuAAAwcEVZbdgRADyJC6cAwBh5jQMAAADAJAjcAQBg+HbsCACe5Ni4AIARErgDAAAAMAkCdwAAAADG5Dq19ZmNAgBjk9r6KiI+WywAAAAAYydwBwCA4XPBHQAez2VTAGDMPKkGAAAAgNETuAMAwPBt2BEAPJrAHQAYrdTW3WudaxsGAAAAYMwE7gAAAACMydw2AYCR84Y+AKbmzMYBAGBaBO4AADB8u3YEAI9ymtr6yqgAgJE7smAApsT3+gAAMD0CdwAAAADGwvV2AGD0Ult3V2zPbRoAAACAsRK4AwDA8G3YEQA8yokxAQAT4Yo7AAAAAKMlcAcAgOHbtiMAeNB1f80UAGAKujf2Xds0AAAAAGMkcAcAAABgDOa2CABMRWrrq4g4tnAAAAAAxkjgDgAAA1aU1Zb9AMCjCNwBgKk5snEAAAAAxkjgDgAAwyZwB4DHEbgDAJOS2voiIj7bOgAjd27BAAAwPQJ3AAAAAHJ3ndr6zBYBgAlyxR2AsbuyYQAAmB6BOwAADJsL7gDwMNfbAYBJSm09d9kWAAAAgLERuAMAwLAJ3AHgYQJ3AGDKXHEHAAAAYFQE7gAAAADkTuAOAExWauvjiLj0GQAAAADAWAjcAQBg2FxwB4AHpLY+MyMAYOKOpz4AAEbrymoBAGB6BO4AADBsAncA+LZT8wEAiKOIuDYGAEbIm9oBAGCCBO4AAAAA5GxuewDA1KW2vuojdwAAAADInsAdAACGbcN+AOCbBO4AAP8jcAcAAABgFATuAAAwbNv2AwDf5FHlAAD/d8X9k1kAAAAAkDuBOwAAAAC5uuxDLgAA/ufQHAAYGd/3AwDABAncAQAAAMiV6+0AAHektr5wxR2AkfG9PwAATJDAHQAABqooqy27AYBv8kNuAIC/csUdAAAAgKwJ3AEAYLgE7gDwbXPzAQD4M1fcAQAAAMidwB0AAACAXLngDgBwP1fcAQAAAMiWwB0AAACAHF2mtr6yOQCAv3LFHYCxSG3t6W0AADBBAncAABiuHbsBgK+6MBoAgG9yxR0AAACALAncAQBguDbsBgC+ygU3AIBvcMUdAAAAgFwJ3AEAAADI0ZmtAQA8yBV3AHJ2bXsAADBNAncAAAAAcnRhawAA3+aKOwCZ8+Z2AACYKIE7AAAM15bdAMD9Ulv7ITcAwOO44g4AAABAVgTuAAAwXAJ3ALjfubkAADxOf8X9F+MCAAAAIBcCdwAAAAByc2FjAABPchQR10YGQGZ8/w8AABMlcAcAAAAgN2c2BgDweKmtr/rIHQByInAHAICJErgDAAAAkBs/4AYAeLoucL80NwAAAACGTuAOAADDtWM3AHAvgTsAwBP1V9wPzQ2AjMwtCwAApkngDgAAw/Wd3QDAvc6MBQDg6VJbH7viDkBGvMEdAAAmSuAOAAAAQFb666MAADzPvrkBkIHL1NYCdwAAmCiBOwAAAAA5ObUtAIDnS20995oKgAx4ehsAAEyYwB0AAAAAAACmxRV3AIZubkMAADBdAncAABigoqw27AUA7uUH3AAAL5Ta+iIifjNHAAbM9/8AADBhAncAABimHXsBAAAAVugwIq4NGIABuk5tfWYxAAAwXQJ3AAAAAHLighsAwBKktr6KiAOzBGCATiwFAACmTeAOAAAAAAAAE5Ta+jgizu0egIERuAMAwMQJ3AEAAADIiUeUAwAslyvuAAyNp7cBAMDECdwBAAAAyEZq6yvbAgBYntTWXUT4yUgBGIjPvvcHAAAE7gAAAADk4tqmAABW4sBrLQAG4sQiAAAAgTsAAAzTlr0AwF+cGQkAwPL1l3IPjBaAV3YtcAcAAELgDgAAgyVwBwAAANYmtfVxRJyaOACv6KR/0xUAADBxAncAAAAAcnFhUwAAK7VvvAC8ItfbAQCA3wncAQAAAMiFwB0AYIVSW3evt34xYwBewWVqa4E7AADwO4E7AAAAAAAA8LvU1ocRcW4aAKzZsYEDAAC3BO4AAAAA5OLKpgAA1uLAmAFYM4E7AADwB4E7AAAAALk4sykAgNVLbT2PiN+MGoA1+ZTa+sKwAQCAWwJ3AAAAAAAA4EuHEXFpKgCsgevtAADAnwjcAQAAAAAAgD9JbX0VEfumAsCKnfdPDgEAAPiDwB0AAACAXFzZFADA+vTB4W9GDsAKHRkuAADwJYE7AAAM05a9AMCfpbY+MxIAgLU7jIhLYwdgBS5TWx8bLAAA8CWBOwAADJPAHQAAAHh1qa27p+js2QQAK+B6OwAAcC+BOwAAAAAAAPBV/ZN0fjEhAJboOiJcbwcAAO4lcAcAAAAAAAC+KbX1YUScmxIAS3LUPyUEAADgLwTuAAAAAAAAwGPs9Rd3AeAlur9LjkwQAAD4GoE7AAAAADm4tCUAgNeV2voiIvatAYAXcr0dAAD4JoE7AAAAADm4sCUAgNeX2vokIj5ZBQDP5Ho7AADwIIE7AAAAAAAA8BQHEXFuYgA8w6Hr7QAAwEME7gAAAAAAAMCj9WHifn+FFwAe6zK1tevtAADAgwTuAAAAAAAAwJOktj7rL7kDwGMdmhQAAPAYAncAAAAAAADgyVJbH0fEbyYHwCOc939vAAAAPEjgDgAAAAAAADxLauvuivu56QHwAE/9AAAAHk3gDgAAAAAAALzEbkRcmyAAX/E5tfXccAAAgMcSuAMAAAAAAADPltr6qo/cAeBL1663AwAATyVwBwAAAAAAAF4ktfVZRPxoigB84Si19YWhAAAATyFwBwAAAAAAAF4stfVxRHwySQB6l6mtDw0DAAB4KoE7AAAAAAAAsBSprfcj4tQ0AYiIfUMAAACeQ+AOAAAAAAAALNNeRJybKMCkfU5tPZ/6EAAAgOcRuAMAAAAAAABLk9r6qr/ae22qAJN07Xo7AADwEgJ3AAAAAAAAYKlSW59FxK6pAkzSQf9mJwAAgGcRuAMAAACQgw1bAgDISx+5/2htAJNymtr62MoBAICXELgDAAAAkINtWwIAyE8fOYrcAabhOiL27RoAAHgpgTsAAAAAAACwMn3k/smEAUZvP7X1hTUDAAAvJXAHAAAAAAAAViq19b7IHWDUPqe2PrFiAABgGQTuAAAAAAAAwMr1kftnkwYYncvueru1AgAAyyJwBwCAYbqyFwAAAGCEugDy3GIBRmU/tbV/0wYAAJZG4A4AAMN0Zi8A8GdFWW0ZCQBA3voAclfkDjAav6S2nlsnAACwTAJ3AAAAAHIhcAcAGAGRO8BonKa2PrROAABg2QTuAAAAAAAAwFqJ3AGydx0Re9YIAACsgsAdAAAAAAAAWDuRO0DWdvuv4wAAAEsncAcAAAAgF1s2BQAwLiJ3gCz9mNr6zOoAAIBVEbgDAAAAkAuBOwDACIncAbLyKbX1sZUBAACrJHAHAAAAAAAAXpXIHSAL56mt960KAABYNYE7AAAAALlwwR0AYMRE7gCDdt5/jQYAAFg5gTsAAAAAuRC4AwCMnMgdYJCuI2Kv/xoNAACwcgJ3AAAYJj8oAAAAACZJ5A4wKF3cvpva+sJaAACAdRG4AwDAMJ3ZCwD8xY6RAABMg8gdYBBu43b/Xg0AAKyVwB0AAACAXHxnUwAA09FF7qmtuzc5frJ2gLUTtwMAAK9G4A4AAABANoqy2rAtAIBpSW29L3IHWCtxOwAA8KoE7gAAAADkZMe2AACmp4/cf7Z6gJUTtwMAAK9O4A4AAAAAAAAMXmrro4j40aYAVkbcDgAADILAHQAAAICc7NoWAMB0pbY+johZH2ECsDzidgAAYDAE7gAAMEwX9gIAAADwV6mt5/0bHy+NB2ApziNiR9wOAAAMhcAdAAAGKLW1wB0A7rdjLgAA9BHmTh9lAvB85/3ldv8mDQAADIbAHQAAAICcbNgWAADxv8j9qr/k/slAAJ7lUx+3XxkfAAAwJH+3DQAAAAAy8s6yAAC41UeZ+0VZdRfdfzUYgEf7lNp637gAAIAhcsEdAAAAAAAAyFpq66OI+GdEXNskwIN+FLcDAABDJnAHAAAAICtFWe3aGAAAX0ptfRIR3WvFc8MBuFf3JqB/prY+Nh4AAGDIBO4AADBcp3YDAPfaMBYAAO6T2vqsj9w/GxDAn1x2Xx/7NwMBAAAMmsAdAAAAgNzs2BgAAF+T2voqtfVeRPxsSAC/646p7PRvAgIAABg8gTsAAAAAuRG4AwDwoNTWRxExi4hr0wIm7FNq6+5y+5VPAgAAIBcCdwAAAABys2FjAAA8RmrreURs9deLAaake3PPj6mt920dAADIjcAdAACGy0UdALjfO3MBAOCxuqvF3fXiiPjF0ICJuIyI7mr7sYUDAAA5ErgDAMBwndkNANyvKKstowEA4ClSWx9GxA99+AkwVp8jYie1tX9fBgAAsiVwBwAAACBHO7YGAMBT9cHnTh+AAozNL6mt97onV9gsAACQM4E7AAAAADkSuAMA8Cxd+NkFoBHxY0RcmyIwAt3Xsln/pAoAAIDsCdwBAAAAyJHAHQCAF0ltfdy/rjw1SSBj3RMptlJbzy0RAAAYC4E7AAAMlx9IAMDXbZkNAAAvldr6IrX1bkT8bJhAhn7unkjRPZnC8gAAgDERuAMAAACQo21bAwBgWVJbH0XEDxFxbqhABrqvVT/0X7sAAABGR+AOAAAAQJaKstq1OQAAliW19Vlq652I+MVQgQH7rfta1X3NsiQAAGCsBO4AADBcHisLAN+2Yz4AACxbauvDiPg+Ik4NFxiQy4iYpbY+sBQAAGDsBO4AADBQLvAAwIME7gAArERq64vU1t0Tg36OiGtTBl7Zb933wKmt5xYBAABMgcAdAAAAgFwJ3AEAWKnU1kf9687PJg28gj+utqe29sRPAABgMgTuAAAAAORq2+YAAFi1/pr7XkT8s49NAdbB1XYAAGCyBO4AADBs5/YDAF9XlNWu8QAAsA6prU/6a+6/GDiwQueutgMAAFMncAcAgGHzAwwA+DaBOwAAa9PFpqmtDyPi+4g4NXlgyX5Jbe1qOwAAMHkCdwAAAABytmN7AACsW2rri9TW3Zst/xkRlxYAvFD3hpnv+zfQAAAATJ7AHQAAhu3CfgDgm1xwBwDg1aS2PkltvdVdXY6Ia5sAnqh7g8w/uzfMdG+cMTwAAID/eXNzc2MUAAAwUEVZdRd7PtoPAHzTD6mtz4wIALiraBYbEbEfEXsR8e6L/7oLCucRcZJmmycGxzIUZdV9zh1FxAcDBR6he2PMUWrrK8MCAAD4s7+bBwAAAACZ24kIgTsA8Ls+bD944A3jb/sI+UPRLLrYfT/NNucmyEv0kep+f7Dg+J43VgB0Pnd/T7nYDgAA8HV/MxsAABg013sA4GG7ZgQAxP/i9p3+MvtTnobWxe5N0SyODJFl6KLV1Nbda9RZRJwaKtA7774upLbeE7cDAAB8m8AdAACGzTVaAHiYwB0AuBu3bz9zGj8VzeLYJFmW1NbzPnT/MSIuDRYmq/vz/2Nq653u64JPAwAAgIcJ3AEAAADI3duirLZsEQCmq2gWG33c/t0Lh/ChaBaHPpVYptTWx6mtt4TuMDnXEfFLRHRhuzdQAQAAPIHAHQAAhu3KfgDgUVxxB4BpO1lC3H7rY9Es9qY+UJZP6A6TcRu2b6W2Pkxt7d94AQAAnujNzc2NmQEAwIAVZeVFOwA87FNq631zAoDpKZrFUUT8tOTfeBcn7qbZ5plPKValKKvu9Wv3xIC3hgyj8an7c53a+sJKAQAAnk/gDgAAAydwB4BHueyvYQIAE9JfWv/3in7H533k7vIuKyV0h1EQtgMAACyRwB0AAAauKKsLP+AEgEf5IbW1K6sAMBFFs9iJiHlEfLfC3/HnNNvc8znFOgjdIUvCdgAAgBX4m6ECAMDg+eEIADzOrjkBwDQUzWIjIo5XHLd33hfN4sinFeuQ2vq4fyrRLCJODR0G67oP279Pbb0vbgcAAFg+gTsAAAAAYyFwB4DpOImI7TX9bn8qmsW+zy3WJbX1PLX1bh+6fzJ4GIwubP8lIraE7QAAAKv15ubmxogBAGDAirLqLsX9ZEcA8LDU1m+MCQDGrb+o/hrfJ/+QZptnPr1Yt6KsuqvuBxGxv4anFgB/dRkR3d893VMWrswHAABg9QTuAAAwcEVZHUbER3sCgEf5Z2rrE6MCgHHqL6n/65V+c93l3p0023Sxl1dRlNVGH7l3sftbW4CVO+/C9tTWx0YNAACwXn83bwAAGDxXgQDg8XYjQuAOACNUNIudV4zbo7+cfVI0i9002/S9OmvXX47urkgfFWW118fu720Clu5Tf619brQAAACvQ+AOAADD5/HnAPB4e/1FSwBgRPq4fQih4Xb/ZrrdAXwsTFj/1KKToqy2+te/+/2bMIDnueyi9j5s96QOAACAV/bm5ubGDgAAYMCKsup+aN7YEQA82g+prb1BDABGomgWG33cvj2g39GnNNvcH8DHAX8oymq/D93fmQo82mkftR8bGQAAwHD8zS4AAGDwBHoA8DQuqgLAuAwtbu98KJrF4QA+DvhDF+imtu5eC38fEb/1F6mBv7rs/4x83/2ZEbcDAAAMjwvuAACQgaKsvHAHgMc7T229Y14AkL+iWXTR4YcB/0Z+TLNNYSSDVZTVXkTsDfzPEazL5/5a+4mJAwAADJvAHQAAMlCU1VVEfGdXAPBo3SW+C+MCgHxlELffmqXZ5nwYHwrcryirjT5034+Id8bEhJx3UXsftl9ZPAAAQB4E7gAAkIGirOZ++AgAT/JzausjIwOAPBXNootw/5XJB38dEbtptnk2gI8FHlSU1dad2H3bxBihyztRuzc+AwAAZEjgDgAAGRC4A8CTnaa23jU2AMhPZnH7LZE7WSrKaqcP3bvg/a0tkrEuaj/po3ZfiwEAADIncAcAgAwUZXUYER/tCgCe5B8eQQ8AeSmaRRfZ/jvTtXVx5U6abXr9QZbE7mRI1A4AADBSf7dYAAAAAEZqr38sPQCQgaJZ7GT+d3cXBM+LZrErcidHfSB80P0qymqrfz3dBe/bFsqAnPd/V8xF7QAAAOPlgjsAAGSgKKucL9gBwGs5TW29a/oAMHx93D6PiO9GsK4uvhS5Mxp3YvfutfV7m2XNrvu/H076qP3CAgAAAMZP4A4AABkoyqr7AWJjVwDwZN8LIABg2EYWt986TbNNb7RjdIqy2uhD99vg/a0tswLnt1F7auu5AQMAAEyPwB0AADLQX8r6r10BwJP9nNr6yNgAYJhGGrff+pRmm/vD+FBgNYqy2rkTvL8zZp7psv+7YO5KOwAAACFwBwCAfBRl5cU7ADzdeWrrHXMDgOEZedx+S+TOpBRldXvZvfu1bft8haAdAACAbxK4AwBAJoqyuhr5D/0BYFW+F0wAwLBMJG6/JXJnkoqy2ugvu98G7299JkzWeUScCdoBAAB4LIE7AABkoiiruUc9A8Cz/Jba+sDoAGAYJha33xK5M3lFWW31ofuOC++jdn03Zu/+79TWV1MfCgAAAE8jcAcAgEwUZXUSEe/tCwCe7DK19ZaxAcDrm2jcfkvkDnf0F97vBu8OO+Tnbsx+1sfsrrMDAADwYgJ3AADIRFFWhxHx0b4A4Flmqa3nRgcAr2ficfstkTt8Q1FWO3ei9x1X3gflNCIu+l8uswMAALBSfzdeAADIhh8YAcDz7fcRBgDwCsTtf/hQNIsQucP9Uluf9ZfA/1CU1e6d6H1L9L5StxfZ74bsF66yAwAAsG4uuAMAQCb6H+Y19gUAz/YPFwYBYP3E7fdyyR1eoP93sp070fs783y0yz5eP+sPavz+n554BQAAwJC44A4AAPkQ5AHAy+xFxLEZAsD6iNu/yiV3eIE+xv5TkF2U1dad6H2q195P+/+8unMJ/3ZOZ97wCwAAQC5ccAcAgIwUZeUFPAA833lq6x3zA4D1ELc/ikvusGJ9+N796q6+b/Tx+13df/d2YHs4/eL/v+h/3bob9wvXAQAAGB2BOwAAZKQoqythAAC8yA+prc+MEABWS9z+JCJ3GKiirHZX+JFd+d4EAAAA7vd3cwEAgKx0P/R6Z2UA8GwHESEgA4AVErc/2YeiWYTIHYYntfXcWgAAAGD9/mbmAACQFY8bBoCX2SvKasMMAWA1xO3P1kXux5l+7AAAAACwVAJ3AADIi8cWA8DLfOeCOwCshrj9xUTuAAAAAExeCNwBACA7F1YGAC92YIQAsFzi9qXpIveToll44gwAAAAAkyVwBwCAvAjcAeDl3hZltWuOALAc4vale9/NU+QOAAAAwFQJ3AEAIC9n9gUAS+GKOwAsgbh9ZbZF7gAAAABM1ZubmxvLBwCAjBRl5UU8ACzH96mtPR0FAJ5J3L4W5xGxn2ab3vAOAAAAwGS44A4AAPk5tzMAWIpDYwSA5xG3r83tJfedifx+AQAAAEDgDgAAGbqyNABYir2irDaMEgCeRty+dt/1kfvuxH7fAAAAAEyUwB0AAPIztzMAWIouFjswSgB4PHH7q+nm3RTNYn+iv38AAAAAJkTgDgAA+bmwMwBYGoE7ADySuH0Q/lU0C69fAAAAABg1gTsAAORH4A4Ay/NdUVYuoQLAA8Ttg/Jr0SyOpz4EAAAAAMZL4A4AAPk5szMAWKpD4wSArxO3D9KHolnMi2axMfVBAAAAADA+AncAAMhMausrOwOApXrrijsA3E/cPmjvut0UzWJr6oMAAAAAYFwE7gAAkKdTewOApXLFHQC+IG7Pwnb3pLd+VwAAAAAwCgJ3AADI04W9AcBSdVfc94wUAP5H3J6V7/pL7p5IAwAAAMAoCNwBACBPAncAWL4DMwUAcXumul39q2gWnkoDAAAAQPYE7gAAkKczewOApXtXlNWusQIwZeL27H0smsVJ0Sw2pj4IAAAAAPIlcAcAgDy54A4Aq+HqKQCTJW4fjffdHotmsTX1QQAAAACQpzc3NzdWBwAAGSrKyot5AFiNWWrrudkCMCXi9lG6joi9NNv0ugYAAACArLjgDgAA+bq0OwBYiWNjBWBKxO2j1e2zKZrFwdQHAQAAAEBeBO4AAJCvC7sDgJV4W5TVvtECMAXi9kn4tWgWx0Wz2Jj6IAAAAADIg8AdAADy5RHjALA6h2YLwNiJ2yflQ7frfucAAAAAMGgCdwAAyJcL7gCwOq64AzBq4vZJ2u4j972pDwIAAACAYRO4AwBAvgTuALBah0VZbZgxAGMjbp+0buf/LprF0dQHAQAAAMBwCdwBACBTqa3ndgcAK/U2Ig6MGIAxEbfT+6loFmdFs9gyEAAAAACGRuAOAAB5u7Q/AFipA1fcARgLcTtf2I6ILnLfMxgAAAAAhkTgDgAAebuwPwBYqS4APDJiAHInbucrus+HfxfNwusdAAAAAAZD4A4AAHmb2x8ArNyHoqy2jBmAXInbeYSfimbRXXP3mgcAAACAVydwBwCAvJ3ZHwCsxbExA5AjcTtPsN39O0PRLPYNDQAAAIDXJHAHAIC8XdgfAKzFu6Ksdo0agJyI23mG7nPlX0WzOC6axYYBAgAAAPAaBO4AAJCx1NYuuAPA+rjiDkA2xO280If+mvuOQQIAAACwbgJ3AADI37kdAsBavC3K6tCoARg6cTtL8jYi/lM0C69/AAAAAFgrgTsAAOTPFXcAWJ+Doqy2zBuAoRK3swIfi2bhmjsAAAAAayNwBwCA/F3YIQCsTRcLHhk3AEMkbmeFtrvPraJZHBgyAAAAAKsmcAcAgPzN7RAA1up9UVa7Rg7AkIjbWYPuc+vXoll0obsn2gAAAACwMgJ3AADI35kdAsDaHRdltWHsAAyBuJ01e9f9W4Rr7gAAAACsisAdAAAyl9r6KiKu7REA1uptRIi6AHh14nZeiWvuAAAAAKyMwB0AAMbBFXcAWL+PRVntmDsAr0XczgC45g4AAADA0gncAQBgHOb2CACv4sjYAXgN4nYGxDV3AAAAAJZK4A4AAOPggjsAvI53RVm5WArAWonbGajumvt/i2ZxaEEAAAAAvITAHQAAxuHCHgHg1RwWZeVaKQBrIW4nAx+LZnFWNItdywIAAADgOQTuAAAwAqmtXXAHgNfTBYbH5g/Aqonbych2RDRFszgqmsWGxQEAAADwFAJ3AAAYj1O7BIBX864oqwPjB2BVxO1k6qfuqXNFs9izQAAAAAAeS+AOAADj4Yo7ALyuw6KstuwAgGUTt5O57vP230WzmBfNwmslAAAAAB4kcAcAgPEQuAPA6+rirWM7AGCZxO2MyLuI+G/RLA6LZrFhsQAAAAB8jcAdAADGQ+AOAK/vXVFWB/YAwDKI2xmpj92/YRTNYs+CAQAAALjPm5ubG4MBAICRKMrKC3wAeH3XEbGbmmf9VwAAIABJREFU2tqbzwB4NnE7E3EaEQdptul1EwAAAAB/cMEdAADG5dQ+AeDVdSHisTUA8FzidibkXUT8p2gWR0Wz2LB4AAAAAELgDgAAo+PiGQAMw3ZRVod2AcBTiduZqJ8i4qJoFgc+AQAAAAAQuAMAwLgI3AFgOD4WZbVrHwA8lridies+738tmkUXuu9NfRgAAAAAUyZwBwCAcRG4A8CwnBRltWEnADxE3A5/eBsR/y6axbxoFt4sCAAAADBBAncAABiR1NZd4H5tpwAwGF2keGwdAHyLuB3u9S4imqJZHBfNYsuIAAAAAKZD4A4AAOPjijsADMv7oqwO7ASA+4jb4UEfIuK/RbM4KpqFJ+MAAAAATIDAHQAAxmdupwAwOL8WZbVjLQDcJW6HJ/kpIi6KZnEodAcAAAAYN4E7AACMjwvuADBMJ0VZibEA+J24HZ6l+/PysQ/dPSEHAAAAYKQE7gAAMD4CdwAYprcRcWw3AIjb4cW++/0JOc2iC933jRMAAABgXN7c3NxYKQAAjExRVhd9RAcADM8vqa0P7QVgmsTtsBKXEXGYZpveTAgAAAAwAi64AwDAOLniDgDD9bEoq137AZgecTusTPcm/3+56A4AAAAwDgJ3AAAYp7m9AsCgnRRltWVFANMhboe1ELoDAAAAjIDAHQAAxskFdwAYtu/6yH3DngDGT9wOayd0BwAAAMjYm5ubG/sDAIARKsrKi30AGL5Pqa1FVwAjJm6HQbiOiKPuV5ptXlkJAAAAwLC54A4AAON1arcAMHgfirI6sCaAcRK3w2B0fwY/RkR30f2waBaeogMAAAAwYAJ3AAAYrzO7BYAs/FqU1Z5VAYyLuB0G6TZ0/39FszgumsWWNQEAAAAMj8AdAADGa263AJCN46KsdqwLYBzE7ZCFDxHx3z5037UyAAAAgOEQuAMAwHi54A4A+egCyJOirDbsDCBv4nbIThe6N0WzmBfNYt/6AAAAAF7fm5ubG2sAAICRKsrqIiLe2i8AZOM8InZTW19ZGUB+xO0wCpcRcdQ9YSfNNr0mAwAAAHgFLrgDAMC4ze0XALKy3QdVAGRG3A6j0R0K+DUiLopmcVw0iy2rBQAAAFgvgTsAAIzbmf0CQHY+FGUlcgfIiLgdRqn78/whIv5bNIt50Sz2rRkAAABgPd7c3NwYNQAAjFRRVl1k8R/7BYAs/Zja+tjqAIZN3A6TchkR3euz4zTbvLB6YB2KZrERETtf/E+dpdnmlQUAAABjJXAHAICRK8rqSmgBANkSuQMMmLgdJu1zH7qfTH0QwPL1Uft+/2v7K/8Dp/3XId8zAgAAoyNwBwCAkSvKqvtB63t7BoAsXUfEbmrrM+sDGBZxO9Bz1R1Ymv71xUFE7D3hNcZ5F8Kn2abvGwEAgNEQuAMAwMgVZXUYER/tGQCyJXIHGBhxO/AVrroDT/bIa+0P6b5vPHDNHQAAGAuBOwAAjFxRVrsR0dgzAGRN5A4wEOJ24BGu71x19/oNuFfRLPb6S+0fljihWZptzk0cAADIncAdAAAmoCgrL/wBIH/nfeR+ZZcAr0PcDjzD+Z3Y3es4mLiiWWx1l9b7sP3tCqbRvcFmy9cbAAAgdwJ3AACYgKKsugDjnV0DQPZE7gCvRNwOLMHniDhJs81jw4TpKJrFRh+0d2H79hp+45/SbHPfpxgAAJAzgTsAAExAUVaHEfHRrgFgFETuAGsmbgeWrLuwfNLH7ieGC+NzJ2rvfr1/hd/g92m2eeFTCwAAyJXAHQAAJqAoq92IaOwaAEZD5A6wJuJ2YMVuY/ejNNs8M2zIW9Es9u6E7a/52uHnNNs88ukEAADkSuAOAAATUZSVF/8AMC4id4AVE7cDa3bZx+7HYnfIx4Ci9rtO02xzN6MxAgAA/InAHQAAJqIoqy7KeGffADAqIneAFRG3A6/sNnafp9nmiWXAcBTNYqP7PmyAUfufpNnmmwF9OAAAAE8icAcAgIkoyuowIj7aNwCMjsgdYMnE7cDAXPex+4nYHV5HH7XfBu3vc1iDwB0AAMiZwB0AACaiKKvuqlBj3wAwSiJ3gCURtwMDd91/jboN3r3+gxXpXxN0/6a6HxHbGc55lmab8wF8HAAAAE8mcAcAgAkpyso3AAAwXiJ3gBcStwMZOu1j93mabZ5ZILxM0Sz2+qi9+8+3mY/zH94EAwAA5ErgDgAAE1KUVRdqvLNzABgtkTvAM4nbgRG4vBO7n1goPOzOlfbu1/sxjSzNNt8M4MMAAAB4FoE7AABMSFFWhxHx0c4BYNRE7gBPJG4HRupz/7XNdXfoFc1io7/Ofhu1536l/Wsu02xza5gfGgAAwMME7gAAMCFFWXU/tGnsHABGT+QO8EjidmAiLm9j9+7Ke5ptep3IJPRB++6dX9sT+a1/SrPN/QF8HAAAAM8icAcAgIkpyupKuAEAkyByB3iAuB2YsPM7wftc8M5YTDho/9KPabZ5PKwPCQAA4PEE7gAAMDFFWZ1ExHt7B4BJELkDfIW4HeBPBO9kqf/7fOdO0P7WJn/3D3+OAQCAnAncAQBgYoqyOoiIX+0dACZD5A7wBXE7wIME7wxOf539bsy+4+/ye52n2ebOAD8uAACARxO4AwDAxBRl1f1w4z/2DgCTInIH6InbAZ7l8k7wfpZmm2fGyKoVzeI2Yr/9tW3oj/Jzmm0eZfBxAgAAfJXAHQAAJqgoqwuP6/3/7N09ctz2lvDhQ9fkUoBcnBCReDNkIlZgegWiVmA6RGQ6QjjUCkyu4FIrIJUhGzL6h6ZyVr3kCvotSNAdWRYlfjTQ+HieKtfcqqmpuj5HIrunfzgNAIsjcgcWT9wOsDa3bej+VfTudSaP8tVl9m0x+5P9y0MoAADA1AncAQBggfKiOo6I13YPAIsjcgcWS9wO0LsPX0TvbfB+buR8rbvKvt398/k/O8SxPh9SmW3P5V8GAABYLoE7AAAsUF5U+xHxp90DwCKJ3IHFEbcDbMxlF71fufS+LEL2jXmbyuxgof/uAADAjAjcAQBggfKiaj9Q+svuAWCxRO7AYojbAUbn86X3z/9cpTK7sKbp6SL25xGx80XMvuN37kaVvj0BAACYA4E7AAAsVF5U7QeHL+0fABZL5A7MnrgdYFLed5feP197b8P3KyvcnC5gjy5af/7F/3y1xHlMwG0qs+dLHwIAADAPAncAAFiovKiOIuJX+weARRO5A7MlbgeYjS/Ddxff16D7Hfk5hP4csX++wP7cUYzJOklltr/0IQAAAPMgcAcAgIXKi6r98OrM/gFg8UTuwOyI2wEW4cMX4fvnS+/nX/yL3ywhhP8qVo8vgvX4Ilr//J9fDPxfj2H9ksrs1MwBAIA5ELgDAMCC5UXlDQEAECJ3YE7E7QB8x4cvYvgvnf9gaFd3/N89xddh+te+jNO/9MqC+YbbVGbf+/MEAAAwKf9lXQAAsGjvIuLnpQ8BAIiXXdSzYxTAlInbAfiBF3dcMReNM3UutwMAALPyk3UCAMCi/eg6FQCwHC/zojq2b2CqxO0AwIIJ3AEAgFkRuAMAwLL54AMA+NJrkTswReJ2AGDBPqQy8//nBQAAZkXgDgAAC5aa+qr9AMSfAQDgCyJ3YFLE7QDAwonbAQCA2RG4AwAAPgABAL4mcgcmQdwOABDeuwEAALMjcAcAAM4XPwEA4FtE7sCoidsBAOIyldmFMQAAAHMjcAcAgIVLTe2COwBwF5E7MEridgCAj7xfAwAAZkngDgAAtN6ZAgBwB5E7MCridgCA/3C8BAAAmCWBOwAAED4IAQB+QOQOjIK4HQDgP96lMrsyDgAAYI4E7gAAQHSBCADA94jcgY0StwMA/I33ZwAAwGxtrVYr2wUAACIvqouIeGkSAMAPnKSm3jckYEjidgCAv7lNZfbcSAAAgLlywR0AAPjMFXcA4D5ccgcGJW4HAPgH78kAAIBZE7gDAACf+VAEALgvkTswCHE7AMA3HRkLAAAwZwJ3AADgo9TUF+1X25oGAHBPInegV+J2AIBvep/K7MpoAACAORO4AwAAXzo1DQDgAUTuQC/E7QAAd/IeDAAAmD2BOwAA8CWBOwDwUCJ3YK3E7QAAd/qQysz7LwAAYPYE7gAAwH+kpha4AwCPIXIH1kLcDgDwXd53AQAAiyBwBwAAvvbORACARxC5A08ibgcA+CHvuQAAgEUQuAMAAF9zxR0AeCyRO/Ao4nYAgB86SWV2ZUwAAMASCNwBAICvCdwBgKcQuQMPIm4HALgX77MAAIDFELgDAAB/k5r6JiIuTQUAeAKRO3Av4nYAgHu5TGV2blQAAMBSCNwBAIBvEaQBAE8lcge+S9wOAHBvR0YFAAAsicAdAAD4llNTAQDWQOQOfJO4HQDg3j6kMvO+CgAAWBSBOwAA8A+pqa/ar701GQBgDUTuwN+I2wEAHsT7KQAAYHEE7gAAwF1ccQcA1kXkDnwkbgcAeJDbiDgyMgAAYGkE7gAAwF0E7gDAOoncYeHE7QAAD3aayuzG2AAAgKURuAMAAN+UmvoiIj6YDgCwRiJ3WChxOwDAoxwaGwAAsEQCdwAA4HtccQcA1k3kDgsjbgcAeJSTVGZXRgcAACyRwB0AAPge8RkA0AeROyyEuB0A4NG8ZwIAABZra7Va2T4AAHCnvKjaK0EvTAgA6MFJaup9g4V5ErcDADza+1Rmu8YHAAAslQvuAADAj5yaEADQE5fcYabE7QAAT3JofAAAwJIJ3AEAgB8RnQEAfRK5w8yI2wEAnqS93n5uhAAAwJIJ3AEAgO9KTX0RER9MCQDokcgdZkLcDgDwZK63AwAAiydwBwAA7uPUlACAnoncYeLE7QAAT/bB9XYAAACBOwAAcD9iMwBgCCJ3mChxOwDAWrjeDgAALF5ra7VaGQQAAPBDeVFdRcQLkwIABnCSmnrfoGEaxO0AAGvRXm/fNkoAAAAX3AEAgPs7NSsAYCAuucNEiNsBANbG9XYAAICOwB0AALgvkRkAMCSRO4ycuB0AYG3a6+3e/wAAAHQE7gAAwL2kpr5oP2gxLQBgQCJ3GClxOwDAWrneDgAA8AWBOwAA8BCnpgUADEzkDiMjbgcAWCvX2wEAAL4icAcAAB7iyLQAgA0QucNIiNsBANbO9XYAAICvbK1WKzMBAADuLS+qi4h4aWIAwAacpKbeN3jYDHE7AMDaXaYy2zFWAACAv3PBHQAAeCjXUwGATXHJHTZE3A4A0IsDYwUAAPgngTsAAPBQpyYGAGyQyB0GJm4HAOjF+1Rm50YLAADwTwJ3AADgQVJTX7VfnWtqAMAGidxhIOJ2AIDeHBotAADAtwncAQCAxzgyNQBgw0Tu0DNxOwBAb1xvBwAA+A6BOwAA8BinpgYAjIDIHXoibgcA6NWB8QIAANxN4A4AADxYauqbiHhncgDACIjcYc3E7QAAvTpJZXZhxAAAAHcTuAMAAI/lijsAMBYid1gTcTsAQO8OjRgAAOD7tlarlREBAACPkhfVjfAFABiRk9TU+xYCj5OfXT+PiPaa6AsjBADoxdtUZgdGCwAA8H0uuAMAAE/hijsAMCYuucMjdXH7ubgdAKA3t663AwAA3I/AHQAAeAoBGQAwNiJ3eJyjiHhpdgAAvTlKZXZjvAAAAD8mcAcAAB4tNXV74fGDCQIAIyNyhwfIz64P2r83ZgYA0JsP3QOFAAAA3IPAHQAAeCrxGAAwRiJ3uIf87HonIg7NCgCgV4eutwMAANyfwB0AAHgq4RgAMFYid/ix9u/IM3MCAOjNZSoz70sAAAAeQOAOAAA8SWrqq/ZDGlMEAEZK5A53yM+uDyLipfkAAPTqwHgBAAAeRuAOAACsw5EpAgAjJnKHr+Rn188j4tBcAAB69S6V2bkRAwAAPIzAHQAAWIdTUwQARk7kDn/XXhJ9ZiYAAL1yvR0AAOARBO4AAMCTpaa+iYgTkwQARk7kDv93vV1sBQDQrz9SmV2ZMQAAwMMJ3AEAgHURiwEAUyByB9fbAQD6dhsRR6YMAADwOAJ3AABgLVJTn0fEB9MEACZA5M7S7S99AAAAPTtIZXZjyAAAAI8jcAcAANZJKAYATIXInUXKz673IuKF7QMA9OYylZn3GgAAAE8gcAcAANbJBzcAwJSI3Fki19sBAPp1YL4AAABPI3AHAADWJjX1VUS8N1EAYELayH3XwliQny0bAKA3J6nMzo0XAADgaQTuAADAurmCCgBMjYvWLEJ+dr1n0wAAvbl1vR0AAGA9BO4AAMBapaY+7j7MAQCYim2bYiF8WwEAQH8OU5ndmC8AAMDTCdwBAIA+uOIOAADjI3AHAOjHZSqzI7MFAABYD4E7AADQBx/mAADA+Ly0EwCAXhwYKwAAwPoI3AEAgLVLTX3VXi0yWQBgIk4tirnLz65dbwcA6MdJKrNzswUAAFgfgTsAANAXV9wBgCm4jYhjm2IBti0ZAGDtbl1vBwAAWD+BOwAA0JfT7gMeAICxal+r7KamvrEhFkDgDgCwfoepzLyfAAAAWDOBOwAA0IsuFDs1XQBgpN5FxE5q6gsLYiGeWzQAwFpdpjLzLZYAAAA9+C9DBQAAetR+wPPagAGAkWgvth+3r1FSU19ZCguzY+EAAGu1b5wAAAD9ELgDAAC9aS+i5kX1PiJemTIAsEEfugfvjrtvmQEAAHiKt6nMfBsUAABATwTuAABA344F7gDAhlx219qPLQAAAFiT9puhDg0TAACgP1ur1cp4AQCAXuVF1V5KfWbKAMBA2m+QOUxNfW7g8El+dn3uwVMAgLX4JZXZqVECAAD0xwV3AABgCO3V1F9NGgDo2Ul3sf3CoAEAgB68E7cDAAD0T+AOAAAM4UjgDgD06KS72H5lyAAAQE9uI+LAcAEAAPr3kxkDAAB962Kz9wYNAKxZG7b/d2rqfXE7/JBvNgAAeJrDVGbedwAAAAzABXcAAGAo7RX3V6YNAKyBi+3wcDdmBgDwaJepzI6MDwAAYBguuAMAAINITX0aER9MGwB4Ahfb4fH8nQEAeLx9swMAABiOC+4AAMCQjiPidxMHAB7IxXZ4On9/AAAe549UZhdmBwAAMJyt1Wpl3AAAwCDyonoeEf/PtAGAexK2wxrlZ9c+EAAAeJgPqcy2zQwAAGBYP5k3AAAwlNTUN12oBgDwPe3rhf9OTb0vboe1ujROAIAH2TcuAACA4f2XmQMAAAM7iojXhg4AfMP7NiARtUNvLiLipfECANzL21Rm50YFAAAwPBfcAQCAQaWmvujiNQCAz9rXBmVq6l1xO/Tq1HgBAO7lQ0QcGhUAAMBmuOAOAABswnFEvDJ5AFi8Nho5SE0tuoVhuEAKAHA/+6nMbswKAABgM7ZWq5XRAwAAg8uLqr3O+sLkAWCRbruw/dj6YVj52XX7QMnPxg4AcKe3qcwOjAcAAGBzfjJ7AABgQwRtALA8bdj+R0Rsi9thY3xjAgDA3dpvmTo0HwAAgM1ywR0AANiIvKieR8T/M30AWIyTNhRJTX1l5bBZ+dn1TUQ8swYAgH8oU5mdGwsAAMBmueAOAABsRGrqmy50AwDm7X1E/Cs19b64HUbjyCoAAP7hrbgdAABgHATuAADAJglrAGC+2q/2/yU19W5q6gt7hlE5tg4AgL9p378cGgkAAMA4bK1WK6sAAAA2Ji+q9irSKxsAgNm4bR9iS00tDoERy8+u28j9tR0BAHxUut4OAAAwHi64AwAAm+aKOwDMx0lE7IjbYRIOugdSAACW7q24HQAAYFxccAcAADYuL6qriHhhEwAwWZdtLJuaWhQCE5KfXbcPo/xuZwDAgn34+JBumd34QwAAADAeLrgDAABj4MorAExTe/35t9TUO+J2mJ5UZodd1AUAsFT74nYAAIDxEbgDAABjcNoFcgDAdJxExHZq6iM7g0nbtz4AYKHepjLzoC4AAMAIba1WK3sBAAA2Li+q9nrk7zYBAKN3GREHLrbDfORn116LAwBLc5nKbMfWAQAAxskFdwAAYCyObQIARq39tpU/UlPviNthXlKZtYH7e2sFABbEt9gAAACMmMAdAAAYhdTUVxFxYhsAMErvIqIN2w+tB2ZrLyI+WC8AsAB/pDK7sGgAAIDx2lqtVtYDAACMQl5U2xHxl20AwGi0setBaupTK4H5y8+udyKi/YaGZ9YNAMzUZSqzHcsFAAAYNxfcAQCA0eiuuL+3EQAYhbfd1XZxOyxEd8l0NyJu7RwAmKHb7ltrAAAAGDmBOwAAMDaHNgIAG3UZEWVq6vZy+41VwLKI3AGAGTtMZXZlwQAAAOO3tVqtrAkAABiVvKjOI+KVrQDA4P5ITe1hMyDys+udiGhflz8zDQBgBt6lMnO9HQAAYCJccAcAAMbo2FYAYFDvI+K/xe3AZy65AwAz0r6e2bdQAACA6XDBHQAAGKW8qNqvC35hOwDQq9uPX9Pf1EfGDHyLS+4AwAyUqczOLRIAAGA6XHAHAADGygVZAOhXe7V9R9wOfI9L7gDAxL0VtwMAAEyPC+4AAMBo5UV141IkAKydq+3Ag7nkDgBM0GX7oF4qsxvLAwAAmBYX3AEAgDET3gHAernaDjyKS+4AwATti9sBAACmSeAOAACM2ZGABgDWov19+ltq6t3U1FdGCjyGyB0AmJDfutcuAAAATJDAHQAAGK3U1DeuuAPAk7naDqyNyB0AmIB3qcy8/wEAAJgwgTsAADB2rrgDwOO42g70QuQOAIxY+/pk34IAAACmTeAOAACMWnfF/dSWAOBBLl1tB/okcgcARmovldmN5QAAAEybwB0AAJiCQ1sCgHv7IzX1jqvtQN9E7gDAyLxNZXZuKQAAANO3tVqtrBEAABi9vKiOI+K1TQHAndqr7fupqS+MCBhSfna9ExFtTPbM4AGADblMZbZj+AAAAPPggjsAADAVrrgDwN3etleUxe3AJrjkDgBsWPsaZM8SAAAA5sMFdwAAYDJccQeAf/gYcqSm9jX8wMa55A4AbMgvqcxODR8AAGA+XHAHAACmxBV3APg/7yJiW9wOjIVL7gDABpyI2wEAAObHBXcAAGBSXHEHgI/h6GFq6iOjAMbIJXcAYCCX7cN1qcxuDBwAAGBeXHAHAACmxhV3AJbsU8AhbgdGzCV3AGAA7euMfXE7AADAPLngDgAATI4r7gAs1NvU1AeWD0yFS+4AQI/epDI7NmAAAIB5csEdAACYIlfcAViS9jJhKW4HpsYldwCgJyfidgAAgHkTuAMAAJOTmvqq/SDL5gBYgPcRsZ2a+tyygSkSuQMAa3YZER7+BQAAmLmt1WplxwAAwOTkRbUdEX/ZHAAz9ltq6iMLBuYgP7veiYj2YZ1nFgoAPFL7wNxu9wAdAAAAM+aCOwAAMEmuuAMwYx8i4l/idmBOXHIHANbgQNwOAACwDAJ3AABgyg5tD4CZeRcRO6mpRRvA7IjcAYAnOElldmyAAAAAy7C1Wq2sGgAAmKy8qNoPtl7bIAAz8Jur7cAS5GfXOxFxHhHPLBwAuIfL9iG5VGY3hgUAALAMLrgDAABT54o7AFP3ISL+JW4HlsIldwDgAdrXC/vidgAAgGURuAMAAJOWmvqq/YpiWwRgot5FxE5q6gsLBJZE5A4A3NNB97oBAACABdlarVb2DQAATFpeVNsR8ZctAjAxv7naDixdfna9ExHnEfFs6bMAAP7hJJXZvrEAAAAsj8AdAACYhbyojiPitW0CMAEfImLP1XaAT0TuAMA3XKYy2zEYAACAZfrJ3gEAgJk4tEgAJuB9ROyI2wH+Tyqz9mfibkTcGgsA0L0m2DMIAACA5XLBHQAAmA1X3AEYuT9SU3sgC+AOLrkDAJ1fUpmdGgYAAMByueAOAADMiWgQgDG6/RhoiNsBvssldwDg44PB4nYAAIDFE7gDAACzkZr6KiLe2igAI3IZETupqQUaAPcgcgeARXufysyDwQAAAAjcAQCA2TkUwwAwEidtpNk9gAXAPYncAWCRPkTEntUDAADQ2lqtViP4rwEAALA+eVG1kfvvRgrABr1JTX1sAQCPl59d70TEeUQ8M0YAmL1/dQ+5AQAAgAvuAADALB259gjAhtx+DDPE7QBP5pI7ACzGG3E7AAAAXxK4AwAAs5Oa+qaL3AFgSJcRsZ2aWpgBsCYidwCYvZNUZh4QBgAA4G+2VquViQAAALOUF9VVRLywXQAGcJKaet+gAfqRn13vRMR5RDwzYgCYjctUZjvWCQAAwNdccAcAAObs0HYBGMAbcTtAv1xyB4DZaX+n71krAAAA3+KCOwAAMGuuuAPQozbI2E1NfWHIAMNwyR0AZqNMZXZunQAAAHyLC+4AAMDcHdgwAD24jIhtcTvAsFxyB4BZ+E3cDgAAwPe44A4AAMxeXlTtB2avbBqANTlJTb1vmACb45I7AEzWSSoz76cAAAD4LhfcAQCAJTi0ZQDW5I24HWDzXHIHgEm69G2LAAAA3IcL7gAAwCLkRXUaET/bNgCP1AaUe6mpfY0+wIi45A4Ak9G+p9pJZXZlZQAAAPyIC+4AAMBSuA4FwGO1VwZ3xe0A4+OSOwBMxp64HQAAgPsSuAMAAIuQmrr9AO3EtgF4oHdd3H5hcADjJHIHgNH7LZWZB4YBAAC4t63VamVaAADAIuRF9Twi2tD9mY0DcA9vU1P7BhCAicjPrnci4tzrfQAYlZNUZvtWAgAAwEMI3AEAgEXJi+owIn63dQB+4E1q6mNDgm/Li2o7Ira7/2UbFT/v/nP7MOFVamoXOtkIkTsAjMrlx2/EKrMbawEAAOAhBO4AAMCidFfcLyLihc0D8A23HwOMpr4wHPj42mn3i4B9t4va7/M6qv27dBoRh6mpr4ySIYncAWAU2teD2+J2AAAAHkPgDgAALE5eVO3XIv9p8wB8pb0uuC9uZ6m+iNk//891PBDYhk1HqakP/cFiSCJ3ANi4f6Uy894KAACARxG4AwAAi5SqFUdYAAAgAElEQVQXVfsB20vbB6DzPiL2UlO7LshidEH7539e9fzvfRIRB/6OMSSROwBszJtUZsfGDwAAwGMJ3AEAgEXqgq4z2wegDW9TU+8bBHOXF9Xn6+x7AwTt39J+S8KuyJ0hidwBYHAnqcy8vwIAAOBJBO4AAMBi5UV1GhE/+xMAsGi/paY+WvoQmK+8qPa6oL0N21+M4F9U5M7gRO4AMJj3qcx2jRsAAICnErgDAACLlRfVdkT85U8AwCLdRsRBampfm8+s5EX1vAvaP0ftYwx6Re4MTuQOAL37EBE7qcy8xgMAAODJBO4AAMCi5UV1GBG/L30OAAtz28W1FxbPXHSX2vcn9O00IncGJ3IHgN58eo9VZt5jAQAAsBYCdwAAYNG6K6dXIheAxWij2r3U1FdWztTlRbXbRe17E30tI3JncCJ3AOjFL6nMTo0WAACAdRG4AwAAi5cXVRuG/bn0OQAswPsubhfTMll5UW13UXv7z4sZbFLkzuBE7gCwVr+lMjsyUgAAANZJ4A4AAPApFmu/QvmlWQDM1klq6n3rZaq6B/Laf17NcIkidwYncgeAtThJZeZ9FgAAAGsncAcAAPgUje1GxJlZAMzSH6mpD62WqemutR90YfvcI1yRO4MTuQPAk1ymMtsxQgAAAPogcAcAAOjkRXUaET+bB8CsvElNfWylTEleVHtd1L601yUidwYncgeAR/kQETupzLxuAwAAoBcCdwAAgE53JfVC3AIwC7cRsZea+tw6mYK8qJ63f2Yjov22gRcLXprIncGJ3AHgQW4/vl4rswtjAwAAoC8CdwAAgC/kRdVGZb+bCcCk3XaBrOCC0esesGuvtR+Ia/9D5M7gRO4AcG+/pDI7NS4AAAD6JHAHAAD4Qnc99WLhl1MBpkwYyyR0YXv7YN1rG/smf5cZnMgdAH7ot1RmR8YEAABA3wTuAAAAX8mLai8i/m0uAJMjiGX08qLa7a61/2xbP+TvNIMTuQPAnU5Sme0bDwAAAEMQuAMAAHxDXlRt1PLKbAAm4yQ1tdiC0erC9kOvLx5M5M7gRO4A8A+Xqcx2jAUAAICh/GTSAAAA3ySSBJgOcTuj1Ybt3YNzZ+L2R3nZhsZ5UT2f4H93JiqV2UX7YEVE3NohAHx64NAYAAAAGJIL7gAAAHfIi6q9svq7+QCM2m+pqY+siLFxsX3tXHJncC65A8DHh712u4e/AAAAYDACdwAAgDt0l0LbD/BemBHAKL1JTX1sNYyJsL1XIncGJ3IHYOHKVGbnSx8CAAAAwxO4AwAAfEdeVHsR8W8zAhiV9orgfmrqU2thLITtgxG5MziROwAL9SaVmQeKAQAA2AiBOwAAwA/kRXUuVgMYjdsubvUV+YxCXlTbEXEUET/byGBE7gxO5A7AwrxNZXZg6QAAAGyKwB0AAOAHunDtL3MC2DhxO6PRvT5oL7a/tpWNELkzOJE7AAtxksps37IBAADYJIE7AADAPeRF1QZsv5sVwMaIWRmFvKieR8RB94/IdbP8XGBwIncAZu7T66sy8/oKAACAjfrJ+AEAAO7lKCI+GBXARohYGYW8qNpLllfdQ2/i1s172YbG3UMHMIhUZu23iOx23yoCAHPyQdwOAADAWLjgDgAAcE95Ue1FxL/NC2BQ7yNiT9zOJuVF1casxxHxwiJGyUMwDM4ldwBm5raL2y8sFgAAgDEQuAMAADxAXlSnEfGzmQEM4iQ19b5Rsyl5UW13YfsrSxg9kTuDE7kDMCNlKrNzCwUAAGAsfrIJAACABznorloB0C9xOxuTF9XzvKgOI+IvcftkvGxD43Z3Sx8Ew+mu3O56fwDAxL0RtwMAADA2AncAAIAHSE19FRFHZgbQK3E7G5MXVftnr/19/7stTI7IncGJ3AGYuD9SmR1bIgAAAGOztVqtLAUAAOCB8qK66CIqANbrTWpqgQWDy4tqp3uIzcX26btsg+PU1DdLHwTDyc+u258h7fXbZ8YOwEScpDLzYDEAAACj5II7AADA4xyYG8DaidsZXHvtOy+qNmz/X3H7bLjkzuBccgdgYt6L2wEAABgzgTsAAMAjpKZurzO+NTuAtRG3M7i8qNqo5yoifjX92RG5MziROwAT0X7bzZ5lAQAAMGZbq9XKggAAAB6hC6baKO6Z+QE8WhsBHojbGVJeVNsRcexi+yK0AdduauqbpQ+C4eRn1zvtAxbeJwAwQu37r+1UZl4bAQAAMGouuAMAADxSF0r5OmeAx7vtwlNxO4PJi+owIv4Sty+GS+4MziV3AEbq0/svcTsAAAAT4II7AADAE+VFdRoRP5sjwIN8jtsvjI0h5EW1211tf2Hgi+SSO4NzyR2AkSlTmZ1bCgAAAFPggjsAAMDTHbjOCPAg4nYG017uzovqKCLOxO2L5pI7g3PJHYAReSNuBwAAYEoE7gAAAE+UmvoqIg7NEeBexO0MJi+qvYhof0//auqI3NkEkTsAI/BHKrNjiwAAAGBKtlarlYUBAACsQV5U7SWsV2YJcKfLiNjrHgyC3nQBcxvx/GzKfMNl96DNjeEwlPzseqd9wCIinhk6AAM6SWW2b+AAAABMjQvuAAAA63NglgB3+hyUitvp1RdX28Xt3MUldwbnkjsAG/BO3A4AAMBUueAOAACwRnlRHUbE72YK8DeuJdM7V9t5BD+bGJxL7gAM5NPrnDLzOgcAAIBJErgDAACsWV5UF91lUAAEpAygu9p+LBjlEfyMYnAidwB6Jm4HAABg8n6yQgAAgLXz9c8AnwhH6VV7tT0vqtOI+LdQlEdqH0o8774BAAaRyqx9IHY3Im5NHIA1a3+37IvbAQAAmDqBOwAAwJqlpm6DlbfmCiycuJ1edVfbryLiZ5PmiUTuDE7kDkAPbrvL7ReGCwAAwNRtrVYrSwQAAFizLpBqP1B8YbbAAonb6U33O/ZY2E4P/OxicPnZ9U77gIVvoQBgDX5JZXZqkAAAAMyBC+4AAAA96MKofbMFFuidQJS+5EW12z1AJm6nDy65MziX3AFYkzfidgAAAObEBXcAAIAe5UV1FBG/mjGwECepqT3cQy/8TmVALrkzOJfcAXiC31KZHRkgAAAAcyJwBwAA6FF3AbS9yvjCnIGZE7fTi7yo2ujzuLuuDUMRuTM4kTsAj3CSysz7MAAAAGbnJysFAADoTxdF+aARmDtxO73Ii+ogIv5X3M4GtH/mzruHFWEQqczaB2N3I+LWxAG4B3E7AAAAs+WCOwAAwADyomq/KvpXswZmSNzO2nVR8WlEvDJdNswldwbnkjsA93CZymzHoAAAAJgrF9wBAACGcRgRH8wamBlxO2uXF9VeRFyJ2xkJl9wZnEvuAPzAZfd7AgAAAGZL4A4AADCA7uqnCBSYE3E7a9d948m/XS1mZETuDE7kDsAdPn27TJn5dhkAAABmbWu1WtkwAADAQLpw71fzBiZO3M5a5UW1HRGnXUgMY/UpKPv04CIMIj+73mkfsPDgDwDdQ0+73UNQAAAAMGsuuAMAAAzrMCI+mDkwYeJ21iovqvbP04W4nQlwyZ3BueQOQEfcDgAAwKK44A4AADCwvKjaQOXM3IEJErezNl0k3H6zyWtTZWJccmdwLrkDLJq4HQAAgMVxwR0AAGBgqanbMOUPcwcmRtzO2uRF9TnUFLczRS65MziX3AEW7UDcDgAAwNK44A4AALAheVFddIEUwNiJ21mbvKj2u8vtrhAzdS65MziX3AEW500qs2NrBwAAYGlccAcAANgcsSgwBeJ21qK9dp0XVRvn/CnMZCZccmdwLrkDLIq4HQAAgMUSuAMAAGxIauo2TvnD/IERE7ezFnlRfb44/NpEmRmRO4MTuQMswom4HQAAgCXbWq1W/gAAAABsUF5UbfD3yg6AkRG3sxZ5Ue1FxLGr7czcZRscp6a+sWiGkp9df354yM9XgHlp43bvxQAAAFg0F9wBAAA2b9/1RWBkxO2sRV5URxHxb/ElC+CSO4NzyR1glsTtAAAALF644A4AADAOeVG1H17+aR3ACIjbebIu8j3vol9YEpfcGZxL7gCzcZnKbMc6AQAAwAV3AACAUUhNfRwR72wD2LB34naeKi+q9prwlbidhXLJncG55A4wC5fdz3IAAABYvBC4AwAAjMq+KAXYoMvu5xA8Wl5UBxFx5oowCydyZ3Aid4BJ+/QNMGXmG2AAAACgs7VarcwCAABgJLqrt2f2AQzsU1DR1IIKHqULeY8i4rUJwn/42crg8rPrnfYBCw8aAUzGh4jYEbcDAADA37ngDgAAMCKpqdsY5a2dAAMSYPIkeVF9jinF7fB3LrkzOJfcASal/Vm9J24HAACAf3LBHQAAYITyorrooiiAPonbeZK8qPYi4tilYPguP2sZnEvuAKN3+/H1wacHkwAAAICvuOAOAAAwTvuuLgI9E1zyJHlRHUbEv8WT8EMuuTM4l9wBRk3cDgAAAD/ggjsAAMBI5UV1EBH/Yz9AD8TtPFoX6R5FxGtThAfxs5fBueQOMEr/ErcDAADA9wncAQAARiwvqtOI+NmOgDUSWPJoeVFtR8Rpd5EaeDg/gxmcyB1gVN6kMju2EgAAAPi+n8wHAABg1Pa7r64GWIf258m+sJLHyItqNyIuxO3wJO3fn/PumxBgEN2V4F3vKwA2TtwOAAAA9yRwBwAAGLEuQt2zI2ANbrurwb4KnwfLi6p94OrM9V9YC5E7gxO5A2ycuB0AAAAeQOAOAAAwcqmpzyPirT0BTyBu59HyompDnD9NENZK5M7gRO4AGyNuBwAAgAfaWq1WZgYAADABeVFddDEUwEOI23mULrw9jYhXJgi9uex+Rt8YMUPJz6532gcsfCsHwCDepjI7MGoAAAB4GBfcAQAApmPPtUXggcTtPEpeVG38eCFuh9655M7gXHIHGMyJuB0AAAAeR+AOAAAwEampryJi376ABzgQt/NQeVHtdpd9XxgeDELkzuBE7gC9a+N2/z8cAAAAeCSBOwAAwISkpj5tPyS1M+Ae3qSmPjYoHiIvqjbCOYuIZwYHgxK5MziRO0BvxO0AAADwRAJ3AACA6Wm/3vrS3oDvELfzYHlRtX9m/jQ52BiRO4MTuQOsnbgdAAAA1mBrtVqZIwAAwMTkRbXTBlAu7ALfIG7nQbqYtv2GkFcmB6PQPsi4m5r6xjoYSn527f0FwNO9T2W2a44AAADwdC64AwAATFBq6ovukjvAl07E7TxEXlTbXdAobofxcMmdwbnkDvBk7QNqe8YIAAAA6+GCOwAAwITlRdWGrK/tEOjidl+Fz735NhAYPZfcGZxL7gCP8ul3dpn5nQ0AAABr4oI7AADAtB10H6QCyyZu50HyotoXMMLoueTO4FxyB3gwcTsAAAD0wAV3AACAiXOBFxbvfWrq3aUPgfvLi6p9OOp/jAwmwyV3BueSO8C9iNsBAACgJy64AwAATFxq6ovukjuwPG1QsWfv3FdeVMfidpgcl9wZnEvuAD8kbgcAAIAeueAOAAAwE120+No+YTFc9OXeujC2/T3xs6nBZPm5z+Bccgf4JnE7AAAA9EzgDgAAMCN5UV10Vz6BeWuvqW6LHLmPLm4/9/sBZkHkzuBE7gB/074X20lldmUsAAAA0J+fzBYAAGBW9roPW4H5uhU3cl95UbVRooefYD7av8vn3YMrMIhUZu3vkV3vMwC692LidgAAAOidwB0AAGBGUlO3H7Lu2ynM1ue4/cKK+ZEubm8v7r4wLJgVkTuDE7kD/Cdu914MAAAABiBwBwAAmJnU1KcR8Ye9wizti9u5j7yo2oed/jcinhkYzJLIncGJ3IEFE7cDAADAwLZWq5WZAwAAzFBeVO3V3ld2C7PxJjX1sXXyI13c/qdBwSJcdt/scWPdDCU/u/78DSEeogKWQNwOAAAAG+CCOwAAwHztua4Is/GbuJ37yIvqWNwOi+KSO4NzyR1YEHE7AAAAbIjAHQAAYKa6S5679guTd5Ka+sga+ZEubn9tULA4IncGJ3IHFkDcDgAAABu0tVqtzB8AAGDG8qLad80XJquN2/etj+/potbTiHhlULBolx9DvE8POcIg8rPrnfYBi4h4ZuLAjIjbAQAAYMNccAcAAJi51NTtRd8Te4bJaUPFA2vje7q4/VzcDrjkzia45A7MkLgdAAAARkDgDgAAsAwHXSwLTIMrvPxQXlSfr+a+NC2gI3JncCJ3YEbE7QAAADASW6vVyi4AAAAWIC+q7YhoP6R9Zt8wam1UsZOa+sqauMsXcbuf6cC3eFCKweVn1343AVMmbgcAAIARccEdAABgIbpYds++YdRuuyBR3M6dxO3APbjkzuBccgcmTNwOAAAAIyNwBwAAWJDU1G0Q+Zudw2jtpaYWVXCnvKj2xe3APYncGZzIHZggcTsAAACMkMAdAABgYVJTH0XEib3D6LzpHkKBb+ri9j/F7cADiNwZnMgdmJgDcTsAAACMj8AdAABgmQ4i4tLuYTT+SE19bB3c5Yu4HeChRO4MTuQOTMSbVGbehwEAAMAIba1WK3sBAABYoLyotiPiwiVg2LiT1NT71sBd8qJqv3njVwMCnqh9uHE3NfWNQTKU/Ox6p33AwnsOYITE7QAAADBiAncAAIAFy4uqDU7+158B2Jj3qal3jZ+75EXVRjevDQhYE5E7gxO5AyMkbgcAAICR+8mCAAAAlis1dXvB/Y0/ArARbWS4Z/TcRdwO9OBlGxrnRfXccBlKKrP2PUf7QN+toQMjIG4HAACACXDBHQAAABElDK8NvHZSU1+ZPV/rwtMjP5eBHrnkzuBccgdGQNwOAAAAEyFwBwAA4KO8qC66q55Av267qPDCnPlaF7ef+3kMDEDkzuBE7sAGidsBgP/P3v0jx23lex8+nA3wvlXKxRSReTNkplZg3hWovYJLh4hMRQhHXoGlFYy8AlIZslFHCC3lrBp6BXgLurBKfyn+AQ7OwXmeKtekzR9aNqf06W8DABn5h4cFAADA5CSE8M4xYHFn4na+RtwORDb+u+Zy+ncPRNE/efRm+v8df7k4EJG4HQAAADIjcAcAAOC9ab3zVGwCi/ql71phBV8QtwMrEbkTncgdiEzcDgAAABkSuAMAAPDBtCq9cxFYxMu+a587LZ8TtwMrE7kTncgdiETcDgAAAJkSuAMAAPCJvmtfjSvTrgKzet13rQ+P8IWqbo5DCG/F7cDKRO5EJ3IHFiZuBwAAgIwJ3AEAAPjCtDL90mVgFvsQwqlT8rkpbh+X2w8dB0iAyJ3oRO7AQsTtAAAAkLmDYRg8QwAAAL6qqps3VoXhQcZY66Tv2jfOyMfE7UDC9tN/u649JGKpLq78dxGYi7gdAAAANsCCOwAAADcZ1xTfuRDc26m4nc+J24HEWXInOkvuwEzE7QAAALARAncAAAC+aVruPBWawL383HftpdPxMXE7kAmRO9GJ3IEHErcDAADAhgjcAQAAuNG0Pn3qSnAnL/uuFVfwCXE7kBmRO9GJ3IF7ErcDAADAxgjcAQAA+K5phfpnl4Jbed137c6p+FhVNyfidiBDIneiE7kDdyRuBwAAgA0SuAMAAHAr0xr1b64FN9r7xgM+V9XN+IGHC3E7kCmRO9GJ3IFbErcDAADARh0Mw+DZAgAAcGtV3Yx/efzUxeALY4B10nftG6fhb1Pc/ruDABuwn/47d+1hEkt1cXXsG1CAbxC3AwAAwIZZcAcAAOCuzqbACfjUqbidj4nbgY2x5E50ltyBbxC3AwAAwMYJ3AEAALiTabVzjEzeuRx88EvftZfOwd/E7cBGidyJTuQOfEbcDgAAAAUQuAMAAHBnU+R+KjKB9172XfvcKfibuB3YOJE70YncgYm4HQAAAApxMAyDZw0AAMC9VHVzHEL4t+tRsH3ftcfeAPxN3A4UZD8Gx9MHHyGK6uJq/L1r/NacQxeH4ojbAQAAoCAW3AEAALi3vmvHJcWfXZBC/TUticJ74nagMJbcic6SOxRL3A4AAACFEbgDAADwIH3Xjn/J/IsrUiCrtXwgbgcKJXInOpE7FEfcDgAAAAUSuAMAAPBgfdc+DyG8dEkK8vP0DQYgbgdKJ3InOpE7FEPcDgAAAIU6GIbBswcAAGAWVd28CiH85Jps3Mu+a3ceMkHcDvCxvW83Ibbq4up4/IBFCOHQ8WFzxO0AAABQMAvuAAAAzGk3xU2wVXtxO38TtwN8wpI70Vlyh80StwMAAEDhBO4AAADMZlrsPBG5s1F/Te9vELcDfJ3InehE7rA54nYAAABA4A4AAMC8psh9JzBhg06m9zeFE7cD3EjkTnQid9gMcTsAAADwnsAdAACA2fVdKzBha36Z3tcUTtwOcCsid6ITuUP2xO0AAADABwfDMLgGAAAAi6jqZgxMLlyXzL3su3bnISJuB7izvW9AIbbq4up4/IBFCOHQ8SEb4nYAAADgExbcAQAAWEzftWNY8rMLk7ExzDvzABG3A9yLJXeis+QO2RG3AwAAAF+w4A4AAMDihKFkaoyijvuufesBls2/wwAezJI70VlyhyyI2wEAAICvsuAOAADA4vquHf/C+jeXJjM7cTtV3RyL2wEezJI70Vlyh+SJ2wEAAIBvErgDAAAQRd+1ZyGEl65NJp71XfvKwyrbFLdfln4HgJmI3IlO5A7JErcDAAAANzoYhsGFAAAAiKaqm/EvsZ+6OAl73XftiQdUto/i9sPSbwEws/0YHPdde+2wxFJdXPnvOqRD3A4AAAB8lwV3AAAAouq7djeFTZCicd3z1JMpm7gdYFGW3InOkjskQ9wOAAAA3IrAHQAAgDWciNxJlEXZwonbAaIQuROdyB1WJ24HAAAAbk3gDgAAQHRTQCxyJzW/9F37xlMpl7gdICqRO9GJ3GE14nYAAADgTg6GYXAxAAAAVjEFTWNk8tgTYGV/9F176iGUS9wOsJq9b1Ahturiyn/3IR5xOwAAAHBnFtwBAABYzRQynVpQZGXvQgg7D6Fc04dtXojcAFZhyZ3oLLlDNOJ2AAAA4F4E7gAAAKyq71pxCWs7tRpbrimovJwCSwDWIXInOpE7LE7cDgAAANybwB0AAIDVidxZ0S/T+48CidsBkiJyJzqROyxG3A4AAAA8yMEwDC4IAABAEqq6OZ5i00NPhAj+6Lv21KHLJG4HSNZ+DI59uwoxVRdX/n8IzEfcDgAAADyYBXcAAACSMS1p7zwRInjnvVY8cTtAmiy5E50ld5iNuB0AAACYhcAdAACApPRd+2r8S3FPhYWdWoYtV1U3L8TtAEkTuROdyB0eTNwOAAAAzEbgDgAAQHL6rn0hcmdBz6ZvC6BAU9z+1LMHSJ7InehE7nBv4nYAAABgVgfDMLgoAAAASarqZhdC+N3TYUav+649cdAyidsBsrQfg2PfvEJM1cXV8fgBixDCocPDd4nbAQAAgNlZcAcAACBZltyZ2bjEeeqoZarq5lzcDpAlS+5EZ8kdbk3cDgAAACxC4A4AAEDSRO7MaGf9tUzTt0H8WvodADImcic6kTt8l7gdAAAAWIzAHQAAgOSJ3JnBb33XvnLI8kxx+++l3wFgA0TuRCdyh28StwMAAACLOhiGwYUBAADIQlU3ZyGEf3pa3NG+79pjRytPVTdjkHZR+h0ANmY/Bse+lYWYqour8XfJyxDCocODuB0AAABYngV3AAAAstF37fMQwktPjDsY1zZ3Dlaeqm7GEM1qP8D2WHInOkvu8IG4HQAAAIhC4A4AAEBW+q7didy5g/O+a984WFmmuN3KKsB2idyJTuQO4nYAAAAgnoNhGJwbAACA7FR1M/7F+lNPjhv80XftqQOVZYod34rbAYqwH4PjvmuvPW5iqS6ufJCOEonbAQAAgKgsuAMAAJAlS+58x7isuXOkskxxu+AMoByW3InOkjsFErcDAAAA0QncAQAAyJbInRvsrLmW5aO4/YfSbwFQGJE70YncKYi4HQAAAFiFwB0AAICsidz5it/6rn3lMMV5Lm4HKJbInehE7hRA3A4AAACsRuAOAABA9kTufORdCOHcQcpS1c0Y3jwt/Q4AhRO5E53InQ0TtwMAAACrErgDAACwCSJ3Jqd91147RjmqujkXtwMwEbkTncidDRK3AwAAAKsTuAMAALAZIvfiPeu79k3pRyhJVTfjn/lfS78DAJ8QuROdyJ0NEbcDAAAASTgYhsGTAAAAYFOqunlh0bk4+75rj0s/QkmqujkNIfyr9DsA8E37MTj2zS7EVF1cjb+PXoYQDh2eDInbAQAAgGRYcAcAAGBzLLkXZ1zK3JV+hJJUdTPGY+IbAG5iyZ3oLLmTMXE7AAAAkBSBOwAAAJskci/Ked+1b0o/QimqujmyjArALYnciU7kTobE7QAAAEByDoZh8FQAAADYrKpuxr+of+oJb9brvmtPSj9CKaZA8XIKFgHgtvZjcNx37bWLEUt1cXXsQ3lkQNwOAAAAJMmCOwAAAJtmyX3TxlXMXelHKIy4HYD7sOROdJbcyYC4HQAAAEiWwB0AAIDNE7lv1nnftW9LP0Ippm9jELcDcF8id6ITuZMwcTsAAACQtINhGDwhAAAAijAFsk897U143XftSelHKEVVN+chhF9LvwMAs9iPwXHftdfOSSzVxdXx9E00h45OAsTtAAAAQPIsuAMAAFAMS+6bMS5g7ko/QimqutmJ2wGYkSV3orPkTkLE7QAAAEAWBO4AAAAUReS+Ced9174t/QglqOpmDMF+L/0OAMxO5E50IncSIG4HAAAAsnEwDIOnBQAAQHGquhn/Yv+pJ5+d133XnpR+hBJUdXM8xochhMPSbwHAYvZjcNx37bUTE0t1ceV3HNYgbgcAAACyYsEdAACAIllyz9K4drkr/QglmBZ1Xwm/AFiYJXeis+TOCsTtAAAAQHYE7gAAABRL5J6d875r35Z+hEKMq6aPSz8CAFGI3IlO5E5E4nYAAAAgSwfDMHhyAE2Z1ssAACAASURBVAAAFK2qm/Ev/J+WfofE7fuuPS79CCXw5xGAlezH4Ljv2msPgFiqi6vj6YN9vrWGJYjbAQAAgGxZcAcAAKB4ltyzsCv9ACWo6uZc3A7ASiy5E50ldxYkbgcAAACyJnAHAAAAkXvqnvVd+6b0I2xdVTfjn8FfS78DAKsSuROdyJ0FiNsBAACA7B0Mw+ApAgAAwKSqmxcWpJPyru/ao9KPsHVV3RyPQWEI4bD0WwCQhP0YHPdde+1xEEt1ceX3IeYgbgcAAAA2wYI7AAAAfMSSe3J2pR9g66aVXDEXACmx5E50ltyZgbgdAAAA2AyBOwAAAHxG5J6M3/quvSz9CFsmbgcgYSJ3ohO58wDidgAAAGBTBO4AAADwFSL31Y1Rz3nhNyjB8ykgBIAUidyJTuTOPYjbAQAAgM0RuAMAAMA3iNxXteu79rrgn3/zqro5CyE8Lf0OACRP5E50InfuQNwOAAAAbNLBMAyeLAAAANygqpsXQtyoXvdde1LQz1ucqm5OQwj/Kv0OAGRlPwbHPoBHTNXF1fH4AYsQwqHD8xXidgAAAGCzLLgDAADAd1hyj25X2M9blKpuxlBLiANAbiy5E50ld24gbgcAAAA2TeAOAAAAtyByj+ZZ37VvC/lZizNFgS+skAKQKZE70Ync+QpxOwAAALB5AncAAAC4JZH74t71XXu+8Z+xdK+mOBAAciVyJzqROx8RtwMAAABFELgDAADAHYjcF7Xb8M9WvKpunocQfiz9DgBsgsid6ETuiNsBAACAkgjcAQAA4I5E7ov4o+/ayw3+XPxf3D7+mflftwBgQ0TuRCdyL5q4HQAAACiKwB0AAADuQeQ+qzHQOdvQz8NHqro5DiE8dxMANkjkTnQi9yKJ2wEAAIDiCNwBAADgnkTus3ned+3bjfwsfGQK/l6FEA7dBYCNErkTnci9KOJ2AAAAoEgCdwAAAHgAkfuDveu79jzzn4FvG+P2x+4DwMaJ3IlO5F4EcTsAAABQLIE7AAAAPJDI/UF2Gb92blDVzfjBhR/dCIBCiNyJTuS+aeJ2AAAAoGgHwzCUfgMAAACYRVU3Y4Dw1DVv7Y++a08zea3cQVU343P9l5sBUKD9GBz3XXvt4RNLdXF1PH7AIoRw6OibIG4HAAAAimfBHQAAAGZiyf3OzjJ7vdxCVTdHIQRBDgClsuROdJbcN0XcDgAAABQvCNwBAABgXiL3W3vWd+3bTF4rtzTFfK+shwJQOJE70YncN0HcDgAAADARuAMAAMDMRO7f9S6E8Dzx18j9PJ+iPgAoncid6ETuWRO3AwAAAHxE4A4AAAALELnf6Lzv2uuEXx/3UNXN+J5/6nYA8IHInehE7lkStwMAAAB85mAYBjcBAACAhVR180L0+4nXfdeeJPR6mEFVN8chhH+7JQB81X4Mjn3Aj5iqi6vx97PLEMKhwydN3A4AAADwFRbcAQAAYEGW3L9wntjr4YGmVdpX7ggA32TJnegsuWdB3A4AAADwDQJ3AAAAWJjI/YOXfddeJvJamM8Y5Tx2TwC4kcid6ETuSRO3AwAAANxA4A4AAAARiNzfs96+MVXdnIUQfir9DgBwSyJ3ohO5J0ncDgAAAPAdAncAAACIpPDI/VnftW8TeB3MpKqb4xDCP90TAO5E5E50IvekiNsBAAAAbkHgDgAAABEVGrmPIc3zBF4HM5mivFfuCQD3InInOpF7EsTtAAAAALckcAcAAIDICozcz/uuvU7gdTCfMcx57J4AcG8id6ITua9K3A4AAABwBwfDMLgXAAAArKCqmzFweLrx27/ru/YogdfBTKq6OQsh/NM9AWAW+zE49mFAYqouro7HD1iEEA4dPgpxOwAAAMAdWXAHAACAlRSy5H6ewGtgJlXdHIvbAWBWltyJzpJ7VOJ2AAAAgHuw4A4AAAAr2/CS+77v2uMEXgczmMK7MYZ67J4AMDtL7kRnyX1x4nYAAACAe7LgDgAAACvb8JL7WQKvgfk8F7cDwGIsuROdJfdFidsBAAAAHkDgDgAAAAnYYOT+uu/aywReBzOo6ma30W8ZAICUiNyJTuS+CHE7AAAAwAMJ3AEAACARG4vczxN4Dcygqpujab0dAFieyJ3oRO6zErcDAAAAzEDgDgAAAAnZSOT+h/X2TXkVQjgs/QgAEJHInehE7rMQtwMAAADMROAOAAAAidlA5H6WwGtgBlXdnE+RHQAQl8id6ETuDyJuBwAAAJiRwB0AAAASlHHk/rLv2rcJvA4eqKqbMW761R0BYDUid6ITud+LuB0AAABgZgJ3AAAASFSmkft5Aq+BB5pCOpEOAKxP5E50Ivc7EbcDAAAALEDgDgAAAAnLLHK33r4dY6TzuPQjAEAiRO5EJ3K/FXE7AAAAwEIE7gAAAJC4jCJ36+0bUNXNaQjhp9LvAACJEbkTncj9RuJ2AAAAgAUJ3AEAACADGUTu1ts3oKqbo2m9HQBIj8id6ETuXyVuBwAAAFiYwB0AAAAykXjkbr19G8ZQ57D0IwBAwkTuRCdy/4S4HQAAACACgTsAAABkJNHI3Xr7BlR1cxZC+LH0OwBABkTuRCdyf0/cDgAAABCJwB0AAAAyk2Dkbr09c1XdHHmOAJAVkTvRFR65i9sBAAAAIhK4AwAAQIYSitytt2/DGOscln4EAMiMyJ3oCo3cxe0AAAAAkQncAQAAIFOJRO5WvzNX1c34DH8s/Q4AkCmRO9EVFrmL2wEAAABWcDAMg7sDAABAxqq6GYOLpyv8BC+nyJ5MVXVzHEL4t+cHANnbj8Fx37XXHiWxVBdX4++Slxv+JiBxOwAAAMBKLLgDAABA5lZccn/uvZM9wQ4AbIMld6Lb+JK7uB0AAABgRQJ3AAAA2IAVIvfXfde+8d7JV1U351MMBwBsg8id6DYYuY8/x/+I2wEAAADWJXAHAACAjYgcuZ973+SrqpvjEMKvpd8BADZI5E50U+Q+/n65z/z6Y9x+0j959CqB1wIAAABQNIE7AAAAbEikyH1cb7/0vsna89IPAAAbJnInuv7Jo7fTkvsfmV7/dQjhaIr1AQAAAFiZwB0AAAA2JkLk7uv6M1bVzVkI4cfS7wAAGydyJ7r+yaPr/smj0xDCL9Maei6e9U8ejcvt1941AAAAAGk4GIbBowAAAIANqupmDNGfzvyTveu79sj7JU9V3YzPblylPCz9FgBQiP24qt13rXCXqKqLq6Ppg7Epf7By/POxs9oOAAAAkB4L7gAAALBRCy25n3u/ZO2FuB0AimLJnVX0Tx69HVfRQwj/M35INrGnMK7L/9w/eXQsbgcAAABIkwV3AAAA2LgZl9z/6rtWHJWpqm7GDzz8XvodAKBQltxZVXVxtZs+LPt4xdcxhu3Px3/6J4/8WQAAAABImMAdAAAACjBT5P6s71oL7hmaVlvfWm8HgKKJ3FlddXF1GkI4CyH8GPG17Keo/YV3AAAAAEAeBO4AAABQiBki9/8niMpTVTevQgg/lX4HAEDkThqqi6ujEMIYu4/L7j8s8KLG9/r4O/CL/smjtx47AAAAQF4E7gAAAFCQB0TuL/uu3Xmv5Keqm5MQwkXpdwAAPhC5k5Tq4mr8tqHxd9bjj/73Lt889FcI4c1H/1yK2gEAAADyJnAHAACAwtwzcv/vvmvfeK/kpaqb/5pCn8el3wIA+ITIneRVF1cnn73GcfX9k3C9f/Lo0pMEAAAA2B6BOwAAABTojpH7675rP49LyEBVN+chhF89KwDgK0TuAAAAAECS/uGxAAAAQHn6rt2FEF7e4gcfv+7/zFskP1XdHInbAYAb/BBCuJy+8QUAAAAAIBkCdwAAACjUFLk/u+Gn/2ta9XzjPZKlF6UfAAD4LpE7AAAAAJCcg2EYPBUAAAAo2LT0Pa60H390hVdjIN137bX3Rn6quhk/vPB76XcAAG5tP32w0e9+AAAAAMDqBO4AAAAAGzItsL4NIRx6rgDAHYjcAQAAAIAk/MNjAAAAANiUc3E7AHAPP4QQLqcPywEAAAAArMaCOwAAAMBGVHVzFEL40/MEAB7AkjsAAAAAsCoL7gAAAADb8cKzBAAeyJI7AAAAALAqgTsAAADABlR1cxpC+NGzBABmIHIHAAAAAFZzMAyD6wMAAABkbIrP3oQQHnuOAMCM9iGEk75rrx0VAAAAAIjFgjsAAABA/s7E7QDAAiy5AwAAAADRWXAHAAAAyFhVN0fTevuh5wgALMSSOwAAAAAQjQV3AAAAgLydi9sBgIVZcgcAAAAAorHgDgAAAJCpqm6OQwj/9vwAgEgsuQMAAAAAi7PgDgAAAJCv554dABCRJXcAAAAAYHECdwAAAIAMVXVzGkL40bMDACITuQMAAAAAixK4AwAAAOTJejsAsBaROwAAAACwGIE7AAAAQGaqutmFEB57bgDAikTuAAAAAMAiDoZhcFkAAACATEwR2dsQwqFnBgAkYB9COOm79trDAAAAAADmYMEdAAAAIC9n4nYAICGW3AEAAACAWVlwBwAAAMiE9XYAIGGW3AEAAACAWVhwBwAAAMiH9XYAIFWW3AEAAACAWVhwBwAAAMhAVTdHIYQ3AncAIHGW3AEAAACAB7HgDgAAAJCHc3E7AJABS+4AAAAAwINYcAcAAABI3LTe/qfnBABkxJI7AAAAAHAvFtwBAAAA0nfuGQEAmbHkDgAAAADciwV3AAAAgIRZbwcAMmfJHQAAAAC4EwvuAAAAAGmz3g4A5MySOwAAAABwJxbcAQAAABJlvR0A2BBL7gAAAADArVhwBwAAAEiX9XYAYCssuQMAAAAAt2LBHQAAACBB1tsBgI2y5A4AAAAA3MiCOwAAAECazjwXAGCDLLkDAAAAADey4A4AAACQmCn4ehtCOPRsAICNsuQOAAAAAHyVBXcAAACA9JyJ2wGAjbPkDgAAAAB8lQV3AAAAgIRYbwcACmPJHQAAAAD4hAV3AAAAgLScitsBgIJYcgcAAAAAPiFwBwAAAEjLuecBABRG5A4AAAAAfCBwBwAAAEhEVTe7EMJjzwMAKJDIHQAAAAB4T+AOAAAAkI6dZwEAFEzkDgAAAAAI3AEAAABSUNXNSQjhRw8DACicyB0AAAAACidwBwAAAEiD9XYAgP8jcgcAAACAgh0Mw+D5AwAAAKyoqpujEMKfngEAwCf2IYSTvmuvnQUAAAAAymHBHQAAAGB91tsBAL5kyR0AAAAACiRwBwAAAFifwB0A4OtE7gAAAABQGIE7AAAAwIqqujkNITz2DAAAvknkDgAAAAAFEbgDAAAArOvM/QEAvkvkDgAAAACFOBiGwbMGAAAAWEFVN0chhD/dHgDg1vYhhJO+a6+dDAAAAAC2yYI7AAAAwHqstwMA3I0ldwAAAADYOIE7AAAAwHpO3R4A4M5E7gAAAACwYQJ3AAAAgBVUdTPG7Y/dHgDgXkTuAAAAALBRAncAAACAdVhvBwB4GJE7AAAAAGzQwTAMnisAAABARFOE9R83BwCYxT6EcNJ37bVzAgAAAED+LLgDAAAAxGe9HQBgPpbcAQAAAGBDBO4AAAAA8Z25OQDArETuAAAAALARB8MweJYAAAAAkVR1cxRC+NO9AQAWsQ8hnPRde+28AAAAAJAnC+4AAAAAcZ26NwDAYiy5AwAAAEDmBO4AAAAAce3cGwBgUSJ3AAAAAMjYwTAMnh8AAABABFXdHIUQ/nRrAIAo9iGEk75rr50bAAAAAPJhwR0AAAAgnlO3BgCIxpI7AAAAAGRI4A4AAAAQz86tAQCiErkDAAAAQGYOhmHwzAAAAAAWVtXNUQjhT3cGAFjFPoRw0nfttfMDAAAAQNosuAMAAADEceLOAACrseQOAAAAAJkQuAMAAADEcerOAACrErkDAAAAQAYE7gAAAABx/OTOAACrE7kDAAAAQOIE7gAAAAALq+rGejsAQDpE7gAAAACQMIE7AAAAwPJO3BgAICkidwAAAABIlMAdAAAAYHkCdwCA9IjcAQAAACBBB8MweC4AAAAAC5mCqf+4LwBAsvbjBxL7rr32iAAAAABgfRbcAQAAAJZlvR0AIG2W3AEAAAAgIQJ3AAAAgGUJ3AEA0idyBwAAAIBECNwBAAAAliVwBwDIg8gdAAAAABJwMAyD5wAAAACwgCmO+o/bAgBkZT9+SLHv2muPDQAAAADis+AOAAAAsJxjtwUAyI4ldwAAAABYkcAdAAAAYDknbgsAkCWROwAAAACsROAOAAAAsBwL7gAA+RK5AwAAAMAKBO4AAAAAyxG4AwDkTeQOAAAAAJEdDMPg5gAAAAAzmyKo/7grAMAm7EMIJ33XXnucAAAAALAsC+4AAAAAy7DeDgCwHZbcAQAAACASgTsAAADAMgTuAADbInIHAAAAgAgE7gAAAADLED4BAGyPyB0AAAAAFiZwBwAAAFjGibsCAGySyB0AAAAAFiRwBwAAAFiG4AkAYLtE7gAAAACwEIE7AAAAwDJ+cFcAgE0TuQMAAADAAgTuAAAAAAAAcD8idwAAAACYmcAdAAAAAAAA7k/kDgAAAAAzErgDAAAAAADAw4jcAQAAAGAmAncAAACAZbxzVwCAoojcAQAAAGAGAncAAACAZVy6KwBAcUTuAAAAAPBAAncAAACAZbxwVwCAIoncAQAAAOABDoZhcD8AAACABVR182YKnAAAKM8+hHDSd+21Zw8AAAAAt2fBHQAAAGA5Z24LAFAsS+4AAAAAcA8CdwAAAICF9F17GUJ45r4AAMUSuQMAAADAHR0Mw+BmAAAAAAuq6uZFCOGpGwMAFGsfQjjpu/baWwAAAAAAbmbBHQAAAGBhfdfuQggv3RkAoFiW3AEAAADglgTuAAAAABGI3AEAiidyBwAAAIBbELgDAAAARCJyBwAonsgdAAAAAL5D4A4AAAAQkcgdAKB4IncAAAAAuIHAHQAAACAykTsAQPFE7gAAAADwDQJ3AAAAgBWI3AEAiidyBwAAAICvELgDAAAArETkDgBQPJE7AAAAAHxG4A4AAACwIpE7AEDxRO4AAAAA8BGBOwAAAMDKRO4AAMUTuQMAAADAROAOAAAAkACROwBA8UTuAAAAABQvCNwBAAAA0iFyBwAonsgdAAAAgOIJ3AEAAAASInIHACieyB0AAACAogncAQAAABIjcgcAKJ7IHQAAAIBiCdwBAAAAEiRyBwAonsgdAAAAgCIJ3AEAAAASJXIHACieyB0AAACA4gjcAQAAABImcgcAKJ7IHQAAAICiCNwBAAAAEidyBwAonsgdAAAAgGII3AEAAAAyIHIHACieyB0AAACAIgjcAQAAADIhcgcAKJ7IHQAAAIDNE7gDAAAAZETkDgBQPJE7AAAAAJsmcAcAAADIjMgdAKB4IncAAAAANkvgDgAAAJAhkTsAQPFE7gAAAABsksAdAAAAIFMidwCA4oncAQAAANgcgTsAAABAxkTuAADFE7kDAAAAsCkCdwAAAIDMidwBAIoncgcAAABgMwTuAAAAABsgcgcAKJ7IHQAAAIBNELgDAAAAbITIHQCgeCJ3AAAAALIncAcAAADYEJE7AEDxRO4AAAAAZE3gDgAAALAxIncAgOKJ3AEAAADIlsAdAAAAYINE7gAAxRO5AwAAAJAlgTsAAADARoncAQCKJ3IHAAAAIDsCdwAAAIANE7kDABRP5A4AAABAVgTuAAAAABsncgcAKJ7IHQAAAIBsCNwBAAAACiByBwAonsgdAAAAgCwI3AEAAAAKIXIHACieyB0AAACA5AncAQAAAAoicgcAKJ7IHQAAAICkCdwBAAAACiNyBwAonsgdAAAAgGQJ3AEAAAAKJHIHACieyB0AAACAJAncAQAAAAolcgcAKJ7IHQAAAIDkCNwBAAAACiZyBwAonsgdAAAAgKQI3AEAAAAKJ3IHACieyB0AAACAZAjcAQAAABC5AwAgcgcAAAAgCQJ3AAAAAN4TuQMAFE/kDgAAAMDqBO4AAAAAfCByBwAonsgdAAAAgFUJ3AEAAAD4hMgdAKB4IncAAAAAViNwBwAAAOALIncAgOKJ3AEAAABYhcAdAAAAgK8SuQMAFE/kDgAAAEB0AncAAAAAvknkDgBQPJE7AAAAAFEJ3AEAAAC4kcgdAKB4IncAAAAAohG4AwAAAPBdIncAgOKJ3AEAAACIQuAOAAAAwK2I3AEAiidyBwAAAGBxAncAAAAAbk3kDgBQPJE7AAAAAIsSuAMAAABwJyJ3AIDiidwBAAAAWIzAHQAAAIA7E7kDABRP5A4AAADAIgTuAAAAANyLyB0AoHgidwAAAABmJ3AHAAAA4N5E7gAAxRO5AwAAADArgTsAAAAADyJyBwAonsgdAAAAgNkI3AEAAAB4MJE7AEDxRO4AAAAAzELgDgAAAMAsRO4AAMUTuQMAAADwYAJ3AAAAAGYjcgcAKJ7IHQAAAIAHEbgDAAAAMCuROwBA8UTuAAAAANybwB0AAACA2YncAQCKJ3IHAAAA4F4E7gAAAAAsQuQOAFA8kTsAAAAAdyZwBwAAAGAxIncAgOKJ3AEAAAC4E4E7AAAAAIsSuQMAFE/kDgAAAMCtCdwBAAAAWJzIHQCgeCJ3AAAAAG5F4A4AAABAFCJ3AIDiidwBAAAA+C6BOwAAAADRiNwBAIoncgcAAADgRgJ3AAAAAKISuQMAFE/kDgAAAMA3CdwBAAAAiE7kDgBQPJE7AAAAAF8lcAcAAABgFSJ3AIDiidwBAAAA+ILAHQAAAIDViNwBAIoncgcAAADgEwJ3AAAAAFYlcgcAKJ7IHQAAAIAPBO4AAAAArE7kDgBQPJE7AAAAAO8J3AEAAABIgsgdAKB4IncAAAAABO4AAPx/du7euo0lzeNwYROYzWDkwhquB28VgjIAJwNeE56u1a6UAZSBlAGv1yZptUtlQEbQe6jh3qMPisRHd3VVvc8TAc5bMH/9BwAoh8gdACA8kTsAAABAcAJ3AAAAAIoicgcACE/kDgAAABCYwB0AAACA4ojcAQDCE7kDAAAABCVwBwAAAKBIIncAgPBE7gAAAAABCdwBAAAAKJbIHQAgPJE7AAAAQDACdwAAAACKJnIHAAhP5A4AAAAQiMAdAAAAgOKJ3AEAwhO5AwAAAAQhcAcAAACgCiJ3AIDwRO4AAAAAAQjcAQAAAKiGyB0AIDyROwAAAEDjBO4AAAAAVEXkDgAQnsgdAAAAoGECdwAAAACqI3IHAAhP5A4AAADQKIE7AAAAAFUSuQMAhCdyBwAAAGiQwB0AAACAaoncAQDCE7kDAAAANEbgDgAAAEDVRO4AAOGJ3AEAAAAaInAHAAAAoHoidwCA8ETuAAAAAI0QuAMAAADQBJE7AEB4IncAAACABgjcAQAAAGiGyB0AIDyROwAAAEDlBO4AAAAANEXkDgAQnsgdAAAAoGICdwAAAACaI3IHAAhP5A4AAABQKYE7AAAAAE0SuQMAhCdyBwAAAKiQwB0AAACAZoncAQDCE7kDAAAAVEbgDgAAAEDTRO4AAOGJ3AEAAAAqInAHAAAAoHkidwCA8ETuAAAAAJUQuAMAAAAQgsgdACA8kTsAAABABQTuAAAAAIQhcgcACE/kDgAAAFA4gTsAAAAAoYjcAQDCE7kDAAAAFEzgDgAAAEA4IncAgPBE7gAAAACFErgDAAAAEJLIHQAgPJE7AAAAQIEE7gAAAACEJXIHAAhP5A4AAABQGIE7AAAAAKGJ3AEAwhO5AwAAABRE4A4AAABAeCJ3AIDwRO4AAAAAhRC4AwAAAIDIHQAAkTsAAABAEQTuAAAAAPBE5A4AEJ7IHQAAAGBhAncAAAAA+I7IHQAgPJE7AAAAwIIE7gAAAADwE5E7AEB4IncAAACAhQjcAQAAAOAZIncAgPBE7gAAAAALELgDAAAAwG+I3AEAwhO5AwAAAGQmcAcAAACAF4jcAQDCE7kDAAAAZCRwBwAAAIBXiNwBAMITuQMAAABkInAHAAAAgAOI3AEAwhO5AwAAAGQgcAcAAACAA4ncAQDCE7kDAAAAzEzgDgAAAABHELkDAIQncgcAAACYkcAdAAAAAI4kcgcACE/kDgAAADATgTsAAAAAnEDkDgAQnsgdAAAAYAYCdwAAAAA4kcgdACA8kTsAAADAxATuAAAAAHAGkTsAQHgidwAAAIAJCdwBAAAA4EwidwCA8ETuAAAAABMRuAMAAADABETuAADhidwBAAAAJiBwBwAAAICJiNwBAMITuQMAAACcSeAOAAAAABMSuQMAhCdyBwAAADiDwB0AAAAAJiZyBwAIT+QOAAAAcCKBOwAAAADMQOQOABCeyB0AAADgBAJ3AAAAAJiJyB0AIDyROwAAAMCRBO4AAAAAMCOROwBAeCJ3AAAAgCMI3AEAAABgZiJ3AIDwRO4AAAAABxK4AwAAAEAGIncAgPBE7gAAAAAHELgDAAAAQCYidwCA8ETuAAAAAK8QuAMAAABARiJ3AIDwRO4AAAAALxC4AwAAAEBmIncAgPBE7gAAAAC/IXAHAAAAgAWI3AEAwhO5AwAAADxD4A4AAAAACxG5AwCEJ3IHAAAA+InAHQAAAAAWJHIHAAhP5A4AAADwHYE7AAAAACxM5A4AEJ7IHQAAAOCJwB0AAAAACiByBwAIT+QOAAAAhJcE7gAAAABQDpE7AEB4IncAAAAgPIE7AAAAABRE5A4AEJ7IHQAAAAhN4A4AAAAAhRG5AwCEJ3IHAAAAwhK4AwAAAECBRO4AAOGJ3AEAAICQBO4AAAAAUCiROwBAeCJ3AAAAIByBOwAAAAAUTOQOABCeyB0AAAAIReAOAAAAAIUTuQMAhCdyBwAAAMIQuAMAAABABUTuAADhidwBAACAEATuAAAAAFAJkTsAQHgidwAAAKB5AncAAAAAqIjIHQAgPJE7AAAA0DSBOwAAAABURuQOABCeyB0AAABolsAdAAAAACokcgcACE/kDgAAADRJ4A4APqkAYAAAIABJREFUAAAAlRK5AwCEJ3IHAAAAmiNwBwAAAICKidwBAMITuQMAAABNEbgDAAAAQOVE7gAA4YncAQAAgGYI3AEAAACgASJ3AIDwRO4AAABAEwTuAAAAANAIkTsAQHgidwAAAKB6AncAAAAAaIjIHQAgPJE7AAAAUDWBOwAAAAA0RuQOABCeyB0AAAColsAdAAAAABokcgcACE/kDgAAAFRJ4A4AAAAAjRK5AwCEJ3IHAAAAqiNwBwAAAICGidwBAMITuQMAAABVEbgDAAAAQONE7gAA4YncAQAAgGoI3AEAAAAgAJE7AEB4IncAAACgCgJ3AAAAAAhC5A4AEJ7IHQAAACiewB0AAAAAAhG5AwCEJ3IHAAAAiiZwBwAAAIBgRO4AAOGJ3AEAAIBiCdwBAAAAICCROwBAeCJ3AAAAoEgCdwAAAAAISuQOABCeyB0AAAAojsAdAAAAAAITuQMAhCdyBwAAAIoicAcAAACA4ETuAADhidwBAACAYgjcAQAAAACROwAAIncAAACgCAJ3AAAAAOAbkTsAQHgidwAAAGBxAncAAAAA4G8idwCA8ETuAAAAwKIE7gAAAADAD0TuAADhidwBAACAxQjcAQAAAIBfiNwBAMITuQMAAACLELgDAAAAAM8SuQMAhCdyBwAAALITuAMAAAAAvyVyBwAIT+QOAAAAZCVwBwAAAABeJHIHAAhP5A4AAABkI3AHAAAAAF4lcgcACE/kDgAAAGQhcAcAAAAADiJyBwAIT+QOAAAAzE7gDgAAAAAcTOQOABCeyB0AAACYlcAdAAAAADiKyB0AIDyROwAAADAbgTsAAAAAcDSROwBAeCJ3AAAAYBYCdwAAAADgJCJ3AIDwRO4AAADA5ATuAAAAAMDJRO4AAOGJ3AEAAIBJCdwBAAAAgLOI3AEAwhO5AwAAAJMRuAMAAAAAZxO5AwCEJ3IHAAAAJiFwBwAAAAAmIXIHAAhP5A4AAACcTeAOAAAAAExG5A4AEJ7IHQAAADiLwB0AAAAAmJTIHQAgPJE7AAAAcDKBOwAAAAAwOZE7AEB4IncAAADgJAJ3AAAAAGAWIncAgPBE7gAAAMDRBO4AAAAAwGxE7gAA4YncAQAAgKMI3AEAAACAWYncAQDCE7kDAAAABxO4AwAAAACzE7kDAIQncgcAAAAOInAHAAAAALIQuQMAhCdyBwAAAF4lcAcAAAAAshG5AwCEJ3IHAAAAXiRwBwAAAACyErkDAIQncgcAAAB+S+AOAAAAAGQncgcACE/kDgAAADxL4A4AAAAALELkDgAQnsgdAAAA+IXAHQAAAABYjMgdACA8kTsAAADwA4E7AAAAALAokTsAQHgidwAAAOBvAncAAAAAYHEidwCA8ETuAAAAwDcCdwAAAACgCCJ3AIDwRO4AAACAwB0AAAAAKIfIHQAgPJE7AAAABCdwBwAAAACKInIHAAhP5A4AAACBCdwBAAAAgOKI3AEAwhO5AwAAQFACdwAAAACgSCJ3AIDwRO4AAAAQkMAdAAAAACiWyB0AIDyROwAAAAQjcAcAAAAAiiZyBwAIT+QOAAAAgQjcAQAAAIDiidwBAMITuQMAAEAQAncAAAAAoAoidwCA8ETuAAAAEIDAHQAAAACohsgdACA8kTsAAAA0TuAOAAAAAFRF5A4AEJ7IHQAAABomcAcAAAAAqiNyBwAIT+QOAAAAjRK4AwAAAABVErkDAIQncgcAAIAGCdwBAAAAgGqJ3AEAwhO5AwAAQGME7gAAAABA1UTuAADhidwBAACgIQJ3AAAAAKB6IncAgPBE7gAAANAIgTsAAAAA0ASROwBAeCJ3AAAAaIDAHQAAAABohsgdACA8kTsAAABUTuAOAAAAADRF5A4AEJ7IHQAAAComcAcAAAAAmiNyBwAIT+QOAAAAlRK4AwAAAABNErkDAIQncgcAAIAKCdwBAAAAgGaJ3AEAwhO5AwAAQGUE7gAAAABA00TuAADhidwBAACgIgJ3AAAAAKB5IncAgPBE7gAAAFAJgTsAAAAAEILIHQAgPJE7AAAAVEDgDgAAAACEIXIHAAhP5A4AAACFE7gDAAAAAKGI3AEAwhO5AwAAQMEE7gAAAABAOCJ3AIDwRO4AAABQKIE7AAAAABCSyB0AIDyROwAAABRI4A4AAAAAhCVyBwAI71vkHv0IAAAAUBKBOwAAAAAQmsgdACC8f603u330IwAAAEApBO4AAAAAQHgidwCA8LYidwAAACiDwB0AAAAAQOQOAMB/IvdLdwAAAIBlrcZx9AQAAAAAAE+elju37gEAENJDSuli6Ls7zw8AAADLsOAOAAAAAPAdS+4AAKH9I6W0j34EAAAAWJLAHQAAAADgJyJ3AIDQ/ne92V1FPwIAAAAsZTWOo+MDAAAAADxjvdk9rndu3QYAIJyHlNKboe/uPT0AAADkZcEdAAAAAOA3LLkDAIT1j5SSFXcAAABYgAV3AAAAAIBXWHIHAAjJijsAAAAswII7AAAAAMArLLkDAIT0uOJ+6ekBAAAgL4E7AAAAAMABRO4AACFdeXYAAADIS+AOAAAAAHAgkTsAQDj/XG92F54dAAAA8hG4AwAAAAAcQeQOABDOpScHAACAfATuAAAAAABHErkDAITyznMDAABAPgJ3AAAAAIATiNwBAML453qze+O5AQAAIA+BOwAAAADAiUTuAABhvPXUAAAAkIfAHQAAAADgDCJ3AIAQBO4AAACQicAdAAAAAOBMIncAgOZdeGIAAADIQ+AOAAAAADABkTsAQNP+5XkBAAAgD4E7AAAAAMBERO4AAO1ab3ZvPC8AAADMT+AOAAAAADAhkTsAQLME7gAAAJCBwB0AAAAAYGIidwCAJv23ZwUAAID5CdwBAAAAAGYgcgcAaM6FJwUAAID5CdwBAAAAAGYicgcAAAAAADiOwB0AAAAAYEYidwAAAAAAgMMJ3AEAAAAAZiZyBwAAAAAAOIzAHQAAAAAgA5E7AAAAAADA6wTuAAAAAACZiNwBAAAAAABeJnAHAAAAAMhI5A4AAAAAAPB7AncAAAAAgMxE7gAAAAAAAM8TuAMAAAAALEDkDgAAAAAA8CuBOwAAAADAQkTuAABVufdcAAAAMD+BOwAAAADAgkTuAADVuPFUAAAAMD+BOwAAAADAwkTuAAAAAAAA/yFwBwAAAAAogMgdAKB4FtwBAAAgg9U4ju4MAAAAAFCI9Wa3TyltvQcAQFmGvlt5EgAAAJifBXcAAAAAgIJYcgcAKNKtZwEAAIA8BO4AAAAAAIURuQMAFOfekwAAAEAeAncAAAAAgAKJ3AEAinLtOQAAACAPgTsAAAAAQKFE7gAAxbjxFAAAAJCHwB0AAAAAoGAidwCAItx5BgAAAMhjNY6jUwMAAAAAFG692e1TSlvvBACQ39B3K2cHAACAPCy4AwAAAABUwJI7AMBi/nJ6AAAAyEfgDgAAAABQCZE7AMAirp0dAAAA8hG4AwAAAABUROQOAJDdjZMDAABAPgJ3AAAAAIDKiNwBALKy4A4AAAAZCdwBAAAAACokcgcAyOJ26Lt7pwYAAIB8BO4AAAAAAJUSuQMAzM56OwAAAGQmcAcAAAAAqJjIHQBgVgJ3AAAAyGw1jqObAwAAAABUbr3Z7VNKW+8IADCdoe9WzgkAAAB5WXAHAAAAAGiAJXcAgMl9cVIAAADIT+AOAAAAANAIkTsAwKSunRMAAADyE7gDAAAAADRE5A4AMJnPTgkAAAD5CdwBAAAAABojcgcAONvt0Hd3zggAAAD5CdwBAAAAABokcgcAOMve+QAAAGAZAncAAAAAgEaJ3AEATvbZ6QAAAGAZAncAAAAAgIaJ3AEAjnY79N2dswEAAMAyBO4AAAAAAI0TuQMAHGXvXAAAALAcgTsAAAAAQAAidwCAg312KgAAAFiOwB0AAAAAIAiROwDAq74MfXfnTAAAALAcgTsAAAAAQCAidwCAF1lvBwAAgIUJ3AEAAAAAghG5AwA860HgDgAAAMsTuAMAAAAABCRyBwD4xeeh7+6dBQAAAJYlcAcAAAAACErkDgDwgw/OAQAAAMsTuAMAAAAABCZyBwD45nbouxunAAAAgOUJ3AEAAAAAghO5AwBYbwcAAIBSCNwBAAAAABC5AwCRPaSUPvsHAAAAQBkE7gAAAAAAfCNyBwCC2g99d+/xAQAAoAwCdwAAAAAA/iZyBwAC+uDRAQAAoBwCdwAAAAAAfiByBwAC+TL03Z0HBwAAgHII3AEAAAAA+IXIHQAIwno7AAAAFGY1jqM3AQAAAADgWevNbp9S2roOANCg26HvLjwsAAAAlMWCOwAAAAAAv2XJHQBomPV2AAAAKJAFdwAAAAAAXmXJHQBozNeh7954VAAAACiPBXcAAAAAAF5lyR0AaIz1dgAAACiUwB0AAAAAgIOI3AGARjyklPYeEwAAAMokcAcAAAAA4GAidwCgAR+Gvrv3kAAAAFAmgTsAAAAAAEcRuQMAFXtcb//gAQEAAKBcAncAAAAAAI4mcgcAKmW9HQAAAAoncAcAAAAA4CQidwCgMtbbAQAAoAICdwAAAAAATiZyBwAqYr0dAAAAKiBwBwAAAADgLCJ3AKAC1tsBAACgEgJ3AAAAAADOJnIHAApnvR0AAAAqIXAHAAAAAGASIncAoFDW2wEAAKAiAncAAAAAACYjcgcACmS9HQAAACoicAcAAAAAYFIidwCgINbbAQAAoDICdwAAAAAAJidyBwAKcWW9HQAAAOqyGsfRkwEAAAAAMIv1ZrdPKW1dFwBYwNeh7944PAAAANTFgjsAAAAAALOx5A4ALOi94wMAAEB9LLgDAAAAADA7S+4AQGZ/DX331tEBAACgPhbcAQAAAACYnSV3ACAz6+0AAABQKYE7AAAAAABZiNwBgEy+DH137dgAAABQJ4E7AAAAAADZiNwBgAyuHBkAAADqJXAHAAAAACArkTsAMKM/h767c2AAAACol8AdAAAAAIDsRO4AwAweUkofHBYAAADqJnAHAAAAAGARIncAYGJXQ9/dOyoAAADUbTWOoycEAAAAAGAx681un1LaegEA4Ay3Q99dOCAAAADUz4I7AAAAAACLsuQOAEzgyhEBAACgDQJ3AAAAAAAWJ3IHAM7waei7awcEAACANgjcAQAAAAAogsgdADjBQ0rpvcMBAABAOwTuAAAAAAAUQ+QOABzpw9B3d44GAAAA7ViN4+g5AQAAAAAoynqz26eUtl4FAHjB7dB3Fw4EAAAAbbHgDgAAAABAcSy5AwAHuHIkAAAAaI/AHQAAAACAIoncAYAXfBr67tqBAAAAoD0CdwAAAAAAiiVyBwCe8WC9HQAAANolcAcAAAAAoGgidwDgJ1dD3907CgAAALRpNY6jpwUAAAAAoHjrzW6fUtp6KQAI7a+h795GPwIAAAC0zII7AAAAAABVsOQOAKSULh0BAAAA2iZwBwAAAACgGiJ3AAjtz6Hv7qIfAQAAAFq3GsfRIwMAAAAAUJX1ZrdPKW29GgCEcTv03YXnBgAAgPZZcAcAAAAAoDqW3AEgnCtPDgAAADEI3AEAAAAAqJLIHQDC+Dj03bXnBgAAgBgE7gAAAAAAVEvkDgDN+5pSeu+ZAQAAIA6BOwAAAAAAVRO5A0DTLoe+u/fEAAAAEIfAHQAAAACA6oncAaBJH4e+u/a0AAAAEIvAHQAAAACAJojcAaApX1NK7z0pAAAAxCNwBwAAAACgGSJ3AGjG5dB3954TAAAA4hG4AwAAAADQFJE7AFTv49B3154RAAAAYhK4AwAAAADQHJE7AFTra0rpvecDAACAuATuAAAAAAA0SeQOAFW6HPru3tMBAABAXAJ3AAAAAACaJXIHgKp8HPru2pMBAABAbAJ3AAAAAACaJnIHgCp8TSm991QAAACAwB0AAAAAgOaJ3AGgeO+Gvrv3TAAAAIDAHQAAAACAEETuAFCsP4e+u/E8AAAAwKPVOI4F/AwAAAAAAMhjvdntU0pb5waAItwOfXfhKQAAAID/Z8EdAAAAAIBQLLkDQDEeUkrvPAcAAADwPYE7AAAAAADhiNwBoAjvh7678xQAAADA91bjODoIAAAAAAAhrTe7fUpp6/UBILsvQ99ZbwcAAAB+YcEdAAAAAICwLLkDwCIeUkqXTg8AAAA8R+AOAAAAAEBoIncAyO7d0Hf3zg4AAAA8R+AOAAAAAEB4IncAyObj0HfXzg0AAAD8zmocR8cBAAAAAICU0nqz26eUtm4BALO4HfruwmkBAACAl1hwBwAAAACAJ5bcAWA2DymlS+cFAAAAXiNwBwAAAACA74jcAWAWV0Pf3TgtAAAA8BqBOwAAAAAA/ETkDgCT+jT03d5JAQAAgEMI3AEAAAAA4BkidwCYxO3jertTAgAAAIdajePoWAAAAAAA8Bvrze5xcXbrPgBwkv8Z+u7G6QAAAIBDWXAHAAAAAIAXWHIHgJP9IW4HAAAAjmXBHQAAAAAADmDJHQCO8mXou3dOBgAAABzLgjsAAAAAABzAkjsAHOxrSunSuQAAAIBTCNwBAAAAAOBAIncAOMi7oe/unQoAAAA4hcAdAAAAAACOIHIHgBf9e+i7GycCAAAATiVwBwAAAACAI4ncAeBZn4a+2zsNAAAAcA6BOwAAAAAAnEDkDgA/uE0pXTkJAAAAcC6BOwAAAAAAnEjkDgDfPKSULoe+u3cOAAAA4FwCdwAAAAAAOIPIHQDS1dB3N84AAAAATEHgDgAAAAAAZxK5AxDYx6Hv9v4AAAAAwFRW4zg6JgAAAAAATGC92T0Gflu3BCCI26HvLjw2AAAAMCUL7gAAAAAAMBFL7gAE8pBSeuvBAQAAgKkJ3AEAAAAAYEIidwCCeDv03b3HBgAAAKYmcAcAAAAAgImJ3AFo3B9D3914ZAAAAGAOq3EcHRYAAAAAAGaw3uz2KaWt2wLQkE9PH3IBAAAAzMKCOwAAAAAAzMSSOwCNuU0pXXlUAAAAYE4W3AEAAAAAYGaW3AFowENK6WLouzuPCQAAAMzJgjsAAAAAAMzMkjsADXgnbgcAAAByELgDAAAAAEAGIncAKvbH0HfXHhAAAADIYTWOo0MDAAAAAEAm681un1LaujcAlfj09JEWAAAAQBYCdwAAAAAAyEzkDkAlboe+u/BYAAAAQE7/5doAAAAAAJDX0xLuJ2cHoGAPKaW3HggAAADITeAOAAAAAAALELkDULBvcfvQd/ceCQAAAMhN4A4AAAAAAAsRuQNQqKuh7248DgAAALAEgTsAAAAAACxI5A5AYT4Ofbf3KAAAAMBSVuM4Oj4AAAAAACxsvdk9xoRb7wDAgr4MfffOAwAAAABLsuAOAAAAAAAFsOQOwMJuU0qXHgEAAABYmgV3AAAAAAAoiCV3ABbwkFK6GPruzvEBAACApVlwBwAAAACAglhyB2ABb8XtAAAAQCkE7gAAAAAAUBiROwAZ/XvouxsHBwAAAEohcAcAAAAAgAKJ3AHI4M+h7/YODQAAAJRkNY6jBwEAAAAAgEKtN7vH8HDrfQCY2Kenj6kAAAAAimLBHQAAAAAACmbJHYAZ3KaUrhwWgP9j796N29iyMIxuMoKbwZULazgevEEGowwIRTB0YQ1ltStFMEAGUgai1yZgtUtlQETQU7jVuqUnRRKvffqsVUVXBe3DkvXhFwAAZGTBHQAAAAAACmDJHYAD+RwRV13bPDgoAAAAkJEFdwAAAAAAKIAldwAOYBsRr8XtAAAAQGYCdwAAAAAAKITIHYA97eL2tSMCAAAAmQncAQAAAACgICJ3AF7oTdc2nxwPAAAAyE7gDgAAAAAAhRG5A/BMb7u2WToaAAAAUIKLvu89FAAAAAAAFGgyXexixWtvB8AjVsMXowAAAACKIHAHAAAAAICCidwBeMRd1zYzBwIAAABKcum1AAAAAACgXMMq78oTAvCdTUS8dhQAAACgNBbcAQAAAABgBCy5A/CVbUS86trmwVEAAACA0lhwBwAAAACAEbDkDsBgF7fPxO0AAABAqSy4AwAAAADAiFhyB6jeP7u2Wdd+BAAAAKBcFtwBAAAAAGBELLkDVO2NuB0AAAAoncAdAAAAAABGRuQOUKVd3L709AAAAEDpBO4AAAAAADBCIneAqqzE7QAAAMBYCNwBAAAAAGCkRO4AVVgN/94DAAAAjMJF3/deEgAAAAAARmwyXexWfa+9McDo3HVtM/OsAAAAwJhYcAcAAAAAgJGz5A4wSpuIeO1pAQAAgLERuAMAAAAAQAVE7gCjsovbZ13bPHhWAAAAYGwu+r73qAAAAAAAUInJdLGMiGvvDVCsbURcdW1z7wkBAACAMbLgDgAAAAAAFbHkDlC07bDcLm4HAAAARkvgDgAAAAAAlRG5AxTpS9y+9nwAAADAmAncAQAAAACgQiJ3gOLMxe0AAABADQTuAAAAAABQKZE7QDHedG3zwXMBAAAANRC4AwAAAABAxUTuAOnt4valZwIAAABqIXAHAAAAAIDKidwB0hK3AwAAANURuAMAAAAAACJ3gHxW4nYAAACgRgJ3AAAAAADgLyJ3gDRWw7/JAAAAANURuAMAAAAAAH8TuQOcnbgdAAAAqJrAHQAAAAAA+IbIHeBsxO0AAABA9S76vq/9BgAAAAAAwE9MpotlRFy7DcBJ3HVtM3NqAAAAoHYW3AEAAAAAgJ+y5A5wMpuIeO3cAAAAAAJ3AAAAAADgESJ3gKPbxe2zrm0enBoAAABA4A4AAAAAAPyGyB3gaMTtAAAAAN8RuAMAAAAAAL8lcgc4OHE7AAAAwE8I3AEAAAAAgCcRuQMcjLgdAAAA4BcE7gAAAAAAwJOJ3AH2Jm4HAAAAeMRF3/fuAwAAAAAAPMtkulhGxLWrATzLNiKuura5dzYAAACAn7PgDgAAAAAAPJsld4Bn2w7L7eJ2AAAAgEcI3AEAAAAAgBcRuQM82Ze4fe1kAAAAAI8TuAMAAAAAAC8mcgf4LXE7AAAAwDMI3AEAAAAAgL2I3AF+SdwOAAAA8EwCdwAAAAAAYG8id4AfiNsBAAAAXkDgDgAAAAAAHITIHeBv4nYAAACAFxK4AwAAAAAAByNyBxC3AwAAAOxD4A4AAAAAAByUyB2omLgdAAAAYE8CdwAAAAAA4OBE7kCFxO0AAAAAByBwBwAAAAAAjkLkDlRE3A4AAABwIAJ3AAAAAADgaETuQAXE7QAAAAAHJHAHAAAAAACOSuQOjJi4HQAAAODABO4AAAAAAMDRidyBERK3AwAAAByBwB0AAAAAADgJkTswIpuIeCVuBwAAADg8gTsAAAAAAHAyIndgBDbDcvuDxwQAAAA4PIE7AAAAAABwUiJ3oGDidgAAAIAjE7gDAAAAAAAnJ3IHCiRuBwAAADgBgTsAAAAAAHAWInegIOJ2AAAAgBMRuAMAAAAAAGcjcgcKIG4HAAAAOCGBOwAAAAAAcFYidyCxO3E7AAAAwGld9H3v5AAAAAAAwNlNpotlRFx7CSCJ1fAFHAAAAABOyII7AAAAAACQgiV3IBFxOwAAAMCZCNwBAAAAAIA0RO5AAuJ2AAAAgDMSuAMAAAAAAKmI3IEzErcDAAAAnJnAHQAAAAAASEfkDpzBG3E7AAAAwPkJ3AEAAAAAgJRE7sAJ7eL2pYMDAAAAnJ/AHQAAAAAASEvkDpyAuB0AAAAgkYu+770HAAAAAACQ2mS62MWn114JOKBtRLzu2uaTowIAAADkIXAHAAAAAACKIHIHDmgXt8+6tlk7KgAAAEAul94DAAAAAAAoQdc284hYeSxgT+J2AAAAgMQE7gAAAAAAQDFE7sCeNhFxJW4HAAAAyOui73vPAwAAAAAAFGUyXSwj4tqrAc+wGZbbHxwNAAAAIC8L7gAAAAAAQHEsuQPPdCduBwAAACiDBXcAAAAAAKBYltyBJ1gNX4oBAAAAoAAW3AEAAAAAgGJZcgd+Q9wOAAAAUBiBOwAAAAAAUDSRO/ALb8TtAAAAAOURuAMAAAAAAMUTuQPf2cXtS0cBAAAAKM9F3/eeDQAAAAAAGIXJdLELWq+9JlRrGxGzrm3WfgUAAAAAymTBHQAAAAAAGA1L7lA1cTsAAADACAjcAQAAAACAURG5Q5U2EfFK3A4AAABQPoE7AAAAAAAwOiJ3qMrdsNz+4NkBAAAAynfR971nBAAAAAAARmkyXSwj4trrwmithi+0AAAAADASFtwBAAAAAIDRsuQOo/ZW3A4AAAAwPhbcAQAAAACA0bPkDqPzpmubpWcFAAAAGB+BOwAAAAAAUAWRO4zCNiJmXdusPScAAADAOF16VwAAAAAAoAZd28wjYuWxoVgbcTsAAADA+FlwBwAAAAAAqmLJHYr0JW5/8HwAAAAA4yZwBwAAAAAAqiNyh6Kshv+BAQAAAIAKXHpkAAAAAACgNkMsu/LwkN5bcTsAAABAXSy4AwAAAAAA1bLkDmltI+Kma5ulJwIAAACoi8AdAAAAAAComsgd0tnF7bOubdaeBgAAAKA+l94cAAAAAACoWdc284hY+SWAFDYRcSVuBwAAAKiXwB0AAAAAAKieyB1S+Dgst997DgAAAIB6XfR97/kBAAAAAAAiYjJdLCPi2i3g5N52bXPr7AAAAAAI3AEAAAAAAL4icoeT2kbETdc2S2cHAAAAIATuAAAAAAAAPxK5w0ns4vZZ1zZr5wYAAADgi0uXAAAAAAAA+FbXNvOIWDkLHM0mIl6J2wEAAAD4ngV3AAAAAACAX7DkDkexGr5EAgAAAAA/sOAOAAAAAADwC5bc4eDeiNsBAAAAeIwFdwAAAAAAgN+w5A5720bErGubtVMCAAAA8BgL7gAAAAAAAL9hyR32somIV+J2AAAAAJ7CgjsAAAAAAMATWXKHZ1sNXxABAAAAgCex4A4AAAAAAPBEltzhWd6I2wEAAAB4LgvuAAAAAAAAz2TJHR61jYhZ1zZrZwIAAAA6haf5AAAgAElEQVTguSy4AwAAAAAAPJMld/ilu4h4JW4HAAAA4KUsuAMAAAAAALyQJXf4xvuubW6cBAAAAIB9CNwBAAAAAAD2IHKH2EbEvGubD04BAAAAwL4uXRAAAAAAAODluraZR8TKCanUJiJm4nYAAAAADkXgDgAAAAAAsCeRO5VaDXH72i8AAAAAAIdy0fe9YwIAAAAAABzAZLpYRsS1WzJy24i46dpm6aEBAAAAODSBOwAAAAAAwAGJ3Bm5TUTMrbYDAAAAcCyXLgsAAAAAAHA4XdvMI2LlpIzQ7vd6Jm4HAAAA4JgsuAMAAAAAAByBJXdGZBsRN13bLD0qAAAAAMcmcAcAAAAAADgSkTsjsImIudV2AAAAAE7l0qUBAAAAAACOo2ubeUSsnJdC7X53Z+J2AAAAAE7JgjsAAAAAAMCRWXKnMNthtf2DhwMAAADg1ATuAAAAAAAAJyBypxCbiHjdtc29BwMAAADgHATuAAAAAAAAJyJyJ7m3XdvceiQAAAAAzkngDgAAAAAAcEIidxL6HBHzrm0+eRwAAAAAzu3SCwAAAAAAAJxO1zbziFg5OUl8jIgrcTsAAAAAWVhwBwAAAAAAOANL7pzZNiJuurZZeggAAAAAMhG4AwAAAAAAnInInTO5i4h51zb3HgAAAACAbATuAAAAAAAAZyRy58Tedm1z6+gAAAAAZCVwBwAAAAAAODOROyewGVbb144NAAAAQGYCdwAAAAAAgARE7hzR+65tbhwYAAAAgBII3AEAAAAAAJIQuXNgn4fV9k8OCwAAAEApLr0UAAAAAABADl3bzCNi5Tk4gPcRcSVuBwAAAKA0FtwBAAAAAACSseTOHqy2AwAAAFA0C+4AAAAAAADJWHLnhay2AwAAAFA8C+4AAAAAAABJWXLniay2AwAAADAaFtwBAAAAAACSsuTOE7y12g4AAADAmFhwBwAAAAAASM6SOz+xGVbb144DAAAAwJgI3AEAAAAAAAogcmewjYh3XdvcOggAAAAAYyRwBwAAAAAAKITIvXp3w2r7fe2HAAAAAGC8BO4AAAAAAAAFEblXaTuE7R9qPwQAAAAA43fpjQEAAAAAAMrRtc08IlaerBrvI+KVuB0AAACAWlhwBwAAAAAAKJAl99HbDKvt69oPAQAAAEBdBO4AAAAAAACFErmP0jYibru2eVf7IQAAAACok8AdAAAAAACgYCL3UVlFxE3XNg+1HwIAAACAegncAQAAAAAACidyL97dELavaz8EAAAAAAjcAQAAAAAARkDkXqTPEXHbtc2y9kMAAAAAwBcCdwAAAAAAgJEQuRdjGxHvdj9d2zzUfgwAAAAA+JrAHQAAAAAAYERE7umthtX2+9oPAQAAAAA/I3AHAAAAAAAYGZF7SncRcdO1zbr2QwAAAADAYwTuAAAAAAAAIyRyT+NzRMy7tvlU+yEAAAAA4CkE7gAAAAAAACMlcj+rXdh+27XNsuIbAAAAAMCzCdwBAAAAAABGTOR+ctuIuBG2AwAAAMDLCNwBAAAAAABGTuR+Eruw/d3up2ubhwr+vgAAAABwFAJ3AAAAAACACojcj0bYDgAAAAAHJHAHAAAAAACohMj9oITtAAAAAHAEAncAAAAAAICKiNz39nkI25fCdgAAAAA4PIE7AAAAAABAZUTuL7IL22+7tlkW+NkBAAAAoBgCdwAAAAAAgAqJ3J/sbrfY3rXNh0I+LwAAAAAUTeAOAAAAAABQKZH7o1ZD2L5O/BkBAAAAYHQE7gAAAAAAABUTuX/jc0Ts7rHs2uY+0ecCAAAAgGoI3AEAAAAAACo3mS5uI+K/FV/hbojalwk+CwAAAABUTeAOAAAAAADALnKfR8T/KrrEdlhrf2etHQAAAADyELgDAAAAAADwl8l0cRURHyLizxFf5OOw1v4hwWcBAAAAAL4jcAcAAAAAAOBvk+nij4i4jYj/jOgqH4dw/0PXNg8JPg8AAAAA8AsCdwAAAAAAAH4wmS5mEfEuIv5R6HVE7QAAAABQIIE7AAAAAAAAvzSZLubDovufya+0HYL2T6J2AAAAACiXwB0AAAAAAIDfmkwXryNiF7v/O9G17r4K2tcJPg8AAAAAsCeBOwAAAAAAAE82mS5eRcTr4edfJ7zc54hYD0H7umubT14NAAAAAMZH4A4AAAAAAMCLTaaLWUTsfq6Gnz/3vOYuZL8fYvaHr4L2B68EAAAAAOMncAcAAAAAAOCgJtPFLnT/Y/gzZ4/82V8i9p37rm3uvQQAAAAA1E3gDgAAAAAAAAAAAABACpeeAQAAAAAAAAAAAACADATuAAAAAAAAAAAAAACkIHAHAAAAAAAAAAAAACAFgTsAAAAAAAAAAAAAACkI3AEAAAAAAAAAAAAASEHgDgAAAAAAAAAAAABACgJ3AAAAAAAAAAAAAABSELgDAAAAAAAAAAAAAJCCwB0AAAAAAAAAAAAAgBQE7gAAAAAAAAAAAAAApCBwBwAAAAAAAAAAAAAgBYE7AAAAAAAAAAAAAAApCNwBAAAAAAAAAAAAAEhB4A4AAAAAAAAAAAAAQAoCdwAAAAAAAAAAAAAAUhC4AwAAAAAAAAAAAACQgsAdAAAAAAAAAAAAAIAUBO4AAAAAAAAAAAAAAKQgcAcAAAAAAAAAAAAAIAWBOwAAAAAAAAAAAAAAKQjcAQAAAAAAAAAAAABIQeAOAAAAAAAAAAAAAEAKAncAAAAAAAAAAAAAAFIQuAMAAAAAAAAAAAAAkILAHQAAAAAAAAAAAACAFATuAAAAAAAAAAAAAACkIHAHAAAAAAAAAAAAACAFgTsAAAAAAAAAAAAAACkI3AEAAAAAAAAAAAAASEHgDgAAAAAAAAAAAABACgJ3AAAAAAAAAAAAAABSELgDAAAAAAAAAAAAAJCCwB0AAAAAAAAAAAAAgBQE7gAAAAAAAAAAAAAApCBwBwAAAAAAAAAAAAAgBYE7AAAAAAAAAAAAAAApCNwBAAAAAAAAAAAAAEhB4A4AAAAAAAAAAAAAQAoCdwAAAAAAAAAAAAAAUhC4AwAAAAAAAAAAAACQgsAdAAAAAAAAAAAAAIAUBO4AAAAAAAAAAAAAAKQgcAcAAAAAAAAAAAAAIAWBOwAAAAAAAAAAAAAAKQjcAQAAAAAAAAAAAABIQeAOAAAAAAAAAAAAAEAKAncAAAAAAAAAAAAAAFIQuAMAAAAAAAAAAAAAkILAHQAAAAAAAAAAAACAFATuAAAAAAAAAAAAAACkIHAHAAAAAAAAAAAAACAFgTsAAAAAAAAAAAAAACkI3AEAAAAAAAAAAAAASEHgDgAAAAAAAAAAAABACgJ3AAAAAAAAAAAAAABSELgDAAAAAAAAAAAAAJCCwB0AAAAAAAAAAAAAgBQE7gAAAAAAAAAAAAAApCBwBwAAAAAAAAAAAAAgBYE7AAAAAAAAAAAAAAApCNwBAAAAAAAAAAAAAEhB4A4AAAAAAAAAAAAAQAoCdwAAAAAAAAAAAAAAUhC4AwAAAAAAAAAAAACQgsAdAAAAAAAAAAAAAIAUBO4AAAAAAAAAAAAAAKQgcAcAAAAAAAAAAAAAIAWBOwAAAAAAAAAAAAAAKQjcAQAAAAAAAAAAAABIQeAOAAAAAAAAAAAAAEAKAncAAAAAAAAAAAAAAFIQuAMAAAAAAAAAAAAAkILAHQAAAAAAAAAAAACAFATuAAAAAAAAAAAAAACkIHAHAAAAAAAAAAAAACAFgTsAAAAAAAAAAAAAACkI3AEAAAAAAAAAAAAASEHgDgAAAAAAAAAAAABACgJ3AAAAAAAAAAAAAABSELgDAAAAAAAAAAAAAJCCwB0AAAAAAAAAAAAAgBQE7gAAAAAAAAAAAAAApCBwBwAAAAAAAAAAAAAgBYE7AAAAAAAAAAAAAAApCNwBAAAAAAAAAAAAAEhB4A4AAAAAAAAAAAAAQAoCdwAAAAAAAAAAAAAAUhC4AwAAAAAAAAAAAACQgsAdAAAAAAAAAAAAAIAUBO4AAAAAAAAAAAAAAKQgcAcAAAAAAAAAAAAAIAWBOwAAAAAAAAAAAAAAKQjcAQAAAAAAAAAAAABIQeAOAAAAAAAAAAAAAEAKAncAAAAAAAAAAAAAAFIQuAMAAAAAAAAAAAAAkILAHQAAAAAAAAAAAACAFATuAAAAAAAAAAAAAACkIHAHAAAAAAAAAAAAACAFgTsAAAAAAAAAAAAAACkI3AEAAAAAAAAAAAAASEHgDgAAAAAAAAAAAABACgJ3AAAAAAAAAAAAAABSELgDAAAAAAAAAAAAAJCCwB0AAAAAAAAAAAAAgBQE7gAAAAAAAAAAAAAApCBwBwAAAAAAAAAAAAAgBYE7AAAAAAAAAAAAAAApCNwBAAAAAAAAAAAAAEhB4A4AAAAAAAAAAAAAQAoCdwAAAAAAAAAAAAAAUhC4AwAAAAAAAAAAAACQgsAdAAAAAAAAAAAAAIAUBO4AAAAAAAAAAAAAAKQgcAcAAAAAAAAAAAAAIAWBOwAAAAAAAAAAAAAAKQjcAQAAAAAAAAAAAABIQeAOAAAAAAAAAAAAAEAKAncAAAAAAAAAAAAAAFIQuAMAAAAAAAAAAAAAkILAHQAAAAAAAAAAAACAFATuAAAAAAAAAAAAAACkIHAHAAAAAAAAAAAAACAFgTsAAAAAAAAAAAAAACkI3AEAAAAAAAAAAAAASEHgDgAAAAAAAAAAAABACgJ3AAAAAAAAAAAAAABSELgDAAAAAAAAAAAAAJCCwB0AAAAAAAAAAAAAgBQE7gAAAAAAAAAAAAAApCBwBwAAAAAAAAAAAAAgBYE7AAAAAAAAAAAAAAApCNwBAAAAAAAAAAAAAEhB4A4AAAAAAAAAAAAAQAoCdwAAAAAAAAAAAAAAUhC4AwAAAAAAAAAAAACQgsAdAAAAAAAAAAAAAIAUBO4AAAAAAAAAAAAAAKQgcAcAAAAAAAAAAAAAIAWBOwAAAAAAAAAAAAAAKQjcAQAAAAAAAAAAAABIQeAOAAAAAAAAAAAAAEAKAncAAAAAAAAAAAAAAFIQuAMAAAAAAAAAAAAAkILAHQAAAAAAAAAAAACAFATuAAAAAAAAAAAAAACkIHAHAAAAAAAAAAAAACAFgTsAAAAAAAAAAAAAACkI3AEAAAAAAAAAAAAASEHgDgAAAAAAAAAAAABACgJ3AAAAAAAAAAAAAABSELgDAAAAAAAAAAAAAJCCwB0AAAAAAAAAAAAAgBQE7gAAAAAAAAAAAAAApCBwBwAAAAAAAAAAAAAgBYE7AAAAAAAAAAAAAAApCNwBAAAAAAAAAAAAAEhB4A4AAAAAAAAAAAAAQAoCdwAAAAAAAAAAAAAAUhC4AwAAAAAAAAAAAACQgsAdAAAAAAAAAAAAAIAUBO4AAAAAAAAAAAAAAKQgcAcAAAAAAAD+364dEwAAwDAMqn/Vk7EcoAMAAAAASBDcAQAAAAAAAAAAAABIENwBAAAAAAAAAAAAAEgQ3AEAAAAAAAAAAAAASBDcAQAAAAAAAAAAAABIENwBAAAAAAAAAAAAAEgQ3AEAAAAAAAAAAAAASBDcAQAAAAAAAAAAAABIENwBAAAAAAAAAAAAAEgQ3AEAAAAAAAAAAAAASBDcAQAAAAAAAAAAAABIENwBAAAAAAAAAAAAAEgQ3AEAAAAAAAAAAAAASBDcAQAAAAAAAAAAAABIENwBAAAAAAAAAAAAAEgQ3AEAAAAAAAAAAAAASBDcAQAAAAAAAAAAAABIENwBAAAAAAAAAAAAAEgQ3AEAAAAAAAAAAAAASBDcAQAAAAAAAAAAAABIENwBAAAAAAAAAAAAAEgQ3AEAAAAAAAAAAAAASBDcAQAAAAAAAAAAAABIENwBAAAAAAAAAAAAAEgQ3AEAAAAAAAAAAAAASBDcAQAAAAAAAAAAAABIENwBAAAAAAAAAAAAAEgQ3AEAAAAAAAAAAAAASBDcAQAAAAAAAAAAAABIENwBAAAAAAAAAAAAAEgQ3AEAAAAAAAAAAAAASBDcAQAAAAAAAAAAAABIENwBAAAAAAAAAAAAAEgQ3AEAAAAAAAAAAAAASBDcAQAAAAAAAAAAAABIENwBAAAAAAAAAAAAAEgQ3AEAAAAAAAAAAAAASBDcAQAAAAAAAAAAAABIENwBAAAAAAAAAAAAAEgQ3AEAAAAAAAAAAAAASBDcAQAAAAAAAAAAAABIENwBAAAAAAAAAAAAAEgQ3AEAAAAAAAAAAAAASBDcAQAAAAAAAAAAAABIENwBAAAAAAAAAAAAAEgQ3AEAAAAAAAAAAAAASBDcAQAAAAAAAAAAAABIENwBAAAAAAAAAAAAAEgQ3AEAAAAAAAAAAAAASBDcAQAAAAAAAAAAAABIENwBAAAAAAAAAAAAAEgQ3AEAAAAAAAAAAAAASBDcAQAAAAAAAAAAAABIENwBAAAAAAAAAAAAAEgQ3AEAAAAAAAAAAAAASBDcAQAAAAAAAAAAAABIENwBAAAAAAAAAAAAAEgQ3AEAAAAAAAAAAAAASBDcAQAAAAAAAAAAAABIENwBAAAAAAAAAAAAAEgQ3AEAAAAAAAAAAAAASBDcAQAAAAAAAAAAAABIENwBAAAAAAAAAAAAAEgQ3AEAAAAAAAAAAAAASBDcAQAAAAAAAAAAAABIENwBAAAAAAAAAAAAAEgQ3AEAAAAAAAAAAAAASBDcAQAAAAAAAAAAAABIENwBAAAAAAAAAAAAAEgQ3AEAAAAAAAAAAAAASBDcAQAAAAAAAAAAAABIENwBAAAAAAAAAAAAAEgQ3AEAAAAAAAAAAAAASBDcAQAAAAAAAAAAAABIENwBAAAAAAAAAAAAAEgQ3AEAAAAAAAAAAAAASBDcAQAAAAAAAAAAAABIENwBAAAAAAAAAAAAAEgQ3AEAAAAAAAAAAAAASBDcAQAAAAAAAAAAAABIENwBAAAAAAAAAAAAAEgQ3AEAAAAAAAAAAAAASBDcAQAAAAAAAAAAAABIENwBAAAAAAAAAAAAAEgQ3AEAAAAAAAAAAAAASBDcAQAAAAAAAAAAAABIENwBAAAAAAAAAAAAAEgQ3AEAAAAAAAAAAAAASBDcAQAAAAAAAAAAAABIENwBAAAAAAAAAAAAAEgQ3AEAAAAAAAAAAAAASBDcAQAAAAAAAAAAAABIENwBAAAAAAAAAAAAAEgQ3AEAAAAAAAAAAAAASBDcAQAAAAAAAAAAAABIENwBAAAAAAAAAAAAAEgQ3AEAAAAAAAAAAAAASBDcAQAAAAAAAAAAAABIENwBAAAAAAAAAAAAAEgQ3AEAAAAAAAAAAAAASBDcAQAAAAAAAAAAAABIENwBAAAAAAAAAAAAAEgQ3AEAAAAAAAAAAAAASBDcAQAAAAAAAAAAAABIENwBAAAAAAAAAAAAAEgQ3AEAAAAAAAAAAAAASBDcAQAAAAAAAAAAAABIENwBAAAAAAAAAAAAAEgQ3AEAAAAAAAAAAAAASBDcAQAAAAAAAAAAAABIENwBAAAAAAAAAAAAAEgQ3AEAAAAAAAAAAAAASBDcAQAAAAAAAAAAAABIENwBAAAAAAAAAAAAAEgQ3AEAAAAAAAAAAAAASBDcAQAAAAAAAAAAAABIENwBAAAAAAAAAAAAAEgQ3AEAAAAAAAAAAAAASBDcAQAAAAAAAAAAAABIENwBAAAAAAAAAAAAAEgQ3AEAAAAAAAAAAAAASBDcAQAAAAAAAAAAAABIENwBAAAAAAAAAAAAAEgQ3AEAAAAAAAAAAAAASBDcAQAAAAAAAAAAAABIENwBAAAAAAAAAAAAAEgQ3AEAAAAAAAAAAAAASBDcAQAAAAAAAAAAAABIENwBAAAAAAAAAAAAAEgQ3AEAAAAAAAAAAAAASBDcAQAAAAAAAAAAAABIENwBAAAAAAAAAAAAAEgQ3AEAAAAAAAAAAAAASBDcAQAAAAAAAAAAAABIENwBAAAAAAAAAAAAAEgQ3AEAAAAAAAAAAAAASBDcAQAAAAAAAAAAAABIENwBAAAAAAAAAAAAAEgQ3AEAAAAAAAAAAAAASBDcAQAAAAAAAAAAAABIENwBAAAAAAAAAAAAAEgQ3AEAAAAAAAAAAAAASBDcAQAAAAAAAAAAAABIENwBAAAAAAAAAAAAAEgQ3AEAAAAAAAAAAAAASBDcAQAAAAAAAAAAAABIENwBAAAAAAAAAAAAAEgQ3AEAAAAAAAAAAAAASBDcAQAAAAAAAAAAAABIENwBAAAAAAAAAAAAAEgQ3AEAAAAAAAAAAAAASBDcAQAAAAAAAAAAAABIENwBAAAAAAAAAAAAAEgQ3AEAAAAAAAAAAAAASBDcAQAAAAAAAAAAAABIENwBAAAAAAAAAAAAAEgQ3AEAAAAAAAAAAAAASBDcAQAAAAAAAAAAAABIENwBAAAAAAAAAAAAAEgQ3AEAAAAAAAAAAAAASBDcAQAAAAAAAAAAAABIENwBAAAAAAAAAAAAAEgQ3AEAAAAAAAAAAAAASBDcAQAAAAAAAAAAAABIENwBAAAAAAAAAAAAAEgQ3AEAAAAAAAAAAAAASBDcAQAAAAAAAAAAAABIENwBAAAAAAAAAAAAAEgQ3AEAAAAAAAAAAAAASBDcAQAAAAAAAAAAAABIENwBAAAAAAAAAAAAAEgQ3AEAAAAAAAAAAAAASBDcAQAAAAAAAAAAAABIENwBAAAAAAAAAAAAAEgQ3AEAAAAAAAAAAAAASBDcAQAAAAAAAAAAAABIENwBAAAAAAAAAAAAAEgQ3AEAAAAAAAAAAAAASBDcAQAAAAAAAAAAAABIENwBAAAAAAAAAAAAAEgQ3AEAAAAAAAAAAAAASBDcAQAAAAAAAAAAAABIENwBAAAAAAAAAAAAAEgQ3AEAAAAAAAAAAAAASBDcAQAAAAAAAAAAAABIENwBAAAAAAAAAAAAAEgQ3AEAAAAAAAAAAAAASBDcAQAAAAAAAAAAAABIENwBAAAAAAAAAAAAAEgQ3AEAAAAAAAAAAAAASBDcAQAAAAAAAAAAAABIENwBAAAAAAAAAAAAAEgQ3AEAAAAAAAAAAAAASBDcAQAAAAAAAAAAAABIENwBAAAAAAAAAAAAAEgQ3AEAAAAAAAAAAAAASBDcAQAAAAAAAAAAAABIENwBAAAAAAAAAAAAAEgQ3AEAAAAAAAAAAAAASBDcAQAAAAAAAAAAAABIENwBAAAAAAAAAAAAAEgQ3AEAAAAAAAAAAAAASBDcAQAAAAAAAAAAAABIENwBAAAAAAAAAAAAAEgQ3AEAAAAAAAAAAAAASBDcAQAAAAAAAAAAAABIENwBAAAAAAAAAAAAAEgQ3AEAAAAAAAAAAAAASBDcAQAAAAAAAAAAAABIENwBAAAAAAAAAAAAAEgQ3AEAAAAAAAAAAAAASBDcAQAAAAAAAAAAAABIENwBAAAAAAAAAAAAAEgQ3AEAAAAAAAAAAAAASBDcAQAAAAAAAAAAAABIENwBAAAAAAAAAAAAAEgQ3AEAAAAAAAAAAAAASBDcAQAAAAAAAAAAAABIENwBAAAAAAAAAAAAAEgQ3AEAAAAAAAAAAAAASBDcAQAAAAAAAAAAAABIENwBAAAAAAAAAAAAAEgQ3AEAAAAAAAAAAAAASBDcAQAAAAAAAAAAAABIENwBAAAAAAAAAAAAAEgQ3AEAAAAAAAAAAAAASBDcAQAAAAAAAAAAAABIENwBAAAAAAAAAAAAAEgQ3AEAAAAAAAAAAAAASBDcAQAAAAAAAAAAAABIENwBAAAAAAAAAAAAAEgQ3AEAAAAAAAAAAAAASBDcAQAAAAAAAAAAAABIENwBAAAAAAAAAAAAAEgQ3AEAAAAAAAAAAAAASBDcAQAAAAAAAAAAAABIENwBAAAAAAAAAAAAAEgQ3AEAAAAAAAAAAAAASBDcAQAAAAAAAAAAAABIENwBAAAAAAAAAAAAAEgQ3AEAAAAAAAAAAAAASBDcAQAAAAAAAAAAAABIENwBAAAAAAAAAAAAAEgQ3AEAAAAAAAAAAAAASBDcAQAAAAAAAAAAAABIENwBAAAAAAAAAAAAAEgQ3AEAAAAAAAAAAAAASBDcAQAAAAAAAAAAAABIENwBAAAAAAAAAAAAAEgQ3AEAAAAAAAAAAAAASBDcAQAAAAAAAAAAAABIENwBAAAAAAAAAAAAAEgQ3AEAAAAAAAAAAAAASBDcAQAAAAAAAAAAAABIENwBAAAAAAAAAAAAAEgQ3AEAAAAAAAAAAAAASBDcAQAAAAAAAAAAAABIENwBAAAAAAAAAAAAAEgQ3AEAAAAAAAAAAAAASBDcAQAAAAAAAAAAAABIENwBAAAAAAAAAAAAAEgQ3AEAAAAAAAAAAAAASBDcAQAAAAAAAAAAAABIENwBAAAAAAAAAAAAAEgQ3AEAAAAAAAAAAAAASBDcAQAAAAAAAAAAAABIENwBAAAAAAAAAAAAAEgQ3AEAAAAAAAAAAAAASBDcAQAAAAAAAAAAAABIENwBAAAAAAAAAAAAAEgQ3AEAAAAAAAAAAAAASBDcAQAAAAAAAAAAAABIENwBAAAAAAAAAAAAAEgQ3AEAAAAAAAAAAAAASBDcAQAAAAAAAAAAAABIENwBAAAAAAAAAAAAAEgQ3AEAAAAAAAAAAAAASBDcAQAAAAAAAAAAAABIENwBAAAAAAAAAAAAAEgQ3AEAAAAAAAAAAAAASBDcAQAAAAAAAAAAAABIENwBAAAAAAAAAAAAAEgQ3AEAAAAAAAAAAAAASBDcAQAAAAAAAAAAAABIENwBAAAAAAAAAAAAAEgQ3AEAAAAAAAAAAAAASBDcAQAAAAAAAAAAAABIENwBAAAAAAAAAAAAAEgQ3AEAAAAAAAAAAAAASBDcAQAAAAAAAAAAAABIENwBAAAAAAAAAAAAAEgQ3AEAAAAAAAAAAAAASBDcAQAAAAAAAAAAAABIENwBAAAAAAAAAAAAAEgQ3AEAAAAAAAAAAAAASBDcAQAAAAAAAMGsFmAAAAHoSURBVAAAAABIENwBAAAAAAAAAAAAAEgQ3AEAAAAAAAAAAAAASBDcAQAAAAAAAAAAAABIENwBAAAAAAAAAAAAAEgQ3AEAAAAAAAAAAAAASBDcAQAAAAAAAAAAAABIENwBAAAAAAAAAAAAAEgQ3AEAAAAAAAAAAAAASBDcAQAAAAAAAAAAAABIENwBAAAAAAAAAAAAAEgQ3AEAAAAAAAAAAAAASBDcAQAAAAAAAAAAAABIENwBAAAAAAAAAAAAAEgQ3AEAAAAAAAAAAAAASBDcAQAAAAAAAAAAAABIENwBAAAAAAAAAAAAAEgQ3AEAAAAAAAAAAAAASBDcAQAAAAAAAAAAAABIENwBAAAAAAAAAAAAAEgQ3AEAAAAAAAAAAAAASBDcAQAAAAAAAAAAAABIENwBAAAAAAAAAAAAAEgQ3AEAAAAAAAAAAAAASBDcAQAAAAAAAAAAAABIENwBAAAAAAAAAAAAAEgQ3AEAAAAAAAAAAAAASBDcAQAAAAAAAAAAAABIENwBAAAAAAAAAAAAAEgQ3AEAAAAAAAAAAAAASBDcAQAAAAAAAAAAAABIENwBAAAAAAAAAAAAAEgQ3AEAAAAAAAAAAAAASBDcAQAAAAAAAAAAAABIENwBAAAAAAAAAAAAAPi37QC7njwDGhXwHwAAAABJRU5ErkJggg==;" parent="1" vertex="1">
                    <mxGeometry x="327.14714285714285" y="326.86" width="94.28571428571429" height="94.28571428571429" as="geometry"/>
                </mxCell>
                <mxCell id="44" value="&lt;font style=&quot;font-size: 13px;&quot;&gt;&lt;b&gt;Piped&lt;br&gt;&lt;/b&gt;(single binary)&lt;/font&gt;" style="rounded=0;whiteSpace=wrap;html=1;align=center;verticalAlign=middle;" parent="1" vertex="1">
                    <mxGeometry x="550" y="420" width="120" height="90" as="geometry"/>
                </mxCell>
                <mxCell id="13" style="edgeStyle=none;html=1;entryX=0.855;entryY=1;entryDx=0;entryDy=-4.35;entryPerimeter=0;exitX=0.5;exitY=0;exitDx=0;exitDy=0;" parent="1" source="44" target="5" edge="1">
                    <mxGeometry relative="1" as="geometry">
                        <mxPoint x="420" y="344" as="sourcePoint"/>
                    </mxGeometry>
                </mxCell>
                <mxCell id="14" value="&lt;font style=&quot;font-size: 13px;&quot;&gt;watch&lt;/font&gt;" style="edgeLabel;html=1;align=center;verticalAlign=middle;resizable=0;points=[];" parent="13" vertex="1" connectable="0">
                    <mxGeometry x="-0.2363" y="2" relative="1" as="geometry">
                        <mxPoint x="28" y="23" as="offset"/>
                    </mxGeometry>
                </mxCell>
                <mxCell id="76" value="&lt;b style=&quot;font-size: 14px;&quot;&gt;1&lt;/b&gt;" style="ellipse;whiteSpace=wrap;html=1;aspect=fixed;fillColor=#f5f5f5;fontColor=#333333;strokeColor=#666666;fontSize=14;" vertex="1" parent="1">
                    <mxGeometry x="118" y="382" width="30" height="30" as="geometry"/>
                </mxCell>
                <mxCell id="77" value="&lt;b style=&quot;font-size: 14px;&quot;&gt;2&lt;/b&gt;" style="ellipse;whiteSpace=wrap;html=1;aspect=fixed;fillColor=#f5f5f5;fontColor=#333333;strokeColor=#666666;fontSize=14;" vertex="1" parent="1">
                    <mxGeometry x="258" y="271" width="30" height="30" as="geometry"/>
                </mxCell>
                <mxCell id="78" value="&lt;b style=&quot;font-size: 14px;&quot;&gt;4&lt;/b&gt;" style="ellipse;whiteSpace=wrap;html=1;aspect=fixed;fillColor=#f5f5f5;fontColor=#333333;strokeColor=#666666;fontSize=14;" vertex="1" parent="1">
                    <mxGeometry x="690" y="430" width="30" height="30" as="geometry"/>
                </mxCell>
            </root>
        </mxGraphModel>
    </diagram>
</mxfile>